<svg width="289" height="30" viewBox="0 0 289 30" fill="none" xmlns="http://www.w3.org/2000/svg">
<g style="mix-blend-mode:hard-light">
<path d="M25.3034 25.9192C25.3034 25.9192 26.2162 28.5055 27.4333 28.5055V29H17.316V28.5055C18.6092 28.5055 19.408 27.2124 18.5712 25.0824L16.3271 19.3391H7.50299L6.47604 22.0396C5.10678 25.8051 8.56797 28.5055 10.3937 28.5055V29H0.352401V28.5055C2.5204 28.5436 4.42215 25.4627 5.33499 23.3708C5.5632 22.7242 11.6868 7.47217 11.5727 7.09182C11.0402 4.96185 9.32867 4.01098 9.32867 4.01098C12.6377 3.8208 15.6045 1.15835 15.6045 1.15835L25.3034 25.9192ZM7.69316 18.7686H16.1369L11.9151 7.96662L7.69316 18.7686ZM84.5415 14.7749C87.3561 15.5356 90.9694 17.3993 90.9694 21.7733C90.9694 29.3043 80.9662 29 80.9662 29H67.0073V28.5055C68.4527 28.5055 69.6317 28.3154 69.6317 25.4627V14.3185H77.1246L70.3164 3.85884C69.2894 2.26137 68.3766 1.69084 67.0834 1.69084V1.19639H79.673C81.5747 1.19639 88.9535 1.08228 88.9155 7.43413C88.9155 10.9714 86.215 12.8351 83.8568 13.7099C83.1342 14.0142 82.4495 14.2044 81.879 14.3185C82.4876 14.3565 83.4385 14.4706 84.5415 14.7749ZM76.0597 1.72888L81.9931 10.8193C82.1833 10.0966 82.3354 9.22178 82.3354 8.1568C82.3354 1.34853 78.2277 1.72888 77.4289 1.72888H76.0597ZM78.0755 28.4675C79.8632 28.4675 84.4654 29.038 84.3893 21.9635V21.6212C84.1992 14.7749 78.4559 14.851 77.8473 14.851H75.6793V25.4627C75.6793 28.6196 78.0755 28.4675 78.0755 28.4675ZM143.931 0.816035C150.815 0.816035 157.357 7.16789 157.357 15.0792C157.357 22.9144 150.815 29.3423 143.931 29.3423C137.046 29.3423 130.542 22.9144 130.542 15.0792C130.542 7.16789 137.046 0.816035 143.931 0.816035ZM143.931 1.31049C142.181 1.31049 140.85 2.10923 139.823 3.44045L150.473 18.0839C150.549 17.057 150.587 15.992 150.587 14.889C150.587 7.43413 148.875 1.31049 143.931 1.31049ZM143.931 28.8479C146.022 28.8479 147.544 27.6688 148.609 25.729L137.541 10.515C137.388 11.8842 137.312 13.3676 137.312 14.889C137.312 22.3439 139.024 28.8479 143.931 28.8479ZM212.37 1.19639H222.944V1.72888C220.509 1.72888 217.961 4.92382 217.961 9.18374V17.4754C217.961 26.4136 215.527 29.4564 208.871 29.4564C200.465 29.4564 198.411 25.6149 198.411 18.9207V4.65757C198.411 2.48958 197.764 1.69084 195.748 1.69084V1.19639H207.083V1.69084C205.219 1.69084 204.459 2.14726 204.459 4.69561V19.3391C204.459 23.2187 205.752 27.0602 209.859 27.0602C217.086 27.0602 217.466 22.2298 217.466 17.4754V9.14571C217.466 4.77168 215.184 1.72888 212.37 1.72888V1.19639ZM287.96 1.19639L288.645 10.0586H287.846C287.618 7.16789 282.978 1.69084 279.06 1.69084H278.604V25.767C278.604 28.1252 280.011 28.5055 281.494 28.5055V29H269.665V28.5055C271.149 28.5055 272.594 28.1252 272.594 25.767V1.69084H271.757C267.612 1.69084 263.77 7.5102 263.352 10.0586H262.515L263.199 1.19639H287.96Z" fill="black"/>
<path d="M25.3034 25.9192L25.7749 25.7528L25.772 25.7447L25.7689 25.7368L25.3034 25.9192ZM27.4333 28.5055H27.9333V28.0055H27.4333V28.5055ZM27.4333 29V29.5H27.9333V29H27.4333ZM17.316 29H16.816V29.5H17.316V29ZM17.316 28.5055V28.0055H16.816V28.5055H17.316ZM18.5712 25.0824L18.1055 25.2644L18.1058 25.2652L18.5712 25.0824ZM16.3271 19.3391L16.7928 19.1571L16.6686 18.8391H16.3271V19.3391ZM7.50299 19.3391V18.8391H7.1582L7.03564 19.1614L7.50299 19.3391ZM6.47604 22.0396L6.00864 21.8618L6.00615 21.8687L6.47604 22.0396ZM10.3937 28.5055H10.8937V28.0055H10.3937V28.5055ZM10.3937 29V29.5H10.8937V29H10.3937ZM0.352401 29H-0.147599V29.5H0.352401V29ZM0.352401 28.5055L0.361171 28.0056L-0.147599 27.9967V28.5055H0.352401ZM5.33499 23.3708L5.79326 23.5708L5.80048 23.5542L5.80649 23.5372L5.33499 23.3708ZM11.5727 7.09182L11.0877 7.21308L11.0905 7.22436L11.0938 7.23549L11.5727 7.09182ZM9.32867 4.01098L9.29998 3.5118L7.57866 3.61073L9.08585 4.44806L9.32867 4.01098ZM15.6045 1.15835L16.07 0.975989L15.8071 0.304697L15.2705 0.786229L15.6045 1.15835ZM7.69316 18.7686L7.22747 18.5866L6.96091 19.2686H7.69316V18.7686ZM16.1369 18.7686V19.2686H16.8692L16.6026 18.5866L16.1369 18.7686ZM11.9151 7.96662L12.3807 7.78461L11.9151 6.5931L11.4494 7.78461L11.9151 7.96662ZM25.3034 25.9192C24.8319 26.0856 24.8319 26.0857 24.832 26.0858C24.832 26.0858 24.832 26.086 24.8321 26.0861C24.8321 26.0863 24.8322 26.0865 24.8323 26.0868C24.8325 26.0874 24.8328 26.0881 24.8331 26.089C24.8337 26.0908 24.8346 26.0932 24.8357 26.0962C24.8378 26.1021 24.8409 26.1105 24.8448 26.1211C24.8526 26.1424 24.8639 26.1726 24.8786 26.2106C24.9079 26.2864 24.9508 26.3934 25.0059 26.5213C25.1157 26.7758 25.277 27.1191 25.481 27.4659C25.6827 27.8088 25.9387 28.1768 26.2438 28.4649C26.5441 28.7486 26.9469 29.0055 27.4333 29.0055V28.0055C27.3113 28.0055 27.1435 27.9392 26.9304 27.7379C26.722 27.5411 26.5216 27.2625 26.3429 26.9588C26.1665 26.659 26.0235 26.3557 25.9241 26.1252C25.8747 26.0107 25.8367 25.9156 25.8114 25.85C25.7987 25.8172 25.7892 25.7919 25.7831 25.7753C25.78 25.7669 25.7778 25.7608 25.7764 25.757C25.7757 25.7551 25.7752 25.7538 25.775 25.7531C25.7749 25.7527 25.7748 25.7525 25.7748 25.7524C25.7748 25.7524 25.7748 25.7524 25.7748 25.7525C25.7748 25.7525 25.7748 25.7526 25.7748 25.7526C25.7749 25.7527 25.7749 25.7528 25.3034 25.9192ZM26.9333 28.5055V29H27.9333V28.5055H26.9333ZM27.4333 28.5H17.316V29.5H27.4333V28.5ZM17.816 29V28.5055H16.816V29H17.816ZM17.316 29.0055C18.1496 29.0055 18.8599 28.575 19.2008 27.7923C19.5293 27.0379 19.4828 26.0355 19.0366 24.8996L18.1058 25.2652C18.4963 26.2592 18.4689 26.9684 18.2839 27.3931C18.1113 27.7894 17.7757 28.0055 17.316 28.0055V29.0055ZM19.0369 24.9004L16.7928 19.1571L15.8614 19.5211L18.1055 25.2644L19.0369 24.9004ZM16.3271 18.8391H7.50299V19.8391H16.3271V18.8391ZM7.03564 19.1614L6.00869 21.8619L6.94339 22.2173L7.97034 19.5168L7.03564 19.1614ZM6.00615 21.8687C5.2522 23.9421 5.8339 25.7393 6.84726 26.9981C7.35018 27.6229 7.96139 28.1193 8.57535 28.4615C9.18277 28.8 9.82584 29.0055 10.3937 29.0055V28.0055C10.0486 28.0055 9.57441 27.8735 9.06217 27.588C8.55648 27.3062 8.04566 26.8921 7.62623 26.3711C6.79488 25.3383 6.33063 23.9026 6.94594 22.2105L6.00615 21.8687ZM9.89365 28.5055V29H10.8937V28.5055H9.89365ZM10.3937 28.5H0.352401V29.5H10.3937V28.5ZM0.852401 29V28.5055H-0.147599V29H0.852401ZM0.34363 29.0055C1.66564 29.0287 2.815 28.1113 3.69762 27.0581C4.59883 25.9826 5.32518 24.6435 5.79326 23.5708L4.87672 23.1708C4.43196 24.1901 3.75101 25.4374 2.93114 26.4158C2.09268 27.4164 1.20716 28.0205 0.361171 28.0056L0.34363 29.0055ZM5.80649 23.5372C5.91685 23.2245 7.49669 19.2703 9.04774 15.314C9.82048 13.3429 10.5834 11.3778 11.1463 9.88093C11.4275 9.13309 11.6602 8.49846 11.8195 8.03714C11.8988 7.80741 11.962 7.6146 12.0041 7.46994C12.0248 7.39867 12.043 7.33028 12.0552 7.27103C12.0612 7.242 12.0678 7.20545 12.0714 7.16669C12.0733 7.14635 12.0832 7.0533 12.0517 6.94814L11.0938 7.23549C11.0772 7.18001 11.075 7.1355 11.0745 7.11766C11.0739 7.09621 11.0751 7.08064 11.0757 7.07416C11.0769 7.06158 11.0781 7.05826 11.0758 7.06926C11.0715 7.09007 11.0618 7.129 11.0439 7.19049C11.0087 7.31135 10.9519 7.48585 10.8742 7.71083C10.7195 8.15894 10.4907 8.78332 10.2103 9.52895C9.64999 11.019 8.88916 12.9787 8.11673 14.949C6.57742 18.8754 4.98134 22.8705 4.8635 23.2044L5.80649 23.5372ZM12.0578 6.97055C11.7646 5.79784 11.1472 4.95216 10.6079 4.40249C10.338 4.12739 10.0854 3.92406 9.898 3.7881C9.80413 3.72001 9.72615 3.6685 9.6699 3.63303C9.64176 3.61529 9.61902 3.60154 9.60239 3.59172C9.59407 3.5868 9.58728 3.58286 9.5821 3.5799C9.57951 3.57842 9.57732 3.57718 9.57555 3.57618C9.57467 3.57568 9.57388 3.57524 9.57321 3.57486C9.57287 3.57467 9.57256 3.57449 9.57227 3.57433C9.57213 3.57425 9.57193 3.57415 9.57186 3.57411C9.57167 3.574 9.57149 3.5739 9.32867 4.01098C9.08585 4.44806 9.08568 4.44796 9.08552 4.44787C9.08547 4.44785 9.08532 4.44776 9.08523 4.44771C9.08504 4.44761 9.08489 4.44752 9.08476 4.44745C9.08449 4.4473 9.08433 4.44721 9.08427 4.44718C9.08415 4.44711 9.08443 4.44727 9.08509 4.44765C9.08643 4.44841 9.08931 4.45007 9.09366 4.45264C9.10236 4.45778 9.1169 4.46654 9.1366 4.47896C9.17604 4.50382 9.23593 4.54323 9.31085 4.59757C9.46096 4.70646 9.66957 4.87397 9.89412 5.10283C10.3437 5.56109 10.8484 6.25583 11.0877 7.21308L12.0578 6.97055ZM9.35736 4.51016C11.1273 4.40843 12.7776 3.65047 13.9637 2.94272C14.5612 2.58618 15.0515 2.23599 15.3932 1.97431C15.5642 1.84332 15.6986 1.73411 15.7911 1.65683C15.8373 1.61819 15.8732 1.58749 15.8979 1.56602C15.9103 1.55528 15.9199 1.54684 15.9267 1.54087C15.9301 1.53788 15.9328 1.53551 15.9347 1.53377C15.9357 1.5329 15.9365 1.53219 15.9371 1.53164C15.9374 1.53136 15.9377 1.53113 15.9379 1.53093C15.938 1.53084 15.9381 1.53072 15.9382 1.53067C15.9383 1.53057 15.9384 1.53047 15.6045 1.15835C15.2705 0.786229 15.2706 0.786154 15.2707 0.78609C15.2707 0.786082 15.2707 0.786028 15.2707 0.786011C15.2708 0.785979 15.2708 0.785987 15.2707 0.786034C15.2706 0.786129 15.2703 0.786383 15.2699 0.786794C15.2689 0.787616 15.2673 0.789064 15.265 0.791119C15.2603 0.79523 15.2529 0.801767 15.2427 0.810576C15.2224 0.828196 15.1913 0.854889 15.1499 0.889414C15.0673 0.958486 14.944 1.05877 14.7852 1.18035C14.4673 1.42382 14.0091 1.75113 13.4512 2.08398C12.3267 2.755 10.839 3.42335 9.29998 3.5118L9.35736 4.51016ZM15.1389 1.34071L24.8378 26.1015L25.7689 25.7368L16.07 0.975989L15.1389 1.34071ZM7.69316 19.2686H16.1369V18.2686H7.69316V19.2686ZM16.6026 18.5866L12.3807 7.78461L11.4494 8.14864L15.6712 18.9506L16.6026 18.5866ZM11.4494 7.78461L7.22747 18.5866L8.15886 18.9506L12.3807 8.14864L11.4494 7.78461ZM84.5415 14.7749L84.4085 15.2569L84.411 15.2576L84.5415 14.7749ZM80.9662 29L80.9814 28.5002L80.9738 28.5H80.9662V29ZM67.0073 29H66.5073V29.5H67.0073V29ZM67.0073 28.5055V28.0055H66.5073V28.5055H67.0073ZM69.6317 14.3185V13.8185H69.1317V14.3185H69.6317ZM77.1246 14.3185V14.8185H78.0467L77.5437 14.0457L77.1246 14.3185ZM70.3164 3.85884L69.8958 4.12922L69.8973 4.1316L70.3164 3.85884ZM67.0834 1.69084H66.5834V2.19084H67.0834V1.69084ZM67.0834 1.19639V0.696387H66.5834V1.19639H67.0834ZM88.9155 7.43413L88.4155 7.43114V7.43413H88.9155ZM83.8568 13.7099L83.6829 13.2411L83.6728 13.2449L83.6628 13.2491L83.8568 13.7099ZM81.879 14.3185L81.781 13.8282L81.8478 14.8175L81.879 14.3185ZM76.0597 1.72888V1.22888H75.1362L75.641 2.00217L76.0597 1.72888ZM81.9931 10.8193L81.5744 11.0925L82.19 12.0357L82.4767 10.9465L81.9931 10.8193ZM78.0755 28.4675V27.9675H78.0597L78.0438 27.9685L78.0755 28.4675ZM84.3893 21.9635L83.8893 21.9635L83.8894 21.9689L84.3893 21.9635ZM84.3893 21.6212H84.8895L84.8891 21.6073L84.3893 21.6212ZM75.6793 14.851V14.351H75.1793V14.851H75.6793ZM84.411 15.2576C85.7798 15.6275 87.305 16.2569 88.4801 17.294C89.6398 18.3175 90.4694 19.7451 90.4694 21.7733H91.4694C91.4694 19.4275 90.4924 17.7362 89.1418 16.5442C87.8065 15.3658 86.1178 14.683 84.6719 14.2922L84.411 15.2576ZM90.4694 21.7733C90.4694 23.5335 89.8894 24.806 89.0366 25.7431C88.1739 26.691 87.0072 27.3221 85.8043 27.7383C84.6036 28.1537 83.3953 28.3453 82.4819 28.4321C82.0265 28.4754 81.6478 28.4923 81.3843 28.4985C81.2527 28.5016 81.15 28.502 81.0812 28.5016C81.0468 28.5014 81.0209 28.501 81.004 28.5007C80.9956 28.5006 80.9894 28.5004 80.9857 28.5003C80.9838 28.5003 80.9824 28.5003 80.9817 28.5002C80.9814 28.5002 80.9812 28.5002 80.9811 28.5002C80.9811 28.5002 80.9811 28.5002 80.9811 28.5002C80.9812 28.5002 80.9814 28.5002 80.9662 29C80.951 29.4998 80.9512 29.4998 80.9515 29.4998C80.9516 29.4998 80.9519 29.4998 80.9522 29.4998C80.9527 29.4998 80.9534 29.4998 80.9543 29.4999C80.956 29.4999 80.9583 29.5 80.9612 29.5C80.967 29.5002 80.9752 29.5004 80.9857 29.5006C81.0068 29.5009 81.037 29.5014 81.0759 29.5016C81.1536 29.502 81.2658 29.5015 81.4077 29.4982C81.6913 29.4916 82.094 29.4735 82.5765 29.4276C83.5387 29.3362 84.8312 29.1331 86.1313 28.6833C87.4292 28.2342 88.7632 27.5292 89.7762 26.4161C90.799 25.2922 91.4694 23.7787 91.4694 21.7733H90.4694ZM80.9662 28.5H67.0073V29.5H80.9662V28.5ZM67.5073 29V28.5055H66.5073V29H67.5073ZM67.0073 29.0055C67.7149 29.0055 68.5533 28.9721 69.1854 28.4348C69.8331 27.8843 70.1317 26.9313 70.1317 25.4627H69.1317C69.1317 26.8468 68.8408 27.4152 68.5377 27.6729C68.2189 27.9439 67.7451 28.0055 67.0073 28.0055V29.0055ZM70.1317 25.4627V14.3185H69.1317V25.4627H70.1317ZM69.6317 14.8185H77.1246V13.8185H69.6317V14.8185ZM77.5437 14.0457L70.7354 3.58608L69.8973 4.1316L76.7056 14.5912L77.5437 14.0457ZM70.737 3.58846C70.205 2.76089 69.6751 2.15479 69.0753 1.75859C68.4631 1.35417 67.8122 1.19084 67.0834 1.19084V2.19084C67.6478 2.19084 68.0999 2.31278 68.5241 2.59299C68.9608 2.88142 69.4008 3.35932 69.8958 4.12922L70.737 3.58846ZM67.5834 1.69084V1.19639H66.5834V1.69084H67.5834ZM67.0834 1.69639H79.673V0.696387H67.0834V1.69639ZM79.673 1.69639C80.6355 1.69639 82.8674 1.67248 84.8488 2.40249C85.8325 2.76488 86.7239 3.30284 87.3666 4.09485C88.0029 4.87904 88.4244 5.94755 88.4155 7.43114L89.4155 7.43713C89.4256 5.74479 88.939 4.44562 88.1431 3.46475C87.3535 2.49169 86.2885 1.8672 85.1945 1.46414C83.0206 0.663237 80.6123 0.696387 79.673 0.696387V1.69639ZM88.4155 7.43413C88.4155 10.6518 85.9746 12.391 83.6829 13.2411L84.0307 14.1787C86.4555 13.2792 89.4155 11.291 89.4155 7.43413H88.4155ZM83.6628 13.2491C82.975 13.5387 82.323 13.7198 81.781 13.8282L81.9771 14.8088C82.5761 14.689 83.2934 14.4897 84.0509 14.1707L83.6628 13.2491ZM81.8478 14.8175C82.4284 14.8538 83.3444 14.9633 84.4085 15.2569L84.6744 14.2929C83.5325 13.9779 82.5468 13.8592 81.9102 13.8194L81.8478 14.8175ZM75.641 2.00217L81.5744 11.0925L82.4118 10.546L76.4784 1.45558L75.641 2.00217ZM82.4767 10.9465C82.676 10.1892 82.8354 9.27133 82.8354 8.1568H81.8354C81.8354 9.17223 81.6907 10.004 81.5096 10.692L82.4767 10.9465ZM82.8354 8.1568C82.8354 4.65327 81.7733 2.8554 80.4603 1.97452C79.1848 1.1188 77.7933 1.22888 77.4289 1.22888V2.22888C77.8633 2.22888 78.9251 2.14878 79.9031 2.80495C80.8437 3.43597 81.8354 4.85205 81.8354 8.1568H82.8354ZM77.4289 1.22888H76.0597V2.22888H77.4289V1.22888ZM78.0755 28.9675C78.9025 28.9675 80.6652 29.1257 82.1701 28.3078C83.752 27.4479 84.9286 25.6087 84.8893 21.9581L83.8894 21.9689C83.9262 25.3929 82.8397 26.8056 81.6925 27.4292C80.4684 28.0946 79.0362 27.9675 78.0755 27.9675V28.9675ZM84.8893 21.9635V21.6212H83.8893V21.9635H84.8893ZM84.8891 21.6073C84.7893 18.0127 83.2121 16.1547 81.5145 15.2297C79.8601 14.3282 78.161 14.351 77.8473 14.351V15.351C78.1422 15.351 79.619 15.3357 81.036 16.1078C82.4096 16.8563 83.7992 18.3834 83.8895 21.6351L84.8891 21.6073ZM77.8473 14.351H75.6793V15.351H77.8473V14.351ZM75.1793 14.851V25.4627H76.1793V14.851H75.1793ZM75.1793 25.4627C75.1793 27.1896 75.8487 28.1185 76.6217 28.5786C76.99 28.7979 77.3545 28.8939 77.624 28.936C77.7596 28.9571 77.8741 28.9651 77.9573 28.9676C77.9989 28.9689 78.0331 28.9688 78.0584 28.9684C78.0711 28.9681 78.0816 28.9677 78.0897 28.9674C78.0938 28.9672 78.0973 28.9671 78.1003 28.9669C78.1017 28.9668 78.103 28.9668 78.1042 28.9667C78.1048 28.9667 78.1053 28.9666 78.1058 28.9666C78.1061 28.9666 78.1064 28.9666 78.1065 28.9665C78.1069 28.9665 78.1072 28.9665 78.0755 28.4675C78.0438 27.9685 78.0441 27.9685 78.0445 27.9685C78.0445 27.9685 78.0448 27.9685 78.045 27.9684C78.0454 27.9684 78.0457 27.9684 78.046 27.9684C78.0466 27.9683 78.047 27.9683 78.0473 27.9683C78.0479 27.9683 78.048 27.9683 78.0475 27.9683C78.0467 27.9683 78.0437 27.9684 78.0388 27.9685C78.029 27.9687 78.0117 27.9688 77.9879 27.9681C77.94 27.9666 77.8673 27.9618 77.7782 27.9479C77.5984 27.9199 77.3639 27.8567 77.1332 27.7193C76.708 27.4663 76.1793 26.8928 76.1793 25.4627H75.1793ZM139.823 3.44045L139.427 3.13505L139.198 3.43162L139.418 3.73454L139.823 3.44045ZM150.473 18.0839L150.068 18.378L150.87 19.4811L150.971 18.1209L150.473 18.0839ZM148.609 25.729L149.047 25.9696L149.2 25.6915L149.013 25.4348L148.609 25.729ZM137.541 10.515L137.945 10.2208L137.186 9.17777L137.044 10.4598L137.541 10.515ZM143.931 1.31603C150.524 1.31603 156.857 7.42889 156.857 15.0792H157.857C157.857 6.90688 151.106 0.316035 143.931 0.316035V1.31603ZM156.857 15.0792C156.857 22.6552 150.522 28.8423 143.931 28.8423V29.8423C151.108 29.8423 157.857 23.1736 157.857 15.0792H156.857ZM143.931 28.8423C137.341 28.8423 131.042 22.657 131.042 15.0792H130.042C130.042 23.1718 136.752 29.8423 143.931 29.8423V28.8423ZM131.042 15.0792C131.042 7.42706 137.339 1.31603 143.931 1.31603V0.316035C136.753 0.316035 130.042 6.90871 130.042 15.0792H131.042ZM143.931 0.810491C141.999 0.810491 140.531 1.70373 139.427 3.13505L140.219 3.74585C141.168 2.51472 142.362 1.81049 143.931 1.81049V0.810491ZM139.418 3.73454L150.068 18.378L150.877 17.7899L140.227 3.14637L139.418 3.73454ZM150.971 18.1209C151.048 17.0808 151.087 16.0035 151.087 14.889H150.087C150.087 15.9806 150.049 17.0332 149.974 18.047L150.971 18.1209ZM151.087 14.889C151.087 11.1371 150.658 7.66322 149.573 5.10871C149.029 3.82732 148.309 2.75183 147.371 1.99468C146.424 1.23111 145.279 0.810491 143.931 0.810491V1.81049C145.054 1.81049 145.977 2.15533 146.743 2.7729C147.516 3.3969 148.151 4.31825 148.653 5.49963C149.66 7.87066 150.087 11.186 150.087 14.889H151.087ZM143.931 29.3479C146.257 29.3479 147.923 28.0177 149.047 25.9696L148.171 25.4884C147.165 27.3199 145.788 28.3479 143.931 28.3479V29.3479ZM149.013 25.4348L137.945 10.2208L137.136 10.8091L148.204 26.0231L149.013 25.4348ZM137.044 10.4598C136.889 11.8496 136.812 13.3515 136.812 14.889H137.812C137.812 13.3837 137.888 11.9189 138.038 10.5702L137.044 10.4598ZM136.812 14.889C136.812 18.6417 137.241 22.2068 138.318 24.8525C139.399 27.5063 141.19 29.3479 143.931 29.3479V28.3479C141.765 28.3479 140.247 26.9374 139.245 24.4755C138.239 22.0055 137.812 18.5912 137.812 14.889H136.812ZM212.37 1.19639V0.696387H211.87V1.19639H212.37ZM222.944 1.19639H223.444V0.696387H222.944V1.19639ZM222.944 1.72888V2.22888H223.444V1.72888H222.944ZM195.748 1.69084H195.248V2.19084H195.748V1.69084ZM195.748 1.19639V0.696387H195.248V1.19639H195.748ZM207.083 1.19639H207.583V0.696387H207.083V1.19639ZM207.083 1.69084V2.19084H207.583V1.69084H207.083ZM212.37 1.72888H211.87V2.22888H212.37V1.72888ZM212.37 1.69639H222.944V0.696387H212.37V1.69639ZM222.444 1.19639V1.72888H223.444V1.19639H222.444ZM222.944 1.22888C221.506 1.22888 220.127 2.16231 219.131 3.57015C218.127 4.99076 217.461 6.95661 217.461 9.18374H218.461C218.461 7.15095 219.069 5.38938 219.948 4.14752C220.835 2.89291 221.947 2.22888 222.944 2.22888V1.22888ZM217.461 9.18374V17.4754H218.461V9.18374H217.461ZM217.461 17.4754C217.461 21.9289 216.848 24.776 215.515 26.5134C214.213 28.2113 212.132 28.9564 208.871 28.9564V29.9564C212.265 29.9564 214.73 29.1801 216.309 27.1221C217.857 25.1035 218.461 21.9601 218.461 17.4754H217.461ZM208.871 28.9564C204.73 28.9564 202.292 28.009 200.866 26.3706C199.426 24.7163 198.911 22.2406 198.911 18.9207H197.911C197.911 22.295 198.423 25.0871 200.111 27.0271C201.814 28.983 204.605 29.9564 208.871 29.9564V28.9564ZM198.911 18.9207V4.65757H197.911V18.9207H198.911ZM198.911 4.65757C198.911 3.55333 198.753 2.64785 198.211 2.03115C197.653 1.39587 196.802 1.19084 195.748 1.19084V2.19084C196.711 2.19084 197.191 2.38518 197.46 2.69127C197.745 3.01594 197.911 3.59382 197.911 4.65757H198.911ZM196.248 1.69084V1.19639H195.248V1.69084H196.248ZM195.748 1.69639H207.083V0.696387H195.748V1.69639ZM206.583 1.19639V1.69084H207.583V1.19639H206.583ZM207.083 1.19084C206.149 1.19084 205.295 1.29395 204.714 1.88799C204.141 2.47414 203.959 3.41024 203.959 4.69561H204.959C204.959 3.43263 205.156 2.86634 205.429 2.5872C205.695 2.31594 206.153 2.19084 207.083 2.19084V1.19084ZM203.959 4.69561V19.3391H204.959V4.69561H203.959ZM203.959 19.3391C203.959 21.3204 204.286 23.3515 205.186 24.905C206.105 26.4919 207.613 27.5602 209.859 27.5602V26.5602C207.998 26.5602 206.806 25.7077 206.051 24.404C205.277 23.0668 204.959 21.2373 204.959 19.3391H203.959ZM209.859 27.5602C211.719 27.5602 213.18 27.2497 214.321 26.6782C215.469 26.103 216.265 25.2765 216.81 24.293C217.881 22.3612 217.966 19.8345 217.966 17.4754H216.966C216.966 19.8707 216.862 22.1364 215.936 23.8084C215.482 24.6268 214.829 25.305 213.873 25.7842C212.91 26.2669 211.613 26.5602 209.859 26.5602V27.5602ZM217.966 17.4754V9.14571H216.966V17.4754H217.966ZM217.966 9.14571C217.966 6.87608 217.375 4.91599 216.382 3.50881C215.388 2.09891 213.974 1.22888 212.37 1.22888V2.22888C213.581 2.22888 214.715 2.88025 215.565 4.08526C216.417 5.29298 216.966 7.04131 216.966 9.14571H217.966ZM212.87 1.72888V1.19639H211.87V1.72888H212.87ZM287.96 1.19639L288.459 1.15788L288.423 0.696387H287.96V1.19639ZM288.645 10.0586V10.5586H289.185L289.143 10.02L288.645 10.0586ZM287.846 10.0586L287.348 10.0979L287.384 10.5586H287.846V10.0586ZM278.604 1.69084V1.19084H278.104V1.69084H278.604ZM281.494 28.5055H281.994V28.0055H281.494V28.5055ZM281.494 29V29.5H281.994V29H281.494ZM269.665 29H269.165V29.5H269.665V29ZM269.665 28.5055V28.0055H269.165V28.5055H269.665ZM272.594 1.69084H273.094V1.19084H272.594V1.69084ZM263.352 10.0586V10.5586H263.776L263.845 10.1396L263.352 10.0586ZM262.515 10.0586L262.016 10.02L261.975 10.5586H262.515V10.0586ZM263.199 1.19639V0.696387H262.737L262.701 1.15788L263.199 1.19639ZM287.462 1.2349L288.146 10.0971L289.143 10.02L288.459 1.15788L287.462 1.2349ZM288.645 9.55855H287.846V10.5586H288.645V9.55855ZM288.345 10.0192C288.279 9.19168 287.907 8.23282 287.362 7.28259C286.811 6.32366 286.061 5.33515 285.196 4.44261C283.488 2.68172 281.225 1.19084 279.06 1.19084V2.19084C280.813 2.19084 282.829 3.43848 284.478 5.13879C285.29 5.97684 285.988 6.89959 286.494 7.7806C287.005 8.67032 287.299 9.48009 287.348 10.0979L288.345 10.0192ZM279.06 1.19084H278.604V2.19084H279.06V1.19084ZM278.104 1.69084V25.767H279.104V1.69084H278.104ZM278.104 25.767C278.104 27.0487 278.492 27.912 279.199 28.4253C279.871 28.913 280.732 29.0055 281.494 29.0055V28.0055C280.774 28.0055 280.189 27.9079 279.786 27.6159C279.419 27.3495 279.104 26.8435 279.104 25.767H278.104ZM280.994 28.5055V29H281.994V28.5055H280.994ZM281.494 28.5H269.665V29.5H281.494V28.5ZM270.165 29V28.5055H269.165V29H270.165ZM269.665 29.0055C270.428 29.0055 271.296 28.9128 271.976 28.4277C272.693 27.9164 273.094 27.0535 273.094 25.767H272.094C272.094 26.8387 271.772 27.345 271.396 27.6135C270.983 27.9081 270.386 28.0055 269.665 28.0055V29.0055ZM273.094 25.767V1.69084H272.094V25.767H273.094ZM272.594 1.19084H271.757V2.19084H272.594V1.19084ZM271.757 1.19084C269.461 1.19084 267.337 2.78623 265.778 4.59233C264.214 6.40449 263.088 8.57911 262.858 9.97754L263.845 10.1396C264.034 8.98964 265.038 6.98041 266.535 5.2458C268.038 3.50514 269.908 2.19084 271.757 2.19084V1.19084ZM263.352 9.55855H262.515V10.5586H263.352V9.55855ZM263.013 10.0971L263.698 1.2349L262.701 1.15788L262.016 10.02L263.013 10.0971ZM263.199 1.69639H287.96V0.696387H263.199V1.69639Z" fill="black"/>
</g>
</svg>
