<svg width="692" height="53" viewBox="0 0 692 53" fill="none" xmlns="http://www.w3.org/2000/svg">
<path d="M12.0963 2.4H7.19625V15H5.39625V2.4H0.49625V0.799999H12.0963V2.4ZM20.3414 15V0.799999H26.4214C27.0481 0.799999 27.6214 0.933332 28.1414 1.2C28.6614 1.45333 29.1147 1.8 29.5014 2.24C29.8881 2.66667 30.1881 3.15333 30.4014 3.7C30.6147 4.23333 30.7214 4.78 30.7214 5.34C30.7214 5.99333 30.5947 6.61333 30.3414 7.2C30.1014 7.78667 29.7547 8.28667 29.3014 8.7C28.8614 9.11333 28.3414 9.4 27.7414 9.56L31.1814 15H29.1414L25.9014 9.9H22.1414V15H20.3414ZM22.1414 8.3H26.4414C26.9347 8.3 27.3614 8.16667 27.7214 7.9C28.0947 7.62 28.3814 7.25333 28.5814 6.8C28.7947 6.34667 28.9014 5.86 28.9014 5.34C28.9014 4.80667 28.7814 4.32 28.5414 3.88C28.3014 3.42667 27.9881 3.06667 27.6014 2.8C27.2147 2.53333 26.7881 2.4 26.3214 2.4H22.1414V8.3ZM49.3259 13.4V15H39.6859V0.799999H49.1459V2.4H41.4859V7H48.1459V8.5H41.4859V13.4H49.3259ZM67.6353 13.4V15H57.9953V0.799999H67.4553V2.4H59.7953V7H66.4553V8.5H59.7953V13.4H67.6353ZM84.6447 3.78C84.4847 3.59333 84.2714 3.41333 84.0047 3.24C83.738 3.06667 83.438 2.91333 83.1047 2.78C82.7714 2.63333 82.4047 2.52 82.0047 2.44C81.618 2.34667 81.2114 2.3 80.7847 2.3C79.6914 2.3 78.8847 2.50667 78.3647 2.92C77.8447 3.33333 77.5847 3.9 77.5847 4.62C77.5847 5.12667 77.718 5.52667 77.9847 5.82C78.2514 6.11333 78.658 6.35333 79.2047 6.54C79.7647 6.72667 80.4714 6.92 81.3247 7.12C82.3114 7.33333 83.1647 7.59333 83.8847 7.9C84.6047 8.20667 85.158 8.62 85.5447 9.14C85.9314 9.64667 86.1247 10.3267 86.1247 11.18C86.1247 11.86 85.9914 12.4533 85.7247 12.96C85.4714 13.4533 85.1114 13.8667 84.6447 14.2C84.178 14.52 83.6314 14.76 83.0047 14.92C82.378 15.0667 81.698 15.14 80.9647 15.14C80.2447 15.14 79.538 15.0667 78.8447 14.92C78.1647 14.76 77.518 14.5333 76.9047 14.24C76.2914 13.9467 75.718 13.58 75.1847 13.14L76.0447 11.62C76.258 11.8467 76.5314 12.0733 76.8647 12.3C77.2114 12.5133 77.598 12.7133 78.0247 12.9C78.4647 13.0867 78.938 13.24 79.4447 13.36C79.9514 13.4667 80.4714 13.52 81.0047 13.52C82.018 13.52 82.8047 13.34 83.3647 12.98C83.9247 12.6067 84.2047 12.0667 84.2047 11.36C84.2047 10.8267 84.0447 10.4 83.7247 10.08C83.418 9.76 82.958 9.49333 82.3447 9.28C81.7314 9.06667 80.9847 8.85333 80.1047 8.64C79.1447 8.4 78.338 8.14 77.6847 7.86C77.0314 7.56667 76.538 7.18667 76.2047 6.72C75.8847 6.25333 75.7247 5.64667 75.7247 4.9C75.7247 3.99333 75.9447 3.22667 76.3847 2.6C76.8247 1.97333 77.4314 1.5 78.2047 1.18C78.978 0.859999 79.8514 0.699999 80.8247 0.699999C81.4647 0.699999 82.058 0.766666 82.6047 0.899999C83.1647 1.03333 83.6847 1.22 84.1647 1.46C84.6447 1.7 85.0847 1.98667 85.4847 2.32L84.6447 3.78ZM111.711 15.1C110.711 15.1 109.804 14.9 108.991 14.5C108.177 14.1 107.471 13.56 106.871 12.88C106.284 12.1867 105.831 11.4133 105.511 10.56C105.191 9.69333 105.031 8.80667 105.031 7.9C105.031 6.95333 105.197 6.05333 105.531 5.2C105.877 4.33333 106.351 3.56667 106.951 2.9C107.564 2.22 108.277 1.68667 109.091 1.3C109.904 0.899999 110.791 0.699999 111.751 0.699999C112.751 0.699999 113.657 0.906666 114.471 1.32C115.284 1.73333 115.984 2.28667 116.571 2.98C117.157 3.67333 117.611 4.44667 117.931 5.3C118.251 6.15333 118.411 7.02667 118.411 7.92C118.411 8.86667 118.244 9.77333 117.911 10.64C117.577 11.4933 117.104 12.26 116.491 12.94C115.891 13.6067 115.184 14.1333 114.371 14.52C113.557 14.9067 112.671 15.1 111.711 15.1ZM106.851 7.9C106.851 8.62 106.964 9.32 107.191 10C107.431 10.6667 107.764 11.26 108.191 11.78C108.617 12.3 109.131 12.7133 109.731 13.02C110.331 13.3267 110.997 13.48 111.731 13.48C112.491 13.48 113.171 13.32 113.771 13C114.371 12.68 114.877 12.2533 115.291 11.72C115.717 11.1867 116.037 10.5867 116.251 9.92C116.477 9.25333 116.591 8.58 116.591 7.9C116.591 7.18 116.471 6.48667 116.231 5.82C116.004 5.15333 115.671 4.56 115.231 4.04C114.804 3.50667 114.291 3.09333 113.691 2.8C113.104 2.49333 112.451 2.34 111.731 2.34C110.971 2.34 110.291 2.5 109.691 2.82C109.091 3.12667 108.577 3.54667 108.151 4.08C107.737 4.61333 107.417 5.21333 107.191 5.88C106.964 6.53333 106.851 7.20667 106.851 7.9ZM127.112 15V0.799999H136.492V2.4H128.912V7.14H135.292V8.64H128.912V15H127.112ZM160.239 0.879999H161.939L163.819 5.82L165.719 0.879999H167.419L164.959 7.06L167.399 12.92L172.199 0.799999H174.159L168.219 15H166.659L163.839 8.3L160.999 15H159.439L153.519 0.799999H155.459L160.279 12.92L162.699 7.06L160.239 0.879999ZM193.636 0.799999V15H191.836V8.54H184.016V15H182.216V0.799999H184.016V6.94H191.836V0.799999H193.636ZM203.24 15V0.799999H205.04V15H203.24ZM224.875 2.4H219.975V15H218.175V2.4H213.275V0.799999H224.875V2.4ZM242.76 13.4V15H233.12V0.799999H242.58V2.4H234.92V7H241.58V8.5H234.92V13.4H242.76ZM262.688 15V0.799999H264.488V15H262.688ZM282.424 3.78C282.264 3.59333 282.05 3.41333 281.784 3.24C281.517 3.06667 281.217 2.91333 280.884 2.78C280.55 2.63333 280.184 2.52 279.784 2.44C279.397 2.34667 278.99 2.3 278.564 2.3C277.47 2.3 276.664 2.50667 276.144 2.92C275.624 3.33333 275.364 3.9 275.364 4.62C275.364 5.12667 275.497 5.52667 275.764 5.82C276.03 6.11333 276.437 6.35333 276.984 6.54C277.544 6.72667 278.25 6.92 279.104 7.12C280.09 7.33333 280.944 7.59333 281.664 7.9C282.384 8.20667 282.937 8.62 283.324 9.14C283.71 9.64667 283.904 10.3267 283.904 11.18C283.904 11.86 283.77 12.4533 283.504 12.96C283.25 13.4533 282.89 13.8667 282.424 14.2C281.957 14.52 281.41 14.76 280.784 14.92C280.157 15.0667 279.477 15.14 278.744 15.14C278.024 15.14 277.317 15.0667 276.624 14.92C275.944 14.76 275.297 14.5333 274.684 14.24C274.07 13.9467 273.497 13.58 272.964 13.14L273.824 11.62C274.037 11.8467 274.31 12.0733 274.644 12.3C274.99 12.5133 275.377 12.7133 275.804 12.9C276.244 13.0867 276.717 13.24 277.224 13.36C277.73 13.4667 278.25 13.52 278.784 13.52C279.797 13.52 280.584 13.34 281.144 12.98C281.704 12.6067 281.984 12.0667 281.984 11.36C281.984 10.8267 281.824 10.4 281.504 10.08C281.197 9.76 280.737 9.49333 280.124 9.28C279.51 9.06667 278.764 8.85333 277.884 8.64C276.924 8.4 276.117 8.14 275.464 7.86C274.81 7.56667 274.317 7.18667 273.984 6.72C273.664 6.25333 273.504 5.64667 273.504 4.9C273.504 3.99333 273.724 3.22667 274.164 2.6C274.604 1.97333 275.21 1.5 275.984 1.18C276.757 0.859999 277.63 0.699999 278.604 0.699999C279.244 0.699999 279.837 0.766666 280.384 0.899999C280.944 1.03333 281.464 1.22 281.944 1.46C282.424 1.7 282.864 1.98667 283.264 2.32L282.424 3.78ZM307.425 0.799999H308.945L314.745 15H312.825L311.145 10.84H305.185L303.525 15H301.605L307.425 0.799999ZM310.745 9.44L308.185 2.88L305.545 9.44H310.745ZM341.813 3.78C341.653 3.59333 341.44 3.41333 341.173 3.24C340.907 3.06667 340.607 2.91333 340.273 2.78C339.94 2.63333 339.573 2.52 339.173 2.44C338.787 2.34667 338.38 2.3 337.953 2.3C336.86 2.3 336.053 2.50667 335.533 2.92C335.013 3.33333 334.753 3.9 334.753 4.62C334.753 5.12667 334.887 5.52667 335.153 5.82C335.42 6.11333 335.827 6.35333 336.373 6.54C336.933 6.72667 337.64 6.92 338.493 7.12C339.48 7.33333 340.333 7.59333 341.053 7.9C341.773 8.20667 342.327 8.62 342.713 9.14C343.1 9.64667 343.293 10.3267 343.293 11.18C343.293 11.86 343.16 12.4533 342.893 12.96C342.64 13.4533 342.28 13.8667 341.813 14.2C341.347 14.52 340.8 14.76 340.173 14.92C339.547 15.0667 338.867 15.14 338.133 15.14C337.413 15.14 336.707 15.0667 336.013 14.92C335.333 14.76 334.687 14.5333 334.073 14.24C333.46 13.9467 332.887 13.58 332.353 13.14L333.213 11.62C333.427 11.8467 333.7 12.0733 334.033 12.3C334.38 12.5133 334.767 12.7133 335.193 12.9C335.633 13.0867 336.107 13.24 336.613 13.36C337.12 13.4667 337.64 13.52 338.173 13.52C339.187 13.52 339.973 13.34 340.533 12.98C341.093 12.6067 341.373 12.0667 341.373 11.36C341.373 10.8267 341.213 10.4 340.893 10.08C340.587 9.76 340.127 9.49333 339.513 9.28C338.9 9.06667 338.153 8.85333 337.273 8.64C336.313 8.4 335.507 8.14 334.853 7.86C334.2 7.56667 333.707 7.18667 333.373 6.72C333.053 6.25333 332.893 5.64667 332.893 4.9C332.893 3.99333 333.113 3.22667 333.553 2.6C333.993 1.97333 334.6 1.5 335.373 1.18C336.147 0.859999 337.02 0.699999 337.993 0.699999C338.633 0.699999 339.227 0.766666 339.773 0.899999C340.333 1.03333 340.853 1.22 341.333 1.46C341.813 1.7 342.253 1.98667 342.653 2.32L341.813 3.78ZM350.941 7.8C350.941 6.93333 351.088 6.08667 351.381 5.26C351.688 4.42 352.128 3.66 352.701 2.98C353.288 2.28667 354.001 1.74 354.841 1.34C355.681 0.926666 356.634 0.719999 357.701 0.719999C358.968 0.719999 360.054 1.01333 360.961 1.6C361.868 2.17333 362.541 2.91333 362.981 3.82L361.561 4.74C361.281 4.14 360.921 3.66667 360.481 3.32C360.054 2.96 359.588 2.70667 359.081 2.56C358.588 2.41333 358.101 2.34 357.621 2.34C356.834 2.34 356.134 2.5 355.521 2.82C354.921 3.14 354.414 3.56667 354.001 4.1C353.588 4.63333 353.274 5.23333 353.061 5.9C352.861 6.55333 352.761 7.21333 352.761 7.88C352.761 8.61333 352.881 9.32 353.121 10C353.374 10.68 353.721 11.28 354.161 11.8C354.601 12.32 355.121 12.7333 355.721 13.04C356.321 13.3467 356.974 13.5 357.681 13.5C358.174 13.5 358.681 13.4133 359.201 13.24C359.721 13.0667 360.208 12.8 360.661 12.44C361.114 12.0667 361.474 11.5867 361.741 11L363.241 11.82C362.948 12.5267 362.494 13.1267 361.881 13.62C361.268 14.1133 360.581 14.4867 359.821 14.74C359.074 14.9933 358.334 15.12 357.601 15.12C356.628 15.12 355.734 14.9133 354.921 14.5C354.108 14.0733 353.401 13.5133 352.801 12.82C352.214 12.1133 351.754 11.3267 351.421 10.46C351.101 9.58 350.941 8.69333 350.941 7.8ZM377.297 15.1C376.297 15.1 375.391 14.9 374.577 14.5C373.764 14.1 373.057 13.56 372.457 12.88C371.871 12.1867 371.417 11.4133 371.097 10.56C370.777 9.69333 370.617 8.80667 370.617 7.9C370.617 6.95333 370.784 6.05333 371.117 5.2C371.464 4.33333 371.937 3.56667 372.537 2.9C373.151 2.22 373.864 1.68667 374.677 1.3C375.491 0.899999 376.377 0.699999 377.337 0.699999C378.337 0.699999 379.244 0.906666 380.057 1.32C380.871 1.73333 381.571 2.28667 382.157 2.98C382.744 3.67333 383.197 4.44667 383.517 5.3C383.837 6.15333 383.997 7.02667 383.997 7.92C383.997 8.86667 383.831 9.77333 383.497 10.64C383.164 11.4933 382.691 12.26 382.077 12.94C381.477 13.6067 380.771 14.1333 379.957 14.52C379.144 14.9067 378.257 15.1 377.297 15.1ZM372.437 7.9C372.437 8.62 372.551 9.32 372.777 10C373.017 10.6667 373.351 11.26 373.777 11.78C374.204 12.3 374.717 12.7133 375.317 13.02C375.917 13.3267 376.584 13.48 377.317 13.48C378.077 13.48 378.757 13.32 379.357 13C379.957 12.68 380.464 12.2533 380.877 11.72C381.304 11.1867 381.624 10.5867 381.837 9.92C382.064 9.25333 382.177 8.58 382.177 7.9C382.177 7.18 382.057 6.48667 381.817 5.82C381.591 5.15333 381.257 4.56 380.817 4.04C380.391 3.50667 379.877 3.09333 379.277 2.8C378.691 2.49333 378.037 2.34 377.317 2.34C376.557 2.34 375.877 2.5 375.277 2.82C374.677 3.12667 374.164 3.54667 373.737 4.08C373.324 4.61333 373.004 5.21333 372.777 5.88C372.551 6.53333 372.437 7.20667 372.437 7.9ZM402.489 2.4H397.589V15H395.789V2.4H390.889V0.799999H402.489V2.4ZM420.974 2.4H416.074V15H414.274V2.4H409.374V0.799999H420.974V2.4ZM429.22 15V0.799999H431.02V15H429.22ZM448.955 3.78C448.795 3.59333 448.581 3.41333 448.315 3.24C448.048 3.06667 447.748 2.91333 447.415 2.78C447.081 2.63333 446.715 2.52 446.315 2.44C445.928 2.34667 445.521 2.3 445.095 2.3C444.001 2.3 443.195 2.50667 442.675 2.92C442.155 3.33333 441.895 3.9 441.895 4.62C441.895 5.12667 442.028 5.52667 442.295 5.82C442.561 6.11333 442.968 6.35333 443.515 6.54C444.075 6.72667 444.781 6.92 445.635 7.12C446.621 7.33333 447.475 7.59333 448.195 7.9C448.915 8.20667 449.468 8.62 449.855 9.14C450.241 9.64667 450.435 10.3267 450.435 11.18C450.435 11.86 450.301 12.4533 450.035 12.96C449.781 13.4533 449.421 13.8667 448.955 14.2C448.488 14.52 447.941 14.76 447.315 14.92C446.688 15.0667 446.008 15.14 445.275 15.14C444.555 15.14 443.848 15.0667 443.155 14.92C442.475 14.76 441.828 14.5333 441.215 14.24C440.601 13.9467 440.028 13.58 439.495 13.14L440.355 11.62C440.568 11.8467 440.841 12.0733 441.175 12.3C441.521 12.5133 441.908 12.7133 442.335 12.9C442.775 13.0867 443.248 13.24 443.755 13.36C444.261 13.4667 444.781 13.52 445.315 13.52C446.328 13.52 447.115 13.34 447.675 12.98C448.235 12.6067 448.515 12.0667 448.515 11.36C448.515 10.8267 448.355 10.4 448.035 10.08C447.728 9.76 447.268 9.49333 446.655 9.28C446.041 9.06667 445.295 8.85333 444.415 8.64C443.455 8.4 442.648 8.14 441.995 7.86C441.341 7.56667 440.848 7.18667 440.515 6.72C440.195 6.25333 440.035 5.64667 440.035 4.9C440.035 3.99333 440.255 3.22667 440.695 2.6C441.135 1.97333 441.741 1.5 442.515 1.18C443.288 0.859999 444.161 0.699999 445.135 0.699999C445.775 0.699999 446.368 0.766666 446.915 0.899999C447.475 1.03333 447.995 1.22 448.475 1.46C448.955 1.7 449.395 1.98667 449.795 2.32L448.955 3.78ZM470.422 0.799999V15H468.622V8.54H460.802V15H459.002V0.799999H460.802V6.94H468.622V0.799999H470.422ZM491.285 15V0.799999H497.205C497.832 0.799999 498.405 0.933332 498.925 1.2C499.445 1.45333 499.898 1.8 500.285 2.24C500.672 2.66667 500.972 3.15333 501.185 3.7C501.398 4.23333 501.505 4.78 501.505 5.34C501.505 6.11333 501.332 6.85333 500.985 7.56C500.638 8.25333 500.152 8.82 499.525 9.26C498.898 9.68667 498.165 9.9 497.325 9.9H493.085V15H491.285ZM493.085 8.3H497.225C497.718 8.3 498.145 8.16667 498.505 7.9C498.878 7.63333 499.165 7.27333 499.365 6.82C499.578 6.36667 499.685 5.87333 499.685 5.34C499.685 4.78 499.565 4.28 499.325 3.84C499.085 3.38667 498.772 3.03333 498.385 2.78C497.998 2.52667 497.572 2.4 497.105 2.4H493.085V8.3ZM509.946 15V0.799999H516.026C516.653 0.799999 517.226 0.933332 517.746 1.2C518.266 1.45333 518.719 1.8 519.106 2.24C519.493 2.66667 519.793 3.15333 520.006 3.7C520.219 4.23333 520.326 4.78 520.326 5.34C520.326 5.99333 520.199 6.61333 519.946 7.2C519.706 7.78667 519.359 8.28667 518.906 8.7C518.466 9.11333 517.946 9.4 517.346 9.56L520.786 15H518.746L515.506 9.9H511.746V15H509.946ZM511.746 8.3H516.046C516.539 8.3 516.966 8.16667 517.326 7.9C517.699 7.62 517.986 7.25333 518.186 6.8C518.399 6.34667 518.506 5.86 518.506 5.34C518.506 4.80667 518.386 4.32 518.146 3.88C517.906 3.42667 517.593 3.06667 517.206 2.8C516.819 2.53333 516.393 2.4 515.926 2.4H511.746V8.3ZM535.051 15.1C534.051 15.1 533.144 14.9 532.331 14.5C531.517 14.1 530.811 13.56 530.211 12.88C529.624 12.1867 529.171 11.4133 528.851 10.56C528.531 9.69333 528.371 8.80667 528.371 7.9C528.371 6.95333 528.537 6.05333 528.871 5.2C529.217 4.33333 529.691 3.56667 530.291 2.9C530.904 2.22 531.617 1.68667 532.431 1.3C533.244 0.899999 534.131 0.699999 535.091 0.699999C536.091 0.699999 536.997 0.906666 537.811 1.32C538.624 1.73333 539.324 2.28667 539.911 2.98C540.497 3.67333 540.951 4.44667 541.271 5.3C541.591 6.15333 541.751 7.02667 541.751 7.92C541.751 8.86667 541.584 9.77333 541.251 10.64C540.917 11.4933 540.444 12.26 539.831 12.94C539.231 13.6067 538.524 14.1333 537.711 14.52C536.897 14.9067 536.011 15.1 535.051 15.1ZM530.191 7.9C530.191 8.62 530.304 9.32 530.531 10C530.771 10.6667 531.104 11.26 531.531 11.78C531.957 12.3 532.471 12.7133 533.071 13.02C533.671 13.3267 534.337 13.48 535.071 13.48C535.831 13.48 536.511 13.32 537.111 13C537.711 12.68 538.217 12.2533 538.631 11.72C539.057 11.1867 539.377 10.5867 539.591 9.92C539.817 9.25333 539.931 8.58 539.931 7.9C539.931 7.18 539.811 6.48667 539.571 5.82C539.344 5.15333 539.011 4.56 538.571 4.04C538.144 3.50667 537.631 3.09333 537.031 2.8C536.444 2.49333 535.791 2.34 535.071 2.34C534.311 2.34 533.631 2.5 533.031 2.82C532.431 3.12667 531.917 3.54667 531.491 4.08C531.077 4.61333 530.757 5.21333 530.531 5.88C530.304 6.53333 530.191 7.20667 530.191 7.9ZM550.452 15V0.799999H555.372C556.892 0.799999 558.158 1.12 559.172 1.76C560.198 2.38667 560.965 3.24 561.472 4.32C561.978 5.38667 562.232 6.57333 562.232 7.88C562.232 9.32 561.952 10.5733 561.392 11.64C560.832 12.7067 560.038 13.5333 559.012 14.12C557.985 14.7067 556.772 15 555.372 15H550.452ZM560.412 7.88C560.412 6.81333 560.212 5.86667 559.812 5.04C559.425 4.21333 558.858 3.56667 558.112 3.1C557.365 2.63333 556.452 2.4 555.372 2.4H552.252V13.4H555.372C556.465 13.4 557.385 13.16 558.132 12.68C558.878 12.1867 559.445 11.5267 559.832 10.7C560.218 9.86 560.412 8.92 560.412 7.88ZM576.828 15.1C575.695 15.1 574.741 14.9067 573.968 14.52C573.195 14.12 572.575 13.5867 572.108 12.92C571.641 12.24 571.301 11.4733 571.088 10.62C570.875 9.76667 570.768 8.88667 570.768 7.98V0.799999H572.568V7.98C572.568 8.67333 572.635 9.35333 572.768 10.02C572.915 10.6733 573.148 11.26 573.468 11.78C573.788 12.3 574.221 12.7133 574.768 13.02C575.315 13.3267 575.995 13.48 576.808 13.48C577.635 13.48 578.321 13.3267 578.868 13.02C579.415 12.7 579.848 12.28 580.168 11.76C580.488 11.2267 580.715 10.6333 580.848 9.98C580.995 9.32667 581.068 8.66 581.068 7.98V0.799999H582.868V7.98C582.868 8.94 582.755 9.85333 582.528 10.72C582.315 11.5733 581.968 12.3267 581.488 12.98C581.008 13.6333 580.381 14.1533 579.608 14.54C578.848 14.9133 577.921 15.1 576.828 15.1ZM591.346 7.8C591.346 6.93333 591.492 6.08667 591.786 5.26C592.092 4.42 592.532 3.66 593.106 2.98C593.692 2.28667 594.406 1.74 595.246 1.34C596.086 0.926666 597.039 0.719999 598.106 0.719999C599.372 0.719999 600.459 1.01333 601.366 1.6C602.272 2.17333 602.946 2.91333 603.386 3.82L601.966 4.74C601.686 4.14 601.326 3.66667 600.886 3.32C600.459 2.96 599.992 2.70667 599.486 2.56C598.992 2.41333 598.506 2.34 598.026 2.34C597.239 2.34 596.539 2.5 595.926 2.82C595.326 3.14 594.819 3.56667 594.406 4.1C593.992 4.63333 593.679 5.23333 593.466 5.9C593.266 6.55333 593.166 7.21333 593.166 7.88C593.166 8.61333 593.286 9.32 593.526 10C593.779 10.68 594.126 11.28 594.566 11.8C595.006 12.32 595.526 12.7333 596.126 13.04C596.726 13.3467 597.379 13.5 598.086 13.5C598.579 13.5 599.086 13.4133 599.606 13.24C600.126 13.0667 600.612 12.8 601.066 12.44C601.519 12.0667 601.879 11.5867 602.146 11L603.646 11.82C603.352 12.5267 602.899 13.1267 602.286 13.62C601.672 14.1133 600.986 14.4867 600.226 14.74C599.479 14.9933 598.739 15.12 598.006 15.12C597.032 15.12 596.139 14.9133 595.326 14.5C594.512 14.0733 593.806 13.5133 593.206 12.82C592.619 12.1133 592.159 11.3267 591.826 10.46C591.506 9.58 591.346 8.69333 591.346 7.8ZM621.738 13.4V15H612.098V0.799999H621.558V2.4H613.898V7H620.558V8.5H613.898V13.4H621.738ZM630.408 15V0.799999H636.488C637.114 0.799999 637.688 0.933332 638.208 1.2C638.728 1.45333 639.181 1.8 639.568 2.24C639.954 2.66667 640.254 3.15333 640.468 3.7C640.681 4.23333 640.788 4.78 640.788 5.34C640.788 5.99333 640.661 6.61333 640.408 7.2C640.168 7.78667 639.821 8.28667 639.368 8.7C638.928 9.11333 638.408 9.4 637.808 9.56L641.248 15H639.208L635.968 9.9H632.208V15H630.408ZM632.208 8.3H636.508C637.001 8.3 637.428 8.16667 637.788 7.9C638.161 7.62 638.448 7.25333 638.648 6.8C638.861 6.34667 638.968 5.86 638.968 5.34C638.968 4.80667 638.848 4.32 638.608 3.88C638.368 3.42667 638.054 3.06667 637.668 2.8C637.281 2.53333 636.854 2.4 636.388 2.4H632.208V8.3ZM666.771 15.1C665.771 15.1 664.864 14.9 664.051 14.5C663.238 14.1 662.531 13.56 661.931 12.88C661.344 12.1867 660.891 11.4133 660.571 10.56C660.251 9.69333 660.091 8.80667 660.091 7.9C660.091 6.95333 660.258 6.05333 660.591 5.2C660.938 4.33333 661.411 3.56667 662.011 2.9C662.624 2.22 663.338 1.68667 664.151 1.3C664.964 0.899999 665.851 0.699999 666.811 0.699999C667.811 0.699999 668.718 0.906666 669.531 1.32C670.344 1.73333 671.044 2.28667 671.631 2.98C672.218 3.67333 672.671 4.44667 672.991 5.3C673.311 6.15333 673.471 7.02667 673.471 7.92C673.471 8.86667 673.304 9.77333 672.971 10.64C672.638 11.4933 672.164 12.26 671.551 12.94C670.951 13.6067 670.244 14.1333 669.431 14.52C668.618 14.9067 667.731 15.1 666.771 15.1ZM661.911 7.9C661.911 8.62 662.024 9.32 662.251 10C662.491 10.6667 662.824 11.26 663.251 11.78C663.678 12.3 664.191 12.7133 664.791 13.02C665.391 13.3267 666.058 13.48 666.791 13.48C667.551 13.48 668.231 13.32 668.831 13C669.431 12.68 669.938 12.2533 670.351 11.72C670.778 11.1867 671.098 10.5867 671.311 9.92C671.538 9.25333 671.651 8.58 671.651 7.9C671.651 7.18 671.531 6.48667 671.291 5.82C671.064 5.15333 670.731 4.56 670.291 4.04C669.864 3.50667 669.351 3.09333 668.751 2.8C668.164 2.49333 667.511 2.34 666.791 2.34C666.031 2.34 665.351 2.5 664.751 2.82C664.151 3.12667 663.638 3.54667 663.211 4.08C662.798 4.61333 662.478 5.21333 662.251 5.88C662.024 6.53333 661.911 7.20667 661.911 7.9ZM682.172 15V0.799999H691.552V2.4H683.972V7.14H690.352V8.64H683.972V15H682.172ZM57.3045 52.1C56.3045 52.1 55.3979 51.9 54.5845 51.5C53.7712 51.1 53.0645 50.56 52.4645 49.88C51.8779 49.1867 51.4245 48.4133 51.1045 47.56C50.7845 46.6933 50.6245 45.8067 50.6245 44.9C50.6245 43.9533 50.7912 43.0533 51.1245 42.2C51.4712 41.3333 51.9445 40.5667 52.5445 39.9C53.1579 39.22 53.8712 38.6867 54.6845 38.3C55.4979 37.9 56.3845 37.7 57.3445 37.7C58.3445 37.7 59.2512 37.9067 60.0645 38.32C60.8779 38.7333 61.5779 39.2867 62.1645 39.98C62.7512 40.6733 63.2045 41.4467 63.5245 42.3C63.8445 43.1533 64.0045 44.0267 64.0045 44.92C64.0045 45.8667 63.8379 46.7733 63.5045 47.64C63.1712 48.4933 62.6979 49.26 62.0845 49.94C61.4845 50.6067 60.7779 51.1333 59.9645 51.52C59.1512 51.9067 58.2645 52.1 57.3045 52.1ZM52.4445 44.9C52.4445 45.62 52.5579 46.32 52.7845 47C53.0245 47.6667 53.3579 48.26 53.7845 48.78C54.2112 49.3 54.7245 49.7133 55.3245 50.02C55.9245 50.3267 56.5912 50.48 57.3245 50.48C58.0845 50.48 58.7645 50.32 59.3645 50C59.9645 49.68 60.4712 49.2533 60.8845 48.72C61.3112 48.1867 61.6312 47.5867 61.8445 46.92C62.0712 46.2533 62.1845 45.58 62.1845 44.9C62.1845 44.18 62.0645 43.4867 61.8245 42.82C61.5979 42.1533 61.2645 41.56 60.8245 41.04C60.3979 40.5067 59.8845 40.0933 59.2845 39.8C58.6979 39.4933 58.0445 39.34 57.3245 39.34C56.5645 39.34 55.8845 39.5 55.2845 39.82C54.6845 40.1267 54.1712 40.5467 53.7445 41.08C53.3312 41.6133 53.0112 42.2133 52.7845 42.88C52.5579 43.5333 52.4445 44.2067 52.4445 44.9ZM72.7055 52V37.8H78.7855C79.4121 37.8 79.9855 37.9333 80.5055 38.2C81.0255 38.4533 81.4788 38.8 81.8655 39.24C82.2521 39.6667 82.5521 40.1533 82.7655 40.7C82.9788 41.2333 83.0855 41.78 83.0855 42.34C83.0855 42.9933 82.9588 43.6133 82.7055 44.2C82.4655 44.7867 82.1188 45.2867 81.6655 45.7C81.2255 46.1133 80.7055 46.4 80.1055 46.56L83.5455 52H81.5055L78.2655 46.9H74.5055V52H72.7055ZM74.5055 45.3H78.8055C79.2988 45.3 79.7255 45.1667 80.0855 44.9C80.4588 44.62 80.7455 44.2533 80.9455 43.8C81.1588 43.3467 81.2655 42.86 81.2655 42.34C81.2655 41.8067 81.1455 41.32 80.9055 40.88C80.6655 40.4267 80.3521 40.0667 79.9655 39.8C79.5788 39.5333 79.1521 39.4 78.6855 39.4H74.5055V45.3ZM91.13 44.8C91.13 43.9333 91.2767 43.0867 91.57 42.26C91.8767 41.42 92.3167 40.66 92.89 39.98C93.4767 39.2867 94.19 38.74 95.03 38.34C95.87 37.9267 96.8233 37.72 97.89 37.72C99.1567 37.72 100.243 38.0133 101.15 38.6C102.057 39.1733 102.73 39.9133 103.17 40.82L101.75 41.74C101.47 41.14 101.11 40.6667 100.67 40.32C100.243 39.96 99.7767 39.7067 99.27 39.56C98.7767 39.4133 98.29 39.34 97.81 39.34C97.0233 39.34 96.3233 39.5 95.71 39.82C95.11 40.14 94.6033 40.5667 94.19 41.1C93.7767 41.6333 93.4633 42.2333 93.25 42.9C93.05 43.5533 92.95 44.2133 92.95 44.88C92.95 45.6133 93.07 46.32 93.31 47C93.5633 47.68 93.91 48.28 94.35 48.8C94.79 49.32 95.31 49.7333 95.91 50.04C96.51 50.3467 97.1633 50.5 97.87 50.5C98.3633 50.5 98.87 50.4133 99.39 50.24C99.91 50.0667 100.397 49.8 100.85 49.44C101.303 49.0667 101.663 48.5867 101.93 48L103.43 48.82C103.137 49.5267 102.683 50.1267 102.07 50.62C101.457 51.1133 100.77 51.4867 100.01 51.74C99.2633 51.9933 98.5233 52.12 97.79 52.12C96.8167 52.12 95.9233 51.9133 95.11 51.5C94.2967 51.0733 93.59 50.5133 92.99 49.82C92.4033 49.1133 91.9433 48.3267 91.61 47.46C91.29 46.58 91.13 45.6933 91.13 44.8ZM123.303 37.8V52H121.503V45.54H113.683V52H111.883V37.8H113.683V43.94H121.503V37.8H123.303ZM142.547 50.4V52H132.907V37.8H142.367V39.4H134.707V44H141.367V45.5H134.707V50.4H142.547ZM159.556 40.78C159.396 40.5933 159.183 40.4133 158.916 40.24C158.65 40.0667 158.35 39.9133 158.016 39.78C157.683 39.6333 157.316 39.52 156.916 39.44C156.53 39.3467 156.123 39.3 155.696 39.3C154.603 39.3 153.796 39.5067 153.276 39.92C152.756 40.3333 152.496 40.9 152.496 41.62C152.496 42.1267 152.63 42.5267 152.896 42.82C153.163 43.1133 153.57 43.3533 154.116 43.54C154.676 43.7267 155.383 43.92 156.236 44.12C157.223 44.3333 158.076 44.5933 158.796 44.9C159.516 45.2067 160.07 45.62 160.456 46.14C160.843 46.6467 161.036 47.3267 161.036 48.18C161.036 48.86 160.903 49.4533 160.636 49.96C160.383 50.4533 160.023 50.8667 159.556 51.2C159.09 51.52 158.543 51.76 157.916 51.92C157.29 52.0667 156.61 52.14 155.876 52.14C155.156 52.14 154.45 52.0667 153.756 51.92C153.076 51.76 152.43 51.5333 151.816 51.24C151.203 50.9467 150.63 50.58 150.096 50.14L150.956 48.62C151.17 48.8467 151.443 49.0733 151.776 49.3C152.123 49.5133 152.51 49.7133 152.936 49.9C153.376 50.0867 153.85 50.24 154.356 50.36C154.863 50.4667 155.383 50.52 155.916 50.52C156.93 50.52 157.716 50.34 158.276 49.98C158.836 49.6067 159.116 49.0667 159.116 48.36C159.116 47.8267 158.956 47.4 158.636 47.08C158.33 46.76 157.87 46.4933 157.256 46.28C156.643 46.0667 155.896 45.8533 155.016 45.64C154.056 45.4 153.25 45.14 152.596 44.86C151.943 44.5667 151.45 44.1867 151.116 43.72C150.796 43.2533 150.636 42.6467 150.636 41.9C150.636 40.9933 150.856 40.2267 151.296 39.6C151.736 38.9733 152.343 38.5 153.116 38.18C153.89 37.86 154.763 37.7 155.736 37.7C156.376 37.7 156.97 37.7667 157.516 37.9C158.076 38.0333 158.596 38.22 159.076 38.46C159.556 38.7 159.996 38.9867 160.396 39.32L159.556 40.78ZM179.844 39.4H174.944V52H173.144V39.4H168.244V37.8H179.844V39.4ZM188.089 52V37.8H194.169C194.796 37.8 195.369 37.9333 195.889 38.2C196.409 38.4533 196.862 38.8 197.249 39.24C197.636 39.6667 197.936 40.1533 198.149 40.7C198.362 41.2333 198.469 41.78 198.469 42.34C198.469 42.9933 198.342 43.6133 198.089 44.2C197.849 44.7867 197.502 45.2867 197.049 45.7C196.609 46.1133 196.089 46.4 195.489 46.56L198.929 52H196.889L193.649 46.9H189.889V52H188.089ZM189.889 45.3H194.189C194.682 45.3 195.109 45.1667 195.469 44.9C195.842 44.62 196.129 44.2533 196.329 43.8C196.542 43.3467 196.649 42.86 196.649 42.34C196.649 41.8067 196.529 41.32 196.289 40.88C196.049 40.4267 195.736 40.0667 195.349 39.8C194.962 39.5333 194.536 39.4 194.069 39.4H189.889V45.3ZM211.754 37.8H213.274L219.074 52H217.154L215.474 47.84H209.514L207.854 52H205.934L211.754 37.8ZM215.074 46.44L212.514 39.88L209.874 46.44H215.074ZM227.169 52V37.8H228.969V50.4H236.889V52H227.169ZM267.122 37.8V52H265.322V45.54H257.502V52H255.702V37.8H257.502V43.94H265.322V37.8H267.122ZM282.486 52.1C281.486 52.1 280.579 51.9 279.766 51.5C278.952 51.1 278.246 50.56 277.646 49.88C277.059 49.1867 276.606 48.4133 276.286 47.56C275.966 46.6933 275.806 45.8067 275.806 44.9C275.806 43.9533 275.972 43.0533 276.306 42.2C276.652 41.3333 277.126 40.5667 277.726 39.9C278.339 39.22 279.052 38.6867 279.866 38.3C280.679 37.9 281.566 37.7 282.526 37.7C283.526 37.7 284.432 37.9067 285.246 38.32C286.059 38.7333 286.759 39.2867 287.346 39.98C287.932 40.6733 288.386 41.4467 288.706 42.3C289.026 43.1533 289.186 44.0267 289.186 44.92C289.186 45.8667 289.019 46.7733 288.686 47.64C288.352 48.4933 287.879 49.26 287.266 49.94C286.666 50.6067 285.959 51.1333 285.146 51.52C284.332 51.9067 283.446 52.1 282.486 52.1ZM277.626 44.9C277.626 45.62 277.739 46.32 277.966 47C278.206 47.6667 278.539 48.26 278.966 48.78C279.392 49.3 279.906 49.7133 280.506 50.02C281.106 50.3267 281.772 50.48 282.506 50.48C283.266 50.48 283.946 50.32 284.546 50C285.146 49.68 285.652 49.2533 286.066 48.72C286.492 48.1867 286.812 47.5867 287.026 46.92C287.252 46.2533 287.366 45.58 287.366 44.9C287.366 44.18 287.246 43.4867 287.006 42.82C286.779 42.1533 286.446 41.56 286.006 41.04C285.579 40.5067 285.066 40.0933 284.466 39.8C283.879 39.4933 283.226 39.34 282.506 39.34C281.746 39.34 281.066 39.5 280.466 39.82C279.866 40.1267 279.352 40.5467 278.926 41.08C278.512 41.6133 278.192 42.2133 277.966 42.88C277.739 43.5333 277.626 44.2067 277.626 44.9ZM303.747 52.1C302.613 52.1 301.66 51.9067 300.887 51.52C300.113 51.12 299.493 50.5867 299.027 49.92C298.56 49.24 298.22 48.4733 298.007 47.62C297.793 46.7667 297.687 45.8867 297.687 44.98V37.8H299.487V44.98C299.487 45.6733 299.553 46.3533 299.687 47.02C299.833 47.6733 300.067 48.26 300.387 48.78C300.707 49.3 301.14 49.7133 301.687 50.02C302.233 50.3267 302.913 50.48 303.727 50.48C304.553 50.48 305.24 50.3267 305.787 50.02C306.333 49.7 306.767 49.28 307.087 48.76C307.407 48.2267 307.633 47.6333 307.767 46.98C307.913 46.3267 307.987 45.66 307.987 44.98V37.8H309.787V44.98C309.787 45.94 309.673 46.8533 309.447 47.72C309.233 48.5733 308.887 49.3267 308.407 49.98C307.927 50.6333 307.3 51.1533 306.527 51.54C305.767 51.9133 304.84 52.1 303.747 52.1ZM327.524 40.78C327.364 40.5933 327.151 40.4133 326.884 40.24C326.618 40.0667 326.318 39.9133 325.984 39.78C325.651 39.6333 325.284 39.52 324.884 39.44C324.498 39.3467 324.091 39.3 323.664 39.3C322.571 39.3 321.764 39.5067 321.244 39.92C320.724 40.3333 320.464 40.9 320.464 41.62C320.464 42.1267 320.598 42.5267 320.864 42.82C321.131 43.1133 321.538 43.3533 322.084 43.54C322.644 43.7267 323.351 43.92 324.204 44.12C325.191 44.3333 326.044 44.5933 326.764 44.9C327.484 45.2067 328.038 45.62 328.424 46.14C328.811 46.6467 329.004 47.3267 329.004 48.18C329.004 48.86 328.871 49.4533 328.604 49.96C328.351 50.4533 327.991 50.8667 327.524 51.2C327.058 51.52 326.511 51.76 325.884 51.92C325.258 52.0667 324.578 52.14 323.844 52.14C323.124 52.14 322.418 52.0667 321.724 51.92C321.044 51.76 320.398 51.5333 319.784 51.24C319.171 50.9467 318.598 50.58 318.064 50.14L318.924 48.62C319.138 48.8467 319.411 49.0733 319.744 49.3C320.091 49.5133 320.478 49.7133 320.904 49.9C321.344 50.0867 321.818 50.24 322.324 50.36C322.831 50.4667 323.351 50.52 323.884 50.52C324.898 50.52 325.684 50.34 326.244 49.98C326.804 49.6067 327.084 49.0667 327.084 48.36C327.084 47.8267 326.924 47.4 326.604 47.08C326.298 46.76 325.838 46.4933 325.224 46.28C324.611 46.0667 323.864 45.8533 322.984 45.64C322.024 45.4 321.218 45.14 320.564 44.86C319.911 44.5667 319.418 44.1867 319.084 43.72C318.764 43.2533 318.604 42.6467 318.604 41.9C318.604 40.9933 318.824 40.2267 319.264 39.6C319.704 38.9733 320.311 38.5 321.084 38.18C321.858 37.86 322.731 37.7 323.704 37.7C324.344 37.7 324.938 37.7667 325.484 37.9C326.044 38.0333 326.564 38.22 327.044 38.46C327.524 38.7 327.964 38.9867 328.364 39.32L327.524 40.78ZM347.212 50.4V52H337.572V37.8H347.032V39.4H339.372V44H346.032V45.5H339.372V50.4H347.212ZM379.42 52V41.16L374.74 49.5H373.64L368.94 41.16V52H367.14V37.8H369.04L374.18 47.02L379.34 37.8H381.22V52H379.42ZM396.68 52.1C395.547 52.1 394.594 51.9067 393.82 51.52C393.047 51.12 392.427 50.5867 391.96 49.92C391.494 49.24 391.154 48.4733 390.94 47.62C390.727 46.7667 390.62 45.8867 390.62 44.98V37.8H392.42V44.98C392.42 45.6733 392.487 46.3533 392.62 47.02C392.767 47.6733 393 48.26 393.32 48.78C393.64 49.3 394.074 49.7133 394.62 50.02C395.167 50.3267 395.847 50.48 396.66 50.48C397.487 50.48 398.174 50.3267 398.72 50.02C399.267 49.7 399.7 49.28 400.02 48.76C400.34 48.2267 400.567 47.6333 400.7 46.98C400.847 46.3267 400.92 45.66 400.92 44.98V37.8H402.72V44.98C402.72 45.94 402.607 46.8533 402.38 47.72C402.167 48.5733 401.82 49.3267 401.34 49.98C400.86 50.6333 400.234 51.1533 399.46 51.54C398.7 51.9133 397.774 52.1 396.68 52.1ZM420.458 40.78C420.298 40.5933 420.085 40.4133 419.818 40.24C419.551 40.0667 419.251 39.9133 418.918 39.78C418.585 39.6333 418.218 39.52 417.818 39.44C417.431 39.3467 417.025 39.3 416.598 39.3C415.505 39.3 414.698 39.5067 414.178 39.92C413.658 40.3333 413.398 40.9 413.398 41.62C413.398 42.1267 413.531 42.5267 413.798 42.82C414.065 43.1133 414.471 43.3533 415.018 43.54C415.578 43.7267 416.285 43.92 417.138 44.12C418.125 44.3333 418.978 44.5933 419.698 44.9C420.418 45.2067 420.971 45.62 421.358 46.14C421.745 46.6467 421.938 47.3267 421.938 48.18C421.938 48.86 421.805 49.4533 421.538 49.96C421.285 50.4533 420.925 50.8667 420.458 51.2C419.991 51.52 419.445 51.76 418.818 51.92C418.191 52.0667 417.511 52.14 416.778 52.14C416.058 52.14 415.351 52.0667 414.658 51.92C413.978 51.76 413.331 51.5333 412.718 51.24C412.105 50.9467 411.531 50.58 410.998 50.14L411.858 48.62C412.071 48.8467 412.345 49.0733 412.678 49.3C413.025 49.5133 413.411 49.7133 413.838 49.9C414.278 50.0867 414.751 50.24 415.258 50.36C415.765 50.4667 416.285 50.52 416.818 50.52C417.831 50.52 418.618 50.34 419.178 49.98C419.738 49.6067 420.018 49.0667 420.018 48.36C420.018 47.8267 419.858 47.4 419.538 47.08C419.231 46.76 418.771 46.4933 418.158 46.28C417.545 46.0667 416.798 45.8533 415.918 45.64C414.958 45.4 414.151 45.14 413.498 44.86C412.845 44.5667 412.351 44.1867 412.018 43.72C411.698 43.2533 411.538 42.6467 411.538 41.9C411.538 40.9933 411.758 40.2267 412.198 39.6C412.638 38.9733 413.245 38.5 414.018 38.18C414.791 37.86 415.665 37.7 416.638 37.7C417.278 37.7 417.871 37.7667 418.418 37.9C418.978 38.0333 419.498 38.22 419.978 38.46C420.458 38.7 420.898 38.9867 421.298 39.32L420.458 40.78ZM430.505 52V37.8H432.305V52H430.505ZM440.981 44.8C440.981 43.9333 441.127 43.0867 441.421 42.26C441.727 41.42 442.167 40.66 442.741 39.98C443.327 39.2867 444.041 38.74 444.881 38.34C445.721 37.9267 446.674 37.72 447.741 37.72C449.007 37.72 450.094 38.0133 451.001 38.6C451.907 39.1733 452.581 39.9133 453.021 40.82L451.601 41.74C451.321 41.14 450.961 40.6667 450.521 40.32C450.094 39.96 449.627 39.7067 449.121 39.56C448.627 39.4133 448.141 39.34 447.661 39.34C446.874 39.34 446.174 39.5 445.561 39.82C444.961 40.14 444.454 40.5667 444.041 41.1C443.627 41.6333 443.314 42.2333 443.101 42.9C442.901 43.5533 442.801 44.2133 442.801 44.88C442.801 45.6133 442.921 46.32 443.161 47C443.414 47.68 443.761 48.28 444.201 48.8C444.641 49.32 445.161 49.7333 445.761 50.04C446.361 50.3467 447.014 50.5 447.721 50.5C448.214 50.5 448.721 50.4133 449.241 50.24C449.761 50.0667 450.247 49.8 450.701 49.44C451.154 49.0667 451.514 48.5867 451.781 48L453.281 48.82C452.987 49.5267 452.534 50.1267 451.921 50.62C451.307 51.1133 450.621 51.4867 449.861 51.74C449.114 51.9933 448.374 52.12 447.641 52.12C446.667 52.12 445.774 51.9133 444.961 51.5C444.147 51.0733 443.441 50.5133 442.841 49.82C442.254 49.1133 441.794 48.3267 441.461 47.46C441.141 46.58 440.981 45.6933 440.981 44.8ZM461.314 52V49.76H462.794V52H461.314ZM494.655 37.8V52H492.855V45.54H485.035V52H483.235V37.8H485.035V43.94H492.855V37.8H494.655ZM504.259 52V37.8H506.059V52H504.259ZM523.995 40.78C523.835 40.5933 523.621 40.4133 523.355 40.24C523.088 40.0667 522.788 39.9133 522.455 39.78C522.121 39.6333 521.755 39.52 521.355 39.44C520.968 39.3467 520.561 39.3 520.135 39.3C519.041 39.3 518.235 39.5067 517.715 39.92C517.195 40.3333 516.935 40.9 516.935 41.62C516.935 42.1267 517.068 42.5267 517.335 42.82C517.601 43.1133 518.008 43.3533 518.555 43.54C519.115 43.7267 519.821 43.92 520.675 44.12C521.661 44.3333 522.515 44.5933 523.235 44.9C523.955 45.2067 524.508 45.62 524.895 46.14C525.281 46.6467 525.475 47.3267 525.475 48.18C525.475 48.86 525.341 49.4533 525.075 49.96C524.821 50.4533 524.461 50.8667 523.995 51.2C523.528 51.52 522.981 51.76 522.355 51.92C521.728 52.0667 521.048 52.14 520.315 52.14C519.595 52.14 518.888 52.0667 518.195 51.92C517.515 51.76 516.868 51.5333 516.255 51.24C515.641 50.9467 515.068 50.58 514.535 50.14L515.395 48.62C515.608 48.8467 515.881 49.0733 516.215 49.3C516.561 49.5133 516.948 49.7133 517.375 49.9C517.815 50.0867 518.288 50.24 518.795 50.36C519.301 50.4667 519.821 50.52 520.355 50.52C521.368 50.52 522.155 50.34 522.715 49.98C523.275 49.6067 523.555 49.0667 523.555 48.36C523.555 47.8267 523.395 47.4 523.075 47.08C522.768 46.76 522.308 46.4933 521.695 46.28C521.081 46.0667 520.335 45.8533 519.455 45.64C518.495 45.4 517.688 45.14 517.035 44.86C516.381 44.5667 515.888 44.1867 515.555 43.72C515.235 43.2533 515.075 42.6467 515.075 41.9C515.075 40.9933 515.295 40.2267 515.735 39.6C516.175 38.9733 516.781 38.5 517.555 38.18C518.328 37.86 519.201 37.7 520.175 37.7C520.815 37.7 521.408 37.7667 521.955 37.9C522.515 38.0333 523.035 38.22 523.515 38.46C523.995 38.7 524.435 38.9867 524.835 39.32L523.995 40.78ZM553.641 40.78C553.481 40.5933 553.267 40.4133 553.001 40.24C552.734 40.0667 552.434 39.9133 552.101 39.78C551.767 39.6333 551.401 39.52 551.001 39.44C550.614 39.3467 550.207 39.3 549.781 39.3C548.687 39.3 547.881 39.5067 547.361 39.92C546.841 40.3333 546.581 40.9 546.581 41.62C546.581 42.1267 546.714 42.5267 546.981 42.82C547.247 43.1133 547.654 43.3533 548.201 43.54C548.761 43.7267 549.467 43.92 550.321 44.12C551.307 44.3333 552.161 44.5933 552.881 44.9C553.601 45.2067 554.154 45.62 554.541 46.14C554.927 46.6467 555.121 47.3267 555.121 48.18C555.121 48.86 554.987 49.4533 554.721 49.96C554.467 50.4533 554.107 50.8667 553.641 51.2C553.174 51.52 552.627 51.76 552.001 51.92C551.374 52.0667 550.694 52.14 549.961 52.14C549.241 52.14 548.534 52.0667 547.841 51.92C547.161 51.76 546.514 51.5333 545.901 51.24C545.287 50.9467 544.714 50.58 544.181 50.14L545.041 48.62C545.254 48.8467 545.527 49.0733 545.861 49.3C546.207 49.5133 546.594 49.7133 547.021 49.9C547.461 50.0867 547.934 50.24 548.441 50.36C548.947 50.4667 549.467 50.52 550.001 50.52C551.014 50.52 551.801 50.34 552.361 49.98C552.921 49.6067 553.201 49.0667 553.201 48.36C553.201 47.8267 553.041 47.4 552.721 47.08C552.414 46.76 551.954 46.4933 551.341 46.28C550.727 46.0667 549.981 45.8533 549.101 45.64C548.141 45.4 547.334 45.14 546.681 44.86C546.027 44.5667 545.534 44.1867 545.201 43.72C544.881 43.2533 544.721 42.6467 544.721 41.9C544.721 40.9933 544.941 40.2267 545.381 39.6C545.821 38.9733 546.427 38.5 547.201 38.18C547.974 37.86 548.847 37.7 549.821 37.7C550.461 37.7 551.054 37.7667 551.601 37.9C552.161 38.0333 552.681 38.22 553.161 38.46C553.641 38.7 554.081 38.9867 554.481 39.32L553.641 40.78ZM573.928 39.4H569.028V52H567.228V39.4H562.328V37.8H573.928V39.4ZM582.713 37.8L587.013 45.2L591.353 37.8H593.313L587.913 46.82V52H586.113V46.78L580.733 37.8H582.713ZM601.479 52V37.8H603.279V50.4H611.199V52H601.479ZM628.999 50.4V52H619.359V37.8H628.819V39.4H621.159V44H627.819V45.5H621.159V50.4H628.999ZM646.008 40.78C645.848 40.5933 645.635 40.4133 645.368 40.24C645.101 40.0667 644.801 39.9133 644.468 39.78C644.135 39.6333 643.768 39.52 643.368 39.44C642.981 39.3467 642.575 39.3 642.148 39.3C641.055 39.3 640.248 39.5067 639.728 39.92C639.208 40.3333 638.948 40.9 638.948 41.62C638.948 42.1267 639.081 42.5267 639.348 42.82C639.615 43.1133 640.021 43.3533 640.568 43.54C641.128 43.7267 641.835 43.92 642.688 44.12C643.675 44.3333 644.528 44.5933 645.248 44.9C645.968 45.2067 646.521 45.62 646.908 46.14C647.295 46.6467 647.488 47.3267 647.488 48.18C647.488 48.86 647.355 49.4533 647.088 49.96C646.835 50.4533 646.475 50.8667 646.008 51.2C645.541 51.52 644.995 51.76 644.368 51.92C643.741 52.0667 643.061 52.14 642.328 52.14C641.608 52.14 640.901 52.0667 640.208 51.92C639.528 51.76 638.881 51.5333 638.268 51.24C637.655 50.9467 637.081 50.58 636.548 50.14L637.408 48.62C637.621 48.8467 637.895 49.0733 638.228 49.3C638.575 49.5133 638.961 49.7133 639.388 49.9C639.828 50.0867 640.301 50.24 640.808 50.36C641.315 50.4667 641.835 50.52 642.368 50.52C643.381 50.52 644.168 50.34 644.728 49.98C645.288 49.6067 645.568 49.0667 645.568 48.36C645.568 47.8267 645.408 47.4 645.088 47.08C644.781 46.76 644.321 46.4933 643.708 46.28C643.095 46.0667 642.348 45.8533 641.468 45.64C640.508 45.4 639.701 45.14 639.048 44.86C638.395 44.5667 637.901 44.1867 637.568 43.72C637.248 43.2533 637.088 42.6467 637.088 41.9C637.088 40.9933 637.308 40.2267 637.748 39.6C638.188 38.9733 638.795 38.5 639.568 38.18C640.341 37.86 641.215 37.7 642.188 37.7C642.828 37.7 643.421 37.7667 643.968 37.9C644.528 38.0333 645.048 38.22 645.528 38.46C646.008 38.7 646.448 38.9867 646.848 39.32L646.008 40.78Z" fill="#767676"/>
</svg>
