<svg width="60" height="60" viewBox="0 0 60 60" fill="none" xmlns="http://www.w3.org/2000/svg">
<rect width="60" height="60" fill="white"/>
<g style="mix-blend-mode:hard-light">
<path d="M47.87 10.8637L48.8583 23.6568H47.7053C47.3758 19.4839 40.6773 11.5775 35.022 11.5775H34.3631V46.333C34.3631 49.7372 36.3946 50.2862 38.536 50.2862V51H21.4602V50.2862C23.6015 50.2862 25.6879 49.7372 25.6879 46.333V11.5775H24.48C18.4953 11.5775 12.9498 19.9781 12.3458 23.6568H11.1379L12.1262 10.8637H47.87Z" fill="black"/>
<path d="M47.87 10.8637L48.3685 10.8252L48.3328 10.3637H47.87V10.8637ZM48.8583 23.6568V24.1568H49.3984L49.3568 23.6183L48.8583 23.6568ZM47.7053 23.6568L47.2068 23.6962L47.2432 24.1568H47.7053V23.6568ZM34.3631 11.5775V11.0775H33.8631V11.5775H34.3631ZM38.536 50.2862H39.036V49.7862H38.536V50.2862ZM38.536 51V51.5H39.036V51H38.536ZM21.4602 51H20.9602V51.5H21.4602V51ZM21.4602 50.2862V49.7862H20.9602V50.2862H21.4602ZM25.6879 11.5775H26.1879V11.0775H25.6879V11.5775ZM12.3458 23.6568V24.1568H12.7704L12.8392 23.7378L12.3458 23.6568ZM11.1379 23.6568L10.6393 23.6183L10.5977 24.1568H11.1379V23.6568ZM12.1262 10.8637V10.3637H11.6633L11.6276 10.8252L12.1262 10.8637ZM47.3715 10.9022L48.3598 23.6953L49.3568 23.6183L48.3685 10.8252L47.3715 10.9022ZM48.8583 23.1568H47.7053V24.1568H48.8583V23.1568ZM48.2037 23.6174C48.1131 22.4694 47.5934 21.1183 46.8134 19.76C46.0283 18.393 44.9575 16.9806 43.7198 15.7042C41.2677 13.1757 38.0559 11.0775 35.022 11.0775V12.0775C37.6433 12.0775 40.6085 13.9325 43.0019 16.4004C44.1868 17.6223 45.2059 18.9689 45.9462 20.258C46.6915 21.5558 47.1327 22.7578 47.2068 23.6962L48.2037 23.6174ZM35.022 11.0775H34.3631V12.0775H35.022V11.0775ZM33.8631 11.5775V46.333H34.8631V11.5775H33.8631ZM33.8631 46.333C33.8631 48.1377 34.4072 49.3046 35.3529 49.9908C36.2633 50.6515 37.4443 50.7862 38.536 50.7862V49.7862C37.4863 49.7862 36.5809 49.6464 35.9402 49.1815C35.3347 48.7421 34.8631 47.9325 34.8631 46.333H33.8631ZM38.036 50.2862V51H39.036V50.2862H38.036ZM38.536 50.5H21.4602V51.5H38.536V50.5ZM21.9602 51V50.2862H20.9602V51H21.9602ZM21.4602 50.7862C22.5522 50.7862 23.7445 50.6513 24.6674 49.9933C25.6269 49.3091 26.1879 48.1425 26.1879 46.333H25.1879C25.1879 47.9277 24.7058 48.7377 24.0868 49.1791C23.431 49.6466 22.5095 49.7862 21.4602 49.7862V50.7862ZM26.1879 46.333V11.5775H25.1879V46.333H26.1879ZM25.6879 11.0775H24.48V12.0775H25.6879V11.0775ZM24.48 11.0775C21.2644 11.0775 18.2548 13.3182 16.0166 15.9109C13.7732 18.5097 12.1748 21.6122 11.8524 23.5758L12.8392 23.7378C13.1208 22.0227 14.5971 19.0856 16.7736 16.5644C18.9553 14.0371 21.7109 12.0775 24.48 12.0775V11.0775ZM12.3458 23.1568H11.1379V24.1568H12.3458V23.1568ZM11.6364 23.6953L12.6247 10.9022L11.6276 10.8252L10.6393 23.6183L11.6364 23.6953ZM12.1262 11.3637H47.87V10.3637H12.1262V11.3637Z" fill="black"/>
</g>
</svg>
