<svg width="154" height="23" viewBox="0 0 154 23" fill="none" xmlns="http://www.w3.org/2000/svg">
<path d="M4.32187 19V4.8H6.12187V19H4.32187ZM15.5172 8.12V19H13.7172V4.8H15.2372L23.9172 15.9V4.82H25.7172V19H24.0772L15.5172 8.12ZM41.6478 7.78C41.4878 7.59333 41.2745 7.41333 41.0078 7.24C40.7411 7.06667 40.4411 6.91333 40.1078 6.78C39.7745 6.63333 39.4078 6.52 39.0078 6.44C38.6211 6.34667 38.2145 6.3 37.7878 6.3C36.6945 6.3 35.8878 6.50667 35.3678 6.92C34.8478 7.33333 34.5878 7.9 34.5878 8.62C34.5878 9.12667 34.7211 9.52667 34.9878 9.82C35.2545 10.1133 35.6611 10.3533 36.2078 10.54C36.7678 10.7267 37.4745 10.92 38.3278 11.12C39.3145 11.3333 40.1678 11.5933 40.8878 11.9C41.6078 12.2067 42.1611 12.62 42.5478 13.14C42.9345 13.6467 43.1278 14.3267 43.1278 15.18C43.1278 15.86 42.9945 16.4533 42.7278 16.96C42.4745 17.4533 42.1145 17.8667 41.6478 18.2C41.1811 18.52 40.6345 18.76 40.0078 18.92C39.3811 19.0667 38.7011 19.14 37.9678 19.14C37.2478 19.14 36.5411 19.0667 35.8478 18.92C35.1678 18.76 34.5211 18.5333 33.9078 18.24C33.2945 17.9467 32.7211 17.58 32.1878 17.14L33.0478 15.62C33.2611 15.8467 33.5345 16.0733 33.8678 16.3C34.2145 16.5133 34.6011 16.7133 35.0278 16.9C35.4678 17.0867 35.9411 17.24 36.4478 17.36C36.9545 17.4667 37.4745 17.52 38.0078 17.52C39.0211 17.52 39.8078 17.34 40.3678 16.98C40.9278 16.6067 41.2078 16.0667 41.2078 15.36C41.2078 14.8267 41.0478 14.4 40.7278 14.08C40.4211 13.76 39.9611 13.4933 39.3478 13.28C38.7345 13.0667 37.9878 12.8533 37.1078 12.64C36.1478 12.4 35.3411 12.14 34.6878 11.86C34.0345 11.5667 33.5411 11.1867 33.2078 10.72C32.8878 10.2533 32.7278 9.64667 32.7278 8.9C32.7278 7.99333 32.9478 7.22667 33.3878 6.6C33.8278 5.97333 34.4345 5.5 35.2078 5.18C35.9811 4.86 36.8545 4.7 37.8278 4.7C38.4678 4.7 39.0611 4.76667 39.6078 4.9C40.1678 5.03333 40.6878 5.22 41.1678 5.46C41.6478 5.7 42.0878 5.98667 42.4878 6.32L41.6478 7.78ZM59.9353 6.4H55.0353V19H53.2353V6.4H48.3353V4.8H59.9353V6.4ZM69.1528 4.8H70.6728L76.4728 19H74.5528L72.8728 14.84H66.9128L65.2528 19H63.3328L69.1528 4.8ZM72.4728 13.44L69.9128 6.88L67.2728 13.44H72.4728ZM87.7406 19.1C86.8073 19.1 85.934 18.9 85.1206 18.5C84.3206 18.0867 83.6206 17.54 83.0206 16.86C82.4206 16.1667 81.954 15.3933 81.6206 14.54C81.2873 13.6733 81.1206 12.78 81.1206 11.86C81.1206 10.9 81.2873 9.99333 81.6206 9.14C81.954 8.27333 82.414 7.50667 83.0006 6.84C83.6006 6.17333 84.3006 5.65333 85.1006 5.28C85.914 4.89333 86.794 4.7 87.7406 4.7C89.114 4.7 90.2473 4.98667 91.1406 5.56C92.034 6.13333 92.7073 6.88 93.1606 7.8L91.7806 8.76C91.3673 7.93333 90.8006 7.32 90.0806 6.92C89.3606 6.52 88.5673 6.32 87.7006 6.32C86.9806 6.32 86.3273 6.47333 85.7406 6.78C85.154 7.08667 84.6473 7.50667 84.2206 8.04C83.8073 8.56 83.4873 9.15333 83.2606 9.82C83.0473 10.4867 82.9406 11.18 82.9406 11.9C82.9406 12.66 83.0606 13.38 83.3006 14.06C83.554 14.7267 83.9073 15.32 84.3606 15.84C84.814 16.3467 85.3406 16.7467 85.9406 17.04C86.5406 17.3333 87.1873 17.48 87.8806 17.48C88.694 17.48 89.4673 17.2733 90.2006 16.86C90.934 16.4467 91.6273 15.8133 92.2806 14.96V16.82C91.0006 18.34 89.4873 19.1 87.7406 19.1ZM92.0606 13.28H89.0006V11.92H93.5806V19H92.0606V13.28ZM100.518 19V4.8H106.598C107.225 4.8 107.798 4.93333 108.318 5.2C108.838 5.45333 109.291 5.8 109.678 6.24C110.065 6.66667 110.365 7.15333 110.578 7.7C110.791 8.23333 110.898 8.78 110.898 9.34C110.898 9.99333 110.771 10.6133 110.518 11.2C110.278 11.7867 109.931 12.2867 109.478 12.7C109.038 13.1133 108.518 13.4 107.918 13.56L111.358 19H109.318L106.078 13.9H102.318V19H100.518ZM102.318 12.3H106.618C107.111 12.3 107.538 12.1667 107.898 11.9C108.271 11.62 108.558 11.2533 108.758 10.8C108.971 10.3467 109.078 9.86 109.078 9.34C109.078 8.80667 108.958 8.32 108.718 7.88C108.478 7.42667 108.165 7.06667 107.778 6.8C107.391 6.53333 106.965 6.4 106.498 6.4H102.318V12.3ZM122.182 4.8H123.702L129.502 19H127.582L125.902 14.84H119.942L118.282 19H116.362L122.182 4.8ZM125.502 13.44L122.942 6.88L120.302 13.44H125.502ZM147.878 19V8.16L143.198 16.5H142.098L137.398 8.16V19H135.598V4.8H137.498L142.638 14.02L147.798 4.8H149.678V19H147.878Z" fill="#4E4E4E"/>
</svg>
