<svg width="154" height="23" viewBox="0 0 154 23" fill="none" xmlns="http://www.w3.org/2000/svg">
<path d="M33.7369 7.78C33.5769 7.59333 33.3635 7.41333 33.0969 7.24C32.8302 7.06667 32.5302 6.91333 32.1969 6.78C31.8635 6.63333 31.4969 6.52 31.0969 6.44C30.7102 6.34667 30.3035 6.3 29.8769 6.3C28.7835 6.3 27.9769 6.50667 27.4569 6.92C26.9369 7.33333 26.6769 7.9 26.6769 8.62C26.6769 9.12667 26.8102 9.52667 27.0769 9.82C27.3435 10.1133 27.7502 10.3533 28.2969 10.54C28.8569 10.7267 29.5635 10.92 30.4169 11.12C31.4035 11.3333 32.2569 11.5933 32.9769 11.9C33.6969 12.2067 34.2502 12.62 34.6369 13.14C35.0235 13.6467 35.2169 14.3267 35.2169 15.18C35.2169 15.86 35.0835 16.4533 34.8169 16.96C34.5635 17.4533 34.2035 17.8667 33.7369 18.2C33.2702 18.52 32.7235 18.76 32.0969 18.92C31.4702 19.0667 30.7902 19.14 30.0569 19.14C29.3369 19.14 28.6302 19.0667 27.9369 18.92C27.2569 18.76 26.6102 18.5333 25.9969 18.24C25.3835 17.9467 24.8102 17.58 24.2769 17.14L25.1369 15.62C25.3502 15.8467 25.6235 16.0733 25.9569 16.3C26.3035 16.5133 26.6902 16.7133 27.1169 16.9C27.5569 17.0867 28.0302 17.24 28.5369 17.36C29.0435 17.4667 29.5635 17.52 30.0969 17.52C31.1102 17.52 31.8969 17.34 32.4569 16.98C33.0169 16.6067 33.2969 16.0667 33.2969 15.36C33.2969 14.8267 33.1369 14.4 32.8169 14.08C32.5102 13.76 32.0502 13.4933 31.4369 13.28C30.8235 13.0667 30.0769 12.8533 29.1969 12.64C28.2369 12.4 27.4302 12.14 26.7769 11.86C26.1235 11.5667 25.6302 11.1867 25.2969 10.72C24.9769 10.2533 24.8169 9.64667 24.8169 8.9C24.8169 7.99333 25.0369 7.22667 25.4769 6.6C25.9169 5.97333 26.5235 5.5 27.2969 5.18C28.0702 4.86 28.9435 4.7 29.9169 4.7C30.5569 4.7 31.1502 4.76667 31.6969 4.9C32.2569 5.03333 32.7769 5.22 33.2569 5.46C33.7369 5.7 34.1769 5.98667 34.5769 6.32L33.7369 7.78ZM41.7844 19V4.8H47.7044C48.331 4.8 48.9044 4.93333 49.4244 5.2C49.9444 5.45333 50.3977 5.8 50.7844 6.24C51.171 6.66667 51.471 7.15333 51.6844 7.7C51.8977 8.23333 52.0044 8.78 52.0044 9.34C52.0044 10.1133 51.831 10.8533 51.4844 11.56C51.1377 12.2533 50.651 12.82 50.0244 13.26C49.3977 13.6867 48.6644 13.9 47.8244 13.9H43.5844V19H41.7844ZM43.5844 12.3H47.7244C48.2177 12.3 48.6444 12.1667 49.0044 11.9C49.3777 11.6333 49.6644 11.2733 49.8644 10.82C50.0777 10.3667 50.1844 9.87333 50.1844 9.34C50.1844 8.78 50.0644 8.28 49.8244 7.84C49.5844 7.38667 49.271 7.03333 48.8844 6.78C48.4977 6.52667 48.071 6.4 47.6044 6.4H43.5844V12.3ZM64.2053 19.1C63.2053 19.1 62.2986 18.9 61.4853 18.5C60.672 18.1 59.9653 17.56 59.3653 16.88C58.7786 16.1867 58.3253 15.4133 58.0053 14.56C57.6853 13.6933 57.5253 12.8067 57.5253 11.9C57.5253 10.9533 57.692 10.0533 58.0253 9.2C58.372 8.33333 58.8453 7.56667 59.4453 6.9C60.0586 6.22 60.772 5.68667 61.5853 5.3C62.3986 4.9 63.2853 4.7 64.2453 4.7C65.2453 4.7 66.152 4.90667 66.9653 5.32C67.7786 5.73333 68.4786 6.28667 69.0653 6.98C69.652 7.67333 70.1053 8.44667 70.4253 9.3C70.7453 10.1533 70.9053 11.0267 70.9053 11.92C70.9053 12.8667 70.7386 13.7733 70.4053 14.64C70.072 15.4933 69.5986 16.26 68.9853 16.94C68.3853 17.6067 67.6786 18.1333 66.8653 18.52C66.052 18.9067 65.1653 19.1 64.2053 19.1ZM59.3453 11.9C59.3453 12.62 59.4586 13.32 59.6853 14C59.9253 14.6667 60.2586 15.26 60.6853 15.78C61.112 16.3 61.6253 16.7133 62.2253 17.02C62.8253 17.3267 63.492 17.48 64.2253 17.48C64.9853 17.48 65.6653 17.32 66.2653 17C66.8653 16.68 67.372 16.2533 67.7853 15.72C68.212 15.1867 68.532 14.5867 68.7453 13.92C68.972 13.2533 69.0853 12.58 69.0853 11.9C69.0853 11.18 68.9653 10.4867 68.7253 9.82C68.4986 9.15333 68.1653 8.56 67.7253 8.04C67.2986 7.50667 66.7853 7.09333 66.1853 6.8C65.5986 6.49333 64.9453 6.34 64.2253 6.34C63.4653 6.34 62.7853 6.5 62.1853 6.82C61.5853 7.12667 61.072 7.54667 60.6453 8.08C60.232 8.61333 59.912 9.21333 59.6853 9.88C59.4586 10.5333 59.3453 11.2067 59.3453 11.9ZM87.397 6.4H82.497V19H80.697V6.4H75.797V4.8H87.397V6.4ZM93.6422 19V4.8H95.4422V19H93.6422ZM103.038 19V4.8H112.418V6.4H104.838V11.14H111.218V12.64H104.838V19H103.038ZM119.438 4.8L123.738 12.2L128.078 4.8H130.038L124.638 13.82V19H122.838V13.78L117.458 4.8H119.438Z" fill="#4E4E4E"/>
</svg>
