<svg width="332" height="192" viewBox="0 0 332 192" fill="none" xmlns="http://www.w3.org/2000/svg">
<g style="mix-blend-mode:hard-light">
<path d="M38.4398 2.8637L39.4281 15.6568H38.2751C37.9456 11.4839 31.2471 3.57747 25.5918 3.57747H24.9329V38.333C24.9329 41.7372 26.9644 42.2862 29.1058 42.2862V43H12.03V42.2862C14.1713 42.2862 16.2578 41.7372 16.2578 38.333V3.57747H15.0498C9.06507 3.57747 3.51957 11.9781 2.9156 15.6568H1.70767L2.69597 2.8637H38.4398ZM117.069 41.9568C117.563 42.0666 118.826 42.2862 118.936 42.2862V43C113.226 43.0549 104.77 43 104.77 43C101.805 39.3213 97.4676 32.5129 94.0635 26.9125L91.977 23.7829H88.8474V38.3879C88.8474 41.7921 90.6593 42.2862 92.8006 42.2862V43H76.4386V42.2862C78.58 42.2313 80.282 41.7921 80.282 38.3879V23.0691H91.5378L80.6664 6.37768C79.3486 4.29125 77.8662 3.57747 76.219 3.57747V2.8637H93.5693C98.2363 2.8637 109.218 3.08332 109.218 13.1311C109.272 18.457 104.825 21.367 101.146 22.4651L105.868 29.2735C105.868 29.2735 113.665 41.0234 117.069 41.9568ZM99.4442 13.0213C99.4442 6.15806 96.8088 3.52257 93.2399 3.52257H89.1219L98.7305 18.2923C99.1697 16.9196 99.4442 15.2176 99.4442 13.0213ZM188.496 30.7011H189.319L188.496 43H155.717V42.2862C157.748 42.2862 159.56 41.5175 159.56 38.333V22.4102H170.596L160.384 6.70712C159.835 5.93844 159.396 5.33447 158.847 4.84031C157.913 3.96182 156.98 3.57747 155.827 3.57747H155.717V2.8637H187.288L188.496 13.8449H187.672C186.409 9.72695 180.095 3.57747 174.934 3.57747H168.62L177.24 16.7549L177.46 17.1942C177.954 16.151 178.173 15.2725 178.173 14.7234H179.052V30.7011H178.173C178.173 27.8459 174.056 23.1789 169.553 23.1789H168.235V38.4977C168.235 42.1215 172.244 42.2862 172.353 42.2862H175.922C183.499 42.2862 187.343 34.215 188.496 30.7011ZM258.878 30.7011H259.702L258.878 43H226.1V42.2862C228.131 42.2862 229.943 41.5175 229.943 38.333V22.4102H240.979L230.767 6.70712C230.218 5.93844 229.778 5.33447 229.229 4.84031C228.296 3.96182 227.362 3.57747 226.209 3.57747H226.1V2.8637H257.671L258.878 13.8449H258.055C256.792 9.72695 250.478 3.57747 245.317 3.57747H239.002L247.623 16.7549L247.842 17.1942C248.337 16.151 248.556 15.2725 248.556 14.7234H249.435V30.7011H248.556C248.556 27.8459 244.438 23.1789 239.936 23.1789H238.618V38.4977C238.618 42.1215 242.626 42.2862 242.736 42.2862H246.305C253.882 42.2862 257.725 34.215 258.878 30.7011ZM310.099 19.1159C306.805 17.1942 304.499 14.394 305.157 9.78186C305.597 6.5424 307.903 3.24804 314.437 2.36954C323.112 1.21652 329.7 4.78541 329.7 4.78541L328.492 13.5704H327.888C328.273 7.20127 318.005 0.941986 313.833 3.52257C311.801 4.84031 309.056 10.7702 318.994 15.9313C328.932 21.0925 330.304 25.9791 330.304 30.4265L323.057 28.6695C322.014 27.0223 320.202 25.2104 317.237 23.2338C314.821 21.6965 312.24 20.3238 310.099 19.1159ZM318.554 27.9008C323.276 32.5679 323.825 43.1098 312.185 43.8236C304.444 44.2628 296.921 41.6823 296.921 41.6823L298.129 32.7875H298.733C298.459 38.3879 310.868 45.8002 314.327 42.0666C315.919 40.3645 317.347 35.5877 308.671 29.9324C306.256 28.395 303.675 26.9674 301.534 25.7595C298.239 23.8378 295.933 21.0925 296.592 16.4255C296.647 15.8764 296.757 15.3823 296.921 14.9979L303.73 16.7549C304.499 18.6217 306.42 20.5983 310.428 22.6299C313.174 24.0025 316.303 25.7595 318.554 27.9008ZM148.259 85.2669C154.056 85.2669 159.565 90.6156 159.565 97.2776C159.565 103.875 154.056 109.288 148.259 109.288C142.462 109.288 136.985 103.875 136.985 97.2776C136.985 90.6156 142.462 85.2669 148.259 85.2669ZM148.259 85.6832C146.786 85.6832 145.665 86.3558 144.8 87.4768L153.768 99.8078C153.832 98.943 153.864 98.0462 153.864 97.1174C153.864 90.8398 152.423 85.6832 148.259 85.6832ZM148.259 108.872C150.02 108.872 151.302 107.879 152.198 106.246L142.878 93.4341C142.75 94.5872 142.686 95.8363 142.686 97.1174C142.686 103.395 144.127 108.872 148.259 108.872ZM178.129 96.9893H184.567L178.609 87.8292C178.289 87.3808 178.033 87.0284 177.713 86.7402C177.168 86.2277 176.624 86.0035 175.951 86.0035H175.887V85.5872H194.303L195.008 91.9929H194.528C193.791 89.5907 190.108 86.0035 187.097 86.0035H183.414L188.442 93.6904L188.57 93.9466C188.858 93.3381 188.987 92.8256 188.987 92.5053H189.499V101.826H188.987C188.987 100.16 186.584 97.4377 183.958 97.4377H183.189V106.374C183.189 108.199 184.919 108.52 185.431 108.584V109H175.887V108.584C177.072 108.584 178.129 108.135 178.129 106.278V96.9893ZM42.6513 149.864H57.1465V150.577C54.0168 150.523 51.2715 154.97 49.9538 157.99C49.6243 158.923 37.3254 191.757 37.3254 191.757L27.7168 166.171L18.1632 191.757L3.17384 154.311C3.17384 154.311 1.85609 150.577 0.0991003 150.577V149.864H14.3198V150.577C12.453 150.577 11.6843 152.444 12.8922 155.519L22.2262 178.25L27.2227 164.963L23.1596 154.311C23.1596 154.311 21.6223 150.577 20.1398 150.577V149.864H34.8546V150.742C31.5053 150.742 32.4937 153.707 33.2623 155.519L41.2786 178.634L48.2517 159.911C50.2283 154.476 45.2868 150.577 42.6513 150.577V149.864ZM133.843 150.577C131.537 150.577 129.999 151.127 129.999 154.531V185.333C129.999 188.737 131.702 189.286 133.843 189.286V190H117.481V189.286C119.622 189.286 121.324 188.737 121.324 185.333V170.289H105.896V185.333C105.896 188.737 107.598 189.286 109.739 189.286V190H93.3771V189.286C95.5185 189.286 97.2206 188.737 97.2206 185.333V154.531C97.2206 151.072 95.5185 150.577 93.3771 150.577V149.864H109.739V150.577C107.433 150.577 105.896 151.127 105.896 154.531V169.52H121.324V154.531C121.324 151.072 119.622 150.577 117.481 150.577V149.864H133.843V150.577ZM183.142 154.531V185.333C183.142 188.737 184.844 189.286 186.985 189.286V190H170.623V189.286C172.764 189.286 174.466 188.737 174.466 185.333V154.531C174.466 151.072 172.764 150.577 170.623 150.577V149.864H186.985V150.577C184.679 150.577 183.142 151.127 183.142 154.531ZM260.526 149.864L261.514 162.657H260.361C260.032 158.484 253.333 150.577 247.678 150.577H247.019V185.333C247.019 188.737 249.051 189.286 251.192 189.286V190H234.116V189.286C236.258 189.286 238.344 188.737 238.344 185.333V150.577H237.136C231.151 150.577 225.606 158.978 225.002 162.657H223.794L224.782 149.864H260.526ZM331.084 177.701H331.908L331.084 190H298.305V189.286C300.337 189.286 302.149 188.518 302.149 185.333V169.41H313.185L302.972 153.707C302.423 152.938 301.984 152.334 301.435 151.84C300.502 150.962 299.568 150.577 298.415 150.577H298.305V149.864H329.876L331.084 160.845H330.261C328.998 156.727 322.684 150.577 317.522 150.577H311.208L319.828 163.755L320.048 164.194C320.542 163.151 320.762 162.272 320.762 161.723H321.64V177.701H320.762C320.762 174.846 316.644 170.179 312.142 170.179H310.824V185.498C310.824 189.122 314.832 189.286 314.942 189.286H318.511C326.088 189.286 329.931 181.215 331.084 177.701Z" fill="black"/>
<path d="M38.4398 2.8637L38.9383 2.82519L38.9027 2.3637H38.4398V2.8637ZM39.4281 15.6568V16.1568H39.9682L39.9266 15.6183L39.4281 15.6568ZM38.2751 15.6568L37.7766 15.6962L37.813 16.1568H38.2751V15.6568ZM24.9329 3.57747V3.07747H24.4329V3.57747H24.9329ZM29.1058 42.2862H29.6058V41.7862H29.1058V42.2862ZM29.1058 43V43.5H29.6058V43H29.1058ZM12.03 43H11.53V43.5H12.03V43ZM12.03 42.2862V41.7862H11.53V42.2862H12.03ZM16.2578 3.57747H16.7578V3.07747H16.2578V3.57747ZM2.9156 15.6568V16.1568H3.3402L3.40899 15.7378L2.9156 15.6568ZM1.70767 15.6568L1.20915 15.6183L1.16755 16.1568H1.70767V15.6568ZM2.69597 2.8637V2.3637H2.23311L2.19746 2.82519L2.69597 2.8637ZM37.9413 2.90221L38.9296 15.6953L39.9266 15.6183L38.9383 2.82519L37.9413 2.90221ZM39.4281 15.1568H38.2751V16.1568H39.4281V15.1568ZM38.7735 15.6174C38.6829 14.4694 38.1633 13.1183 37.3832 11.76C36.5981 10.393 35.5274 8.98059 34.2896 7.70423C31.8375 5.17571 28.6257 3.07747 25.5918 3.07747V4.07747C28.2132 4.07747 31.1784 5.93247 33.5717 8.4004C34.7566 9.62227 35.7757 10.9689 36.516 12.258C37.2613 13.5558 37.7025 14.7578 37.7766 15.6962L38.7735 15.6174ZM25.5918 3.07747H24.9329V4.07747H25.5918V3.07747ZM24.4329 3.57747V38.333H25.4329V3.57747H24.4329ZM24.4329 38.333C24.4329 40.1377 24.9771 41.3046 25.9227 41.9908C26.8331 42.6515 28.0141 42.7862 29.1058 42.7862V41.7862C28.0561 41.7862 27.1507 41.6464 26.51 41.1815C25.9045 40.7421 25.4329 39.9325 25.4329 38.333H24.4329ZM28.6058 42.2862V43H29.6058V42.2862H28.6058ZM29.1058 42.5H12.03V43.5H29.1058V42.5ZM12.53 43V42.2862H11.53V43H12.53ZM12.03 42.7862C13.1221 42.7862 14.3144 42.6513 15.2372 41.9933C16.1967 41.3091 16.7578 40.1425 16.7578 38.333H15.7578C15.7578 39.9277 15.2756 40.7377 14.6566 41.1791C14.0009 41.6466 13.0793 41.7862 12.03 41.7862V42.7862ZM16.7578 38.333V3.57747H15.7578V38.333H16.7578ZM16.2578 3.07747H15.0498V4.07747H16.2578V3.07747ZM15.0498 3.07747C11.8342 3.07747 8.82466 5.31817 6.58644 7.91089C4.343 10.5097 2.74459 13.6122 2.4222 15.5758L3.40899 15.7378C3.69057 14.0227 5.1669 11.0856 7.3434 8.56435C9.52512 6.03709 12.2807 4.07747 15.0498 4.07747V3.07747ZM2.9156 15.1568H1.70767V16.1568H2.9156V15.1568ZM2.20618 15.6953L3.19449 2.90221L2.19746 2.82519L1.20915 15.6183L2.20618 15.6953ZM2.69597 3.3637H38.4398V2.3637H2.69597V3.3637ZM117.069 41.9568L116.937 42.439L116.949 42.4422L116.961 42.4449L117.069 41.9568ZM118.936 42.2862H119.436V41.7862H118.936V42.2862ZM118.936 43L118.941 43.5L119.436 43.4952V43H118.936ZM104.77 43L104.381 43.3138L104.53 43.4984L104.767 43.5L104.77 43ZM94.0635 26.9125L94.4907 26.6528L94.4853 26.6439L94.4795 26.6352L94.0635 26.9125ZM91.977 23.7829L92.3931 23.5055L92.2446 23.2829H91.977V23.7829ZM88.8474 23.7829V23.2829H88.3474V23.7829H88.8474ZM92.8006 42.2862H93.3006V41.7862H92.8006V42.2862ZM92.8006 43V43.5H93.3006V43H92.8006ZM76.4386 43H75.9386V43.5H76.4386V43ZM76.4386 42.2862L76.4258 41.7864L75.9386 41.7989V42.2862H76.4386ZM80.282 23.0691V22.5691H79.782V23.0691H80.282ZM91.5378 23.0691V23.5691H92.4601L91.9567 22.7962L91.5378 23.0691ZM80.6664 6.37768L80.2436 6.6447L80.2474 6.65056L80.6664 6.37768ZM76.219 3.57747H75.719V4.07747H76.219V3.57747ZM76.219 2.8637V2.3637H75.719V2.8637H76.219ZM109.218 13.1311H108.717L108.718 13.1363L109.218 13.1311ZM101.146 22.4651L101.003 21.986L100.342 22.1833L100.735 22.7501L101.146 22.4651ZM105.868 29.2735L106.285 28.997L106.279 28.9885L105.868 29.2735ZM89.1219 3.52257V3.02257H88.2001L88.7028 3.79523L89.1219 3.52257ZM98.7305 18.2923L98.3113 18.5649L98.8857 19.4478L99.2067 18.4447L98.7305 18.2923ZM116.961 42.4449C117.219 42.5024 117.668 42.5864 118.06 42.6552C118.258 42.6898 118.444 42.7212 118.59 42.7441C118.662 42.7555 118.726 42.7651 118.777 42.7721C118.813 42.7768 118.881 42.7862 118.936 42.7862V41.7862C118.963 41.7862 118.968 41.7887 118.911 41.7811C118.871 41.7756 118.814 41.7672 118.745 41.7563C118.607 41.7346 118.427 41.7042 118.233 41.6702C117.843 41.6017 117.413 41.521 117.178 41.4687L116.961 42.4449ZM118.436 42.2862V43H119.436V42.2862H118.436ZM118.931 42.5C116.079 42.5274 112.54 42.5275 109.713 42.5206C108.3 42.5172 107.065 42.512 106.183 42.5077C105.742 42.5056 105.39 42.5037 105.147 42.5023C105.026 42.5016 104.933 42.501 104.87 42.5006C104.838 42.5004 104.814 42.5003 104.798 42.5002C104.79 42.5001 104.784 42.5001 104.779 42.5C104.777 42.5 104.776 42.5 104.775 42.5C104.774 42.5 104.774 42.5 104.774 42.5C104.774 42.5 104.774 42.5 104.773 42.5C104.773 42.5 104.773 42.5 104.77 43C104.767 43.5 104.767 43.5 104.767 43.5C104.767 43.5 104.767 43.5 104.767 43.5C104.768 43.5 104.768 43.5 104.768 43.5C104.769 43.5 104.771 43.5 104.773 43.5C104.777 43.5001 104.783 43.5001 104.791 43.5001C104.808 43.5002 104.832 43.5004 104.863 43.5006C104.927 43.501 105.02 43.5015 105.142 43.5022C105.384 43.5036 105.737 43.5056 106.178 43.5077C107.06 43.512 108.296 43.5172 109.71 43.5206C112.539 43.5275 116.082 43.5275 118.941 43.5L118.931 42.5ZM105.159 42.6862C102.218 39.037 97.8967 32.2562 94.4907 26.6528L93.6362 27.1722C97.0386 32.7697 101.392 39.6056 104.381 43.3138L105.159 42.6862ZM94.4795 26.6352L92.3931 23.5055L91.561 24.0602L93.6474 27.1899L94.4795 26.6352ZM91.977 23.2829H88.8474V24.2829H91.977V23.2829ZM88.3474 23.7829V38.3879H89.3474V23.7829H88.3474ZM88.3474 38.3879C88.3474 40.1727 88.8247 41.3307 89.718 42.0113C90.5798 42.668 91.7171 42.7862 92.8006 42.7862V41.7862C91.7428 41.7862 90.9035 41.6574 90.324 41.2159C89.776 40.7984 89.3474 40.0072 89.3474 38.3879H88.3474ZM92.3006 42.2862V43H93.3006V42.2862H92.3006ZM92.8006 42.5H76.4386V43.5H92.8006V42.5ZM76.9386 43V42.2862H75.9386V43H76.9386ZM76.4514 42.7861C77.5237 42.7586 78.6373 42.6393 79.4714 41.9869C80.3374 41.3095 80.782 40.1635 80.782 38.3879H79.782C79.782 40.0165 79.3757 40.7922 78.8553 41.1992C78.303 41.6312 77.4949 41.759 76.4258 41.7864L76.4514 42.7861ZM80.782 38.3879V23.0691H79.782V38.3879H80.782ZM80.282 23.5691H91.5378V22.5691H80.282V23.5691ZM91.9567 22.7962L81.0854 6.1048L80.2474 6.65056L91.1188 23.342L91.9567 22.7962ZM81.0891 6.11068C80.3991 5.01818 79.6463 4.25403 78.8211 3.76502C77.9922 3.27379 77.1192 3.07747 76.219 3.07747V4.07747C76.966 4.07747 77.6578 4.23805 78.3113 4.62531C78.9686 5.0148 79.6159 5.65075 80.2436 6.64468L81.0891 6.11068ZM76.719 3.57747V2.8637H75.719V3.57747H76.719ZM76.219 3.3637H93.5693V2.3637H76.219V3.3637ZM93.5693 3.3637C95.9083 3.3637 99.7308 3.42286 102.96 4.69471C104.567 5.3274 106 6.25059 107.032 7.59272C108.06 8.92894 108.718 10.7162 108.718 13.1311H109.718C109.718 10.5222 109.002 8.51402 107.825 6.98312C106.652 5.45813 105.049 4.44245 103.327 3.76426C99.899 2.41435 95.8973 2.3637 93.5693 2.3637V3.3637ZM108.718 13.1363C108.769 18.1196 104.611 20.9092 101.003 21.986L101.289 22.9443C105.039 21.8248 109.776 18.7944 109.717 13.126L108.718 13.1363ZM100.735 22.7501L105.457 29.5584L106.279 28.9885L101.557 22.1802L100.735 22.7501ZM105.868 29.2735C105.452 29.5499 105.452 29.55 105.452 29.5501C105.452 29.5502 105.452 29.5504 105.452 29.5506C105.452 29.551 105.453 29.5516 105.453 29.5524C105.454 29.5539 105.456 29.5561 105.458 29.559C105.462 29.5648 105.467 29.5735 105.475 29.5848C105.49 29.6074 105.512 29.6409 105.542 29.6844C105.6 29.7715 105.686 29.899 105.797 30.0615C106.018 30.3863 106.337 30.851 106.731 31.4114C107.518 32.5317 108.604 34.0366 109.797 35.572C110.99 37.1056 112.297 38.6788 113.526 39.9314C114.14 40.5576 114.743 41.1112 115.307 41.5415C115.865 41.9661 116.419 42.2971 116.937 42.439L117.201 41.4746C116.868 41.3831 116.434 41.1427 115.913 40.7461C115.4 40.3552 114.835 39.8377 114.24 39.2311C113.049 38.018 111.769 36.4788 110.587 34.9582C109.406 33.4395 108.33 31.9485 107.549 30.8366C107.158 30.2808 106.842 29.8203 106.623 29.4989C106.514 29.3383 106.429 29.2125 106.372 29.127C106.343 29.0842 106.321 29.0516 106.307 29.0297C106.299 29.0187 106.294 29.0105 106.29 29.005C106.288 29.0023 106.287 29.0002 106.286 28.9989C106.286 28.9982 106.285 28.9978 106.285 28.9974C106.285 28.9973 106.285 28.9972 106.285 28.9971C106.285 28.9971 106.285 28.997 105.868 29.2735ZM99.9442 13.0213C99.9442 9.53818 99.2776 7.04148 98.0845 5.40381C96.8731 3.74098 95.1621 3.02257 93.2399 3.02257V4.02257C94.8866 4.02257 96.2777 4.6219 97.2763 5.99263C98.2932 7.38852 98.9442 9.64119 98.9442 13.0213H99.9442ZM93.2399 3.02257H89.1219V4.02257H93.2399V3.02257ZM88.7028 3.79523L98.3113 18.5649L99.1496 18.0196L89.541 3.24991L88.7028 3.79523ZM99.2067 18.4447C99.6645 17.0141 99.9442 15.2594 99.9442 13.0213H98.9442C98.9442 15.1757 98.675 16.8251 98.2543 18.1399L99.2067 18.4447ZM188.496 30.7011V30.2011H188.134L188.021 30.5452L188.496 30.7011ZM189.319 30.7011L189.818 30.7345L189.854 30.2011H189.319V30.7011ZM188.496 43V43.5H188.963L188.995 43.0334L188.496 43ZM155.717 43H155.217V43.5H155.717V43ZM155.717 42.2862V41.7862H155.217V42.2862H155.717ZM159.56 22.4102V21.9102H159.06V22.4102H159.56ZM170.596 22.4102V22.9102H171.518L171.016 22.1376L170.596 22.4102ZM160.384 6.70712L160.803 6.43452L160.797 6.42538L160.791 6.4165L160.384 6.70712ZM158.847 4.84031L158.504 5.2045L158.512 5.21196L158.847 4.84031ZM155.717 3.57747H155.217V4.07747H155.717V3.57747ZM155.717 2.8637V2.3637H155.217V2.8637H155.717ZM187.288 2.8637L187.785 2.80903L187.736 2.3637H187.288V2.8637ZM188.496 13.8449V14.3449H189.054L188.993 13.7902L188.496 13.8449ZM187.672 13.8449L187.194 13.9915L187.303 14.3449H187.672V13.8449ZM168.62 3.57747V3.07747H167.695L168.201 3.85119L168.62 3.57747ZM177.24 16.7549L177.687 16.5313L177.674 16.5054L177.658 16.4812L177.24 16.7549ZM177.46 17.1942L177.012 17.4178L177.472 18.3365L177.912 17.4082L177.46 17.1942ZM178.173 14.7234V14.2234H177.673V14.7234H178.173ZM179.052 14.7234H179.552V14.2234H179.052V14.7234ZM179.052 30.7011V31.2011H179.552V30.7011H179.052ZM178.173 30.7011H177.673V31.2011H178.173V30.7011ZM168.235 23.1789V22.6789H167.735V23.1789H168.235ZM188.496 31.2011H189.319V30.2011H188.496V31.2011ZM188.821 30.6676L187.997 42.9666L188.995 43.0334L189.818 30.7345L188.821 30.6676ZM188.496 42.5H155.717V43.5H188.496V42.5ZM156.217 43V42.2862H155.217V43H156.217ZM155.717 42.7862C156.781 42.7862 157.883 42.5875 158.721 41.8876C159.577 41.1728 160.06 40.0202 160.06 38.333H159.06C159.06 39.8304 158.638 40.6543 158.08 41.12C157.504 41.6006 156.684 41.7862 155.717 41.7862V42.7862ZM160.06 38.333V22.4102H159.06V38.333H160.06ZM159.56 22.9102H170.596V21.9102H159.56V22.9102ZM171.016 22.1376L160.803 6.43452L159.965 6.97972L170.177 22.6828L171.016 22.1376ZM160.791 6.4165C160.247 5.6553 159.777 5.00544 159.181 4.46867L158.512 5.21196C159.014 5.6635 159.423 6.22157 159.977 6.99774L160.791 6.4165ZM159.189 4.47621C158.172 3.51908 157.119 3.07747 155.827 3.07747V4.07747C156.84 4.07747 157.654 4.40455 158.504 5.20441L159.189 4.47621ZM155.827 3.07747H155.717V4.07747H155.827V3.07747ZM156.217 3.57747V2.8637H155.217V3.57747H156.217ZM155.717 3.3637H187.288V2.3637H155.717V3.3637ZM186.791 2.91837L187.999 13.8996L188.993 13.7902L187.785 2.80903L186.791 2.91837ZM188.496 13.3449H187.672V14.3449H188.496V13.3449ZM188.15 13.6983C187.481 11.5158 185.512 8.87417 183.091 6.78818C180.674 4.70534 177.691 3.07747 174.934 3.07747V4.07747C177.338 4.07747 180.093 5.52434 182.439 7.54574C184.781 9.56397 186.601 12.056 187.194 13.9915L188.15 13.6983ZM174.934 3.07747H168.62V4.07747H174.934V3.07747ZM168.201 3.85119L176.822 17.0286L177.658 16.4812L169.038 3.30376L168.201 3.85119ZM176.793 16.9785L177.012 17.4178L177.907 16.9706L177.687 16.5313L176.793 16.9785ZM177.912 17.4082C178.421 16.3328 178.673 15.3772 178.673 14.7234H177.673C177.673 15.1678 177.487 15.9691 177.008 16.9801L177.912 17.4082ZM178.173 15.2234H179.052V14.2234H178.173V15.2234ZM178.552 14.7234V30.7011H179.552V14.7234H178.552ZM179.052 30.2011H178.173V31.2011H179.052V30.2011ZM178.673 30.7011C178.673 29.8756 178.379 28.9651 177.899 28.0823C177.416 27.1937 176.727 26.3022 175.897 25.5081C174.246 23.9275 171.973 22.6789 169.553 22.6789V23.6789C171.636 23.6789 173.673 24.7639 175.206 26.2306C175.968 26.9601 176.591 27.7706 177.02 28.5601C177.453 29.3554 177.673 30.0989 177.673 30.7011H178.673ZM169.553 22.6789H168.235V23.6789H169.553V22.6789ZM167.735 23.1789V38.4977H168.735V23.1789H167.735ZM167.735 38.4977C167.735 39.5022 168.015 40.2954 168.458 40.9103C168.896 41.5197 169.474 41.9277 170.035 42.2005C171.143 42.7398 172.256 42.7862 172.353 42.7862V41.7862C172.36 41.7862 172.119 41.7793 171.754 41.7121C171.392 41.6455 170.927 41.5229 170.472 41.3013C170.017 41.08 169.586 40.7673 169.269 40.3266C168.957 39.8915 168.735 39.3051 168.735 38.4977H167.735ZM172.353 42.7862H175.922V41.7862H172.353V42.7862ZM175.922 42.7862C179.91 42.7862 182.893 40.6572 185.002 38.1319C187.108 35.6106 188.382 32.651 188.971 30.8569L188.021 30.5452C187.456 32.2651 186.233 35.0981 184.234 37.4909C182.239 39.8796 179.512 41.7862 175.922 41.7862V42.7862ZM258.878 30.7011V30.2011H258.516L258.403 30.5452L258.878 30.7011ZM259.702 30.7011L260.201 30.7345L260.237 30.2011H259.702V30.7011ZM258.878 43V43.5H259.346L259.377 43.0334L258.878 43ZM226.1 43H225.6V43.5H226.1V43ZM226.1 42.2862V41.7862H225.6V42.2862H226.1ZM229.943 22.4102V21.9102H229.443V22.4102H229.943ZM240.979 22.4102V22.9102H241.901L241.398 22.1376L240.979 22.4102ZM230.767 6.70712L231.186 6.43452L231.18 6.42538L231.173 6.4165L230.767 6.70712ZM229.229 4.84031L228.886 5.2045L228.895 5.21196L229.229 4.84031ZM226.1 3.57747H225.6V4.07747H226.1V3.57747ZM226.1 2.8637V2.3637H225.6V2.8637H226.1ZM257.671 2.8637L258.168 2.80903L258.119 2.3637H257.671V2.8637ZM258.878 13.8449V14.3449H259.436L259.375 13.7902L258.878 13.8449ZM258.055 13.8449L257.577 13.9915L257.685 14.3449H258.055V13.8449ZM239.002 3.57747V3.07747H238.078L238.584 3.85119L239.002 3.57747ZM247.623 16.7549L248.07 16.5313L248.057 16.5054L248.041 16.4812L247.623 16.7549ZM247.842 17.1942L247.395 17.4178L247.855 18.3365L248.294 17.4082L247.842 17.1942ZM248.556 14.7234V14.2234H248.056V14.7234H248.556ZM249.435 14.7234H249.935V14.2234H249.435V14.7234ZM249.435 30.7011V31.2011H249.935V30.7011H249.435ZM248.556 30.7011H248.056V31.2011H248.556V30.7011ZM238.618 23.1789V22.6789H238.118V23.1789H238.618ZM258.878 31.2011H259.702V30.2011H258.878V31.2011ZM259.203 30.6676L258.38 42.9666L259.377 43.0334L260.201 30.7345L259.203 30.6676ZM258.878 42.5H226.1V43.5H258.878V42.5ZM226.6 43V42.2862H225.6V43H226.6ZM226.1 42.7862C227.164 42.7862 228.265 42.5875 229.104 41.8876C229.96 41.1728 230.443 40.0202 230.443 38.333H229.443C229.443 39.8304 229.02 40.6543 228.463 41.12C227.887 41.6006 227.067 41.7862 226.1 41.7862V42.7862ZM230.443 38.333V22.4102H229.443V38.333H230.443ZM229.943 22.9102H240.979V21.9102H229.943V22.9102ZM241.398 22.1376L231.186 6.43452L230.347 6.97972L240.56 22.6828L241.398 22.1376ZM231.173 6.4165C230.63 5.6553 230.16 5.00544 229.564 4.46867L228.895 5.21196C229.396 5.6635 229.805 6.22157 230.36 6.99774L231.173 6.4165ZM229.572 4.47621C228.555 3.51908 227.502 3.07747 226.209 3.07747V4.07747C227.223 4.07747 228.037 4.40455 228.887 5.20441L229.572 4.47621ZM226.209 3.07747H226.1V4.07747H226.209V3.07747ZM226.6 3.57747V2.8637H225.6V3.57747H226.6ZM226.1 3.3637H257.671V2.3637H226.1V3.3637ZM257.174 2.91837L258.381 13.8996L259.375 13.7902L258.168 2.80903L257.174 2.91837ZM258.878 13.3449H258.055V14.3449H258.878V13.3449ZM258.533 13.6983C257.864 11.5158 255.895 8.87417 253.474 6.78818C251.057 4.70534 248.074 3.07747 245.317 3.07747V4.07747C247.721 4.07747 250.475 5.52434 252.821 7.54574C255.163 9.56397 256.983 12.056 257.577 13.9915L258.533 13.6983ZM245.317 3.07747H239.002V4.07747H245.317V3.07747ZM238.584 3.85119L247.204 17.0286L248.041 16.4812L239.421 3.30376L238.584 3.85119ZM247.176 16.9785L247.395 17.4178L248.29 16.9706L248.07 16.5313L247.176 16.9785ZM248.294 17.4082C248.804 16.3328 249.056 15.3772 249.056 14.7234H248.056C248.056 15.1678 247.869 15.9691 247.391 16.9801L248.294 17.4082ZM248.556 15.2234H249.435V14.2234H248.556V15.2234ZM248.935 14.7234V30.7011H249.935V14.7234H248.935ZM249.435 30.2011H248.556V31.2011H249.435V30.2011ZM249.056 30.7011C249.056 29.8756 248.762 28.9651 248.282 28.0823C247.798 27.1937 247.11 26.3022 246.28 25.5081C244.628 23.9275 242.356 22.6789 239.936 22.6789V23.6789C242.018 23.6789 244.056 24.7639 245.589 26.2306C246.351 26.9601 246.974 27.7706 247.403 28.5601C247.836 29.3554 248.056 30.0989 248.056 30.7011H249.056ZM239.936 22.6789H238.618V23.6789H239.936V22.6789ZM238.118 23.1789V38.4977H239.118V23.1789H238.118ZM238.118 38.4977C238.118 39.5022 238.398 40.2954 238.84 40.9103C239.278 41.5197 239.856 41.9277 240.417 42.2005C241.526 42.7398 242.639 42.7862 242.736 42.7862V41.7862C242.742 41.7862 242.502 41.7793 242.137 41.7121C241.775 41.6455 241.31 41.5229 240.855 41.3013C240.4 41.08 239.969 40.7673 239.652 40.3266C239.339 39.8915 239.118 39.3051 239.118 38.4977H238.118ZM242.736 42.7862H246.305V41.7862H242.736V42.7862ZM246.305 42.7862C250.292 42.7862 253.275 40.6572 255.384 38.1319C257.49 35.6106 258.765 32.651 259.354 30.8569L258.403 30.5452C257.839 32.2651 256.615 35.0981 254.617 37.4909C252.622 39.8796 249.895 41.7862 246.305 41.7862V42.7862ZM310.099 19.1159L309.847 19.5478L309.853 19.5514L310.099 19.1159ZM305.157 9.78186L305.652 9.85257L305.653 9.84904L305.157 9.78186ZM314.436 2.36954L314.371 1.8739L314.37 1.874L314.436 2.36954ZM329.7 4.78541L330.196 4.85352L330.243 4.51062L329.939 4.34576L329.7 4.78541ZM328.492 13.5704V14.0704H328.928L328.988 13.6385L328.492 13.5704ZM327.888 13.5704L327.389 13.5403L327.357 14.0704H327.888V13.5704ZM313.833 3.52257L313.569 3.09722L313.56 3.10309L313.833 3.52257ZM318.994 15.9313L319.224 15.4876L318.994 15.9313ZM330.304 30.4265L330.187 30.9124L330.804 31.0622V30.4265H330.304ZM323.057 28.6695L322.634 28.9371L322.742 29.1078L322.939 29.1555L323.057 28.6695ZM317.237 23.2338L317.514 22.8177L317.505 22.812L317.237 23.2338ZM318.554 27.9008L318.906 27.5452L318.899 27.5386L318.554 27.9008ZM312.185 43.8236L312.214 44.3228L312.216 44.3227L312.185 43.8236ZM296.921 41.6823L296.426 41.615L296.371 42.0219L296.759 42.1552L296.921 41.6823ZM298.129 32.7875V32.2875H297.693L297.634 32.7202L298.129 32.7875ZM298.733 32.7875L299.233 32.812L299.258 32.2875H298.733V32.7875ZM314.327 42.0666L313.962 41.725L313.96 41.7268L314.327 42.0666ZM308.671 29.9324L308.944 29.5135L308.94 29.5105L308.671 29.9324ZM301.534 25.7595L301.282 26.1914L301.288 26.195L301.534 25.7595ZM296.592 16.4255L297.087 16.4954L297.089 16.4853L297.09 16.4752L296.592 16.4255ZM296.921 14.9979L297.046 14.5138L296.631 14.4066L296.462 14.801L296.921 14.9979ZM303.73 16.7549L304.192 16.5645L304.097 16.3333L303.855 16.2708L303.73 16.7549ZM310.428 22.6299L310.202 23.0759L310.205 23.0771L310.428 22.6299ZM310.351 18.684C308.747 17.7486 307.423 16.6212 306.575 15.2014C305.733 13.7915 305.338 12.0556 305.652 9.85257L304.662 9.71115C304.318 12.1203 304.747 14.0905 305.716 15.7142C306.68 17.3279 308.156 18.5614 309.847 19.5478L310.351 18.684ZM305.653 9.84904C305.859 8.32593 306.501 6.80524 307.851 5.55754C309.204 4.30666 311.309 3.29455 314.503 2.86508L314.37 1.874C311.03 2.32303 308.715 3.39735 307.172 4.82314C305.626 6.25211 304.895 7.99833 304.662 9.71467L305.653 9.84904ZM314.502 2.86519C318.757 2.29965 322.504 2.89192 325.19 3.62733C326.531 3.99483 327.605 4.39734 328.342 4.70673C328.71 4.86138 328.993 4.99264 329.183 5.08442C329.277 5.13031 329.349 5.16632 329.396 5.19043C329.419 5.20249 329.437 5.21157 329.448 5.21742C329.453 5.22035 329.457 5.22247 329.46 5.22375C329.461 5.22439 329.462 5.22483 329.462 5.22504C329.462 5.22515 329.463 5.22521 329.463 5.22521C329.463 5.22521 329.462 5.22517 329.462 5.22517C329.462 5.22512 329.462 5.22505 329.7 4.78541C329.939 4.34576 329.938 4.34567 329.938 4.34556C329.938 4.34551 329.938 4.34539 329.938 4.34528C329.937 4.34506 329.937 4.34479 329.936 4.34447C329.935 4.34383 329.933 4.34297 329.931 4.3419C329.927 4.33976 329.922 4.33678 329.915 4.33299C329.9 4.32541 329.879 4.31459 329.853 4.30079C329.799 4.27318 329.72 4.23364 329.618 4.18419C329.414 4.08531 329.114 3.94675 328.729 3.78484C327.959 3.46109 326.843 3.04344 325.454 2.66285C322.676 1.90208 318.791 1.28641 314.371 1.8739L314.502 2.86519ZM329.205 4.7173L327.997 13.5023L328.988 13.6385L330.196 4.85352L329.205 4.7173ZM328.492 13.0704H327.888V14.0704H328.492V13.0704ZM328.388 13.6005C328.596 10.1484 325.94 6.84841 322.848 4.77504C321.285 3.72693 319.563 2.95773 317.946 2.61883C316.339 2.28214 314.766 2.35735 313.57 3.09732L314.096 3.94782C314.985 3.39749 316.261 3.2874 317.741 3.59757C319.21 3.90553 320.814 4.61537 322.291 5.60564C325.279 7.60904 327.565 10.6232 327.389 13.5403L328.388 13.6005ZM313.56 3.10309C312.389 3.86317 311.101 5.86073 311.429 8.35097C311.76 10.8687 313.717 13.7546 318.763 16.3751L319.224 15.4876C314.332 12.9469 312.693 10.2873 312.42 8.22036C312.144 6.12595 313.245 4.49971 314.105 3.94205L313.56 3.10309ZM318.763 16.3751C323.688 18.9326 326.435 21.3944 327.957 23.7204C329.472 26.0348 329.804 28.262 329.804 30.4265H330.804C330.804 28.1436 330.45 25.7038 328.794 23.1728C327.145 20.6533 324.238 18.0913 319.224 15.4876L318.763 16.3751ZM330.422 29.9406L323.175 28.1836L322.939 29.1555L330.187 30.9124L330.422 29.9406ZM323.479 28.402C322.386 26.676 320.514 24.8178 317.514 22.8178L316.959 23.6499C319.889 25.6031 321.641 27.3687 322.634 28.9371L323.479 28.402ZM317.505 22.812C315.074 21.2651 312.471 19.8801 310.345 18.6804L309.853 19.5514C312.009 20.7676 314.567 22.1278 316.968 23.6557L317.505 22.812ZM318.203 28.2565C320.455 30.4827 321.704 34.1145 321.017 37.2373C320.677 38.7857 319.862 40.2101 318.451 41.2944C317.036 42.3814 314.991 43.1506 312.155 43.3245L312.216 44.3227C315.2 44.1397 317.451 43.3235 319.06 42.0873C320.672 40.8483 321.607 39.2117 321.994 37.4521C322.762 33.9587 321.375 29.986 318.906 27.5452L318.203 28.2565ZM312.157 43.3244C308.346 43.5406 304.576 43.0134 301.752 42.428C300.341 42.1358 299.171 41.83 298.355 41.5977C297.946 41.4816 297.627 41.3839 297.41 41.3155C297.302 41.2813 297.219 41.2544 297.164 41.2363C297.137 41.2272 297.116 41.2203 297.103 41.2158C297.096 41.2135 297.091 41.2118 297.088 41.2107C297.086 41.2102 297.085 41.2098 297.084 41.2095C297.084 41.2094 297.084 41.2094 297.084 41.2093C297.084 41.2093 297.084 41.2093 297.084 41.2093C297.084 41.2093 297.084 41.2093 296.921 41.6823C296.759 42.1552 296.759 42.1552 296.759 42.1553C296.76 42.1553 296.76 42.1554 296.76 42.1554C296.76 42.1556 296.761 42.1557 296.761 42.1559C296.762 42.1563 296.764 42.1568 296.766 42.1575C296.77 42.1589 296.776 42.1609 296.784 42.1635C296.799 42.1687 296.822 42.1763 296.851 42.186C296.91 42.2054 296.997 42.2336 297.109 42.2691C297.334 42.3401 297.663 42.4406 298.081 42.5595C298.917 42.7973 300.111 43.1093 301.549 43.4072C304.421 44.0024 308.283 44.5458 312.214 44.3228L312.157 43.3244ZM297.417 41.7495L298.625 32.8548L297.634 32.7202L296.426 41.615L297.417 41.7495ZM298.129 33.2875H298.733V32.2875H298.129V33.2875ZM298.234 32.763C298.156 34.3451 298.97 35.9795 300.182 37.4439C301.404 38.92 303.085 40.2902 304.874 41.3568C306.661 42.4222 308.589 43.2034 310.315 43.4734C312.023 43.7405 313.66 43.522 314.693 42.4064L313.96 41.7268C313.264 42.478 312.053 42.733 310.47 42.4854C308.905 42.2407 307.099 41.5189 305.386 40.4978C303.675 39.478 302.088 38.1783 300.953 36.8062C299.807 35.4224 299.173 34.0301 299.233 32.812L298.234 32.763ZM314.692 42.4082C315.59 41.4477 316.409 39.6575 315.834 37.3607C315.263 35.0761 313.337 32.3769 308.944 29.5135L308.398 30.3512C312.681 33.1431 314.378 35.66 314.864 37.6032C315.347 39.5341 314.655 40.9835 313.962 41.725L314.692 42.4082ZM308.94 29.5105C306.51 27.9642 303.915 26.5287 301.779 25.324L301.288 26.195C303.435 27.4061 306.001 28.8258 308.403 30.3542L308.94 29.5105ZM301.786 25.3276C300.18 24.391 298.856 23.2769 298.009 21.8647C297.168 20.4629 296.772 18.7274 297.087 16.4954L296.097 16.3556C295.753 18.7905 296.181 20.7612 297.152 22.3792C298.116 23.9869 299.593 25.2063 301.282 26.1914L301.786 25.3276ZM297.09 16.4752C297.141 15.9567 297.243 15.5168 297.381 15.1949L296.462 14.801C296.27 15.2477 296.152 15.7961 296.095 16.3757L297.09 16.4752ZM296.797 15.4821L303.605 17.2391L303.855 16.2708L297.046 14.5138L296.797 15.4821ZM303.267 16.9453C304.102 18.9727 306.148 21.0209 310.202 23.0758L310.654 22.1839C306.692 20.1757 304.895 18.2707 304.192 16.5645L303.267 16.9453ZM310.205 23.0771C312.944 24.4467 316.016 26.1764 318.21 28.2631L318.899 27.5386C316.59 25.3426 313.403 23.5583 310.652 22.1827L310.205 23.0771ZM144.8 87.4768L144.404 87.1714L144.175 87.468L144.395 87.7709L144.8 87.4768ZM153.768 99.8078L153.363 100.102L154.166 101.205L154.266 99.8447L153.768 99.8078ZM152.198 106.246L152.637 106.486L152.789 106.208L152.603 105.951L152.198 106.246ZM142.878 93.4341L143.282 93.14L142.524 92.0969L142.381 93.3789L142.878 93.4341ZM148.259 85.7669C153.765 85.7669 159.065 90.8766 159.065 97.2776H160.065C160.065 90.3546 154.347 84.7669 148.259 84.7669V85.7669ZM159.065 97.2776C159.065 103.616 153.763 108.788 148.259 108.788V109.788C154.349 109.788 160.065 104.135 160.065 97.2776H159.065ZM148.259 108.788C142.756 108.788 137.485 103.618 137.485 97.2776H136.485C136.485 104.133 142.167 109.788 148.259 109.788V108.788ZM137.485 97.2776C137.485 90.8748 142.754 85.7669 148.259 85.7669V84.7669C142.169 84.7669 136.485 90.3565 136.485 97.2776H137.485ZM148.259 85.1832C146.604 85.1832 145.346 85.9503 144.404 87.1714L145.196 87.7822C145.983 86.7613 146.967 86.1832 148.259 86.1832V85.1832ZM144.395 87.7709L153.363 100.102L154.172 99.5137L145.204 87.1827L144.395 87.7709ZM154.266 99.8447C154.331 98.9669 154.364 98.0577 154.364 97.1174H153.364C153.364 98.0348 153.332 98.9192 153.269 99.7709L154.266 99.8447ZM154.364 97.1174C154.364 93.9542 154.003 91.0164 153.083 88.8508C152.621 87.7638 152.008 86.846 151.205 86.1979C150.394 85.5434 149.412 85.1832 148.259 85.1832V86.1832C149.188 86.1832 149.947 86.4676 150.577 86.9762C151.215 87.4911 151.743 88.2548 152.163 89.2417C153.004 91.2238 153.364 94.0031 153.364 97.1174H154.364ZM148.259 109.372C150.255 109.372 151.68 108.228 152.637 106.486L151.76 106.005C150.923 107.53 149.786 108.372 148.259 108.372V109.372ZM152.603 105.951L143.282 93.14L142.474 93.7283L151.794 106.54L152.603 105.951ZM142.381 93.3789C142.251 94.5525 142.186 95.8202 142.186 97.1174H143.186C143.186 95.8524 143.249 94.6218 143.375 93.4894L142.381 93.3789ZM142.186 97.1174C142.186 100.281 142.547 103.295 143.46 105.537C144.376 107.787 145.906 109.372 148.259 109.372V108.372C146.48 108.372 145.224 107.218 144.386 105.16C143.545 103.094 143.186 100.231 143.186 97.1174H142.186ZM178.129 96.9893V96.4893H177.629V96.9893H178.129ZM184.567 96.9893V97.4893H185.488L184.986 96.7167L184.567 96.9893ZM178.609 87.8292L179.029 87.5566L179.023 87.5474L179.016 87.5385L178.609 87.8292ZM177.713 86.7402L177.37 87.1044L177.378 87.1118L177.713 86.7402ZM175.887 86.0035H175.387V86.5035H175.887V86.0035ZM175.887 85.5872V85.0872H175.387V85.5872H175.887ZM194.303 85.5872L194.8 85.5325L194.751 85.0872H194.303V85.5872ZM195.008 91.9929V92.4929H195.566L195.505 91.9382L195.008 91.9929ZM194.528 91.9929L194.049 92.1395L194.158 92.4929H194.528V91.9929ZM183.414 86.0035V85.5035H182.489L182.995 86.2772L183.414 86.0035ZM188.442 93.6904L188.889 93.4668L188.876 93.4409L188.861 93.4166L188.442 93.6904ZM188.57 93.9466L188.123 94.1702L188.582 95.0889L189.022 94.1606L188.57 93.9466ZM188.987 92.5053V92.0053H188.487V92.5053H188.987ZM189.499 92.5053H189.999V92.0053H189.499V92.5053ZM189.499 101.826V102.326H189.999V101.826H189.499ZM188.987 101.826H188.487V102.326H188.987V101.826ZM183.189 97.4377V96.9377H182.689V97.4377H183.189ZM185.431 108.584H185.931V108.142L185.493 108.087L185.431 108.584ZM185.431 109V109.5H185.931V109H185.431ZM175.887 109H175.387V109.5H175.887V109ZM175.887 108.584V108.084H175.387V108.584H175.887ZM178.129 97.4893H184.567V96.4893H178.129V97.4893ZM184.986 96.7167L179.029 87.5566L178.19 88.1017L184.148 97.2619L184.986 96.7167ZM179.016 87.5385C178.701 87.0976 178.415 86.6994 178.047 86.3685L177.378 87.1118C177.651 87.3575 177.877 87.6639 178.202 88.1198L179.016 87.5385ZM178.055 86.3761C177.427 85.785 176.763 85.5035 175.951 85.5035V86.5035C176.484 86.5035 176.909 86.6705 177.37 87.1043L178.055 86.3761ZM175.951 85.5035H175.887V86.5035H175.951V85.5035ZM176.387 86.0035V85.5872H175.387V86.0035H176.387ZM175.887 86.0872H194.303V85.0872H175.887V86.0872ZM193.806 85.6418L194.511 92.0475L195.505 91.9382L194.8 85.5325L193.806 85.6418ZM195.008 91.4929H194.528V92.4929H195.008V91.4929ZM195.006 91.8463C194.599 90.5217 193.42 88.9496 191.991 87.7186C190.566 86.4908 188.779 85.5035 187.097 85.5035V86.5035C188.426 86.5035 189.985 87.3098 191.339 88.4762C192.689 89.6394 193.719 91.0619 194.049 92.1395L195.006 91.8463ZM187.097 85.5035H183.414V86.5035H187.097V85.5035ZM182.995 86.2772L188.024 93.9641L188.861 93.4166L183.832 85.7298L182.995 86.2772ZM187.995 93.914L188.123 94.1702L189.017 93.723L188.889 93.4668L187.995 93.914ZM189.022 94.1606C189.326 93.5199 189.487 92.9303 189.487 92.5053H188.487C188.487 92.7209 188.391 93.1562 188.118 93.7326L189.022 94.1606ZM188.987 93.0053H189.499V92.0053H188.987V93.0053ZM188.999 92.5053V101.826H189.999V92.5053H188.999ZM189.499 101.326H188.987V102.326H189.499V101.326ZM189.487 101.826C189.487 101.298 189.299 100.732 189.009 100.198C188.716 99.6595 188.301 99.1225 187.803 98.6459C186.815 97.7001 185.44 96.9377 183.958 96.9377V97.9377C185.103 97.9377 186.242 98.5365 187.112 99.3684C187.542 99.7805 187.892 100.236 188.131 100.676C188.373 101.122 188.487 101.521 188.487 101.826H189.487ZM183.958 96.9377H183.189V97.9377H183.958V96.9377ZM182.689 97.4377V106.374H183.689V97.4377H182.689ZM182.689 106.374C182.689 107.481 183.23 108.166 183.85 108.561C184.441 108.937 185.09 109.045 185.369 109.08L185.493 108.087C185.26 108.058 184.789 107.974 184.387 107.718C184.013 107.48 183.689 107.092 183.689 106.374H182.689ZM184.931 108.584V109H185.931V108.584H184.931ZM185.431 108.5H175.887V109.5H185.431V108.5ZM176.387 109V108.584H175.387V109H176.387ZM175.887 109.084C176.528 109.084 177.229 108.965 177.773 108.511C178.334 108.042 178.629 107.301 178.629 106.278H177.629C177.629 107.112 177.395 107.524 177.132 107.743C176.851 107.978 176.431 108.084 175.887 108.084V109.084ZM178.629 106.278V96.9893H177.629V106.278H178.629ZM42.6513 149.864V149.364H42.1513V149.864H42.6513ZM57.1465 149.864H57.6465V149.364H57.1465V149.864ZM57.1465 150.577L57.1377 151.077L57.6465 151.086V150.577H57.1465ZM49.9538 157.99L49.4955 157.79L49.4883 157.806L49.4823 157.823L49.9538 157.99ZM37.3254 191.757L36.8573 191.933L37.326 193.181L37.7936 191.932L37.3254 191.757ZM27.7168 166.171L28.1849 165.995L27.7155 164.745L27.2484 165.996L27.7168 166.171ZM18.1632 191.757L17.699 191.943L18.1794 193.143L18.6316 191.932L18.1632 191.757ZM3.17384 154.311L2.70234 154.477L2.70579 154.487L2.70965 154.497L3.17384 154.311ZM0.0991001 150.577H-0.4009V151.077H0.0991001V150.577ZM0.0991001 149.864V149.364H-0.4009V149.864H0.0991001ZM14.3198 149.864H14.8198V149.364H14.3198V149.864ZM14.3198 150.577V151.077H14.8198V150.577H14.3198ZM12.8922 155.519L12.4268 155.702L12.4297 155.709L12.8922 155.519ZM22.2262 178.25L21.7637 178.44L22.2467 179.616L22.6942 178.426L22.2262 178.25ZM27.2227 164.963L27.6907 165.139L27.7573 164.962L27.6898 164.785L27.2227 164.963ZM23.1596 154.311L23.627 154.133L23.622 154.121L23.1596 154.311ZM20.1398 150.577H19.6398V151.077H20.1398V150.577ZM20.1398 149.864V149.364H19.6398V149.864H20.1398ZM34.8546 149.864H35.3546V149.364H34.8546V149.864ZM34.8546 150.742V151.242H35.3546V150.742H34.8546ZM33.2623 155.519L33.7347 155.355L33.7292 155.339L33.7226 155.324L33.2623 155.519ZM41.2786 178.634L40.8062 178.798L41.2618 180.112L41.7472 178.809L41.2786 178.634ZM48.2517 159.911L48.7203 160.086L48.7216 160.082L48.2517 159.911ZM42.6513 150.577H42.1513V151.077H42.6513V150.577ZM42.6513 150.364H57.1465V149.364H42.6513V150.364ZM56.6465 149.864V150.577H57.6465V149.864H56.6465ZM57.1552 150.078C55.3524 150.046 53.7517 151.301 52.4874 152.809C51.2045 154.34 50.166 156.253 49.4955 157.79L50.412 158.19C51.0592 156.707 52.0523 154.886 53.2539 153.452C54.4741 151.996 55.8109 151.054 57.1377 151.077L57.1552 150.078ZM49.4823 157.823C49.3196 158.284 46.1656 166.718 43.0478 175.048C41.4898 179.211 39.9422 183.344 38.784 186.437C38.2049 187.983 37.7232 189.269 37.3863 190.169C37.2178 190.619 37.0855 190.972 36.9954 191.213C36.9503 191.333 36.9157 191.425 36.8924 191.487C36.8808 191.518 36.872 191.542 36.8661 191.558C36.8631 191.566 36.8609 191.572 36.8594 191.576C36.8587 191.578 36.8581 191.579 36.8577 191.58C36.8575 191.581 36.8574 191.581 36.8573 191.581C36.8572 191.581 36.8572 191.582 37.3254 191.757C37.7936 191.932 37.7937 191.932 37.7938 191.932C37.7938 191.932 37.794 191.931 37.7942 191.931C37.7945 191.93 37.7951 191.928 37.7959 191.926C37.7973 191.922 37.7996 191.916 37.8025 191.909C37.8084 191.893 37.8173 191.869 37.8289 191.838C37.8522 191.776 37.8867 191.684 37.9318 191.563C38.022 191.323 38.1543 190.97 38.3227 190.52C38.6597 189.62 39.1414 188.334 39.7205 186.787C40.8787 183.695 42.4263 179.561 43.9843 175.399C47.0983 167.079 50.2585 158.629 50.4253 158.156L49.4823 157.823ZM37.7935 191.581L28.1849 165.995L27.2487 166.347L36.8573 191.933L37.7935 191.581ZM27.2484 165.996L17.6948 191.582L18.6316 191.932L28.1852 166.346L27.2484 165.996ZM18.6274 191.571L3.63803 154.125L2.70965 154.497L17.699 191.943L18.6274 191.571ZM3.17384 154.311C3.64533 154.145 3.64529 154.145 3.64525 154.144C3.64523 154.144 3.64518 154.144 3.64514 154.144C3.64505 154.144 3.64494 154.144 3.64482 154.143C3.64456 154.143 3.64423 154.142 3.64382 154.14C3.64299 154.138 3.64184 154.135 3.64037 154.131C3.63743 154.123 3.63321 154.111 3.62775 154.096C3.61682 154.067 3.60089 154.024 3.58015 153.97C3.53871 153.863 3.47796 153.711 3.39959 153.53C3.24341 153.168 3.01463 152.681 2.72631 152.191C2.44025 151.704 2.08302 151.193 1.66407 150.797C1.2498 150.406 0.720537 150.077 0.0991001 150.077V151.077C0.35616 151.077 0.650484 151.216 0.977448 151.524C1.29972 151.829 1.60138 152.251 1.86437 152.698C2.12511 153.141 2.33558 153.588 2.48138 153.926C2.554 154.094 2.60993 154.234 2.64742 154.331C2.66615 154.379 2.68023 154.417 2.68947 154.442C2.69409 154.455 2.69748 154.464 2.69964 154.47C2.70072 154.473 2.70148 154.475 2.70193 154.476C2.70216 154.477 2.70231 154.477 2.70238 154.478C2.70241 154.478 2.70243 154.478 2.70242 154.478C2.70242 154.478 2.7024 154.478 2.7024 154.478C2.70237 154.478 2.70234 154.477 3.17384 154.311ZM0.5991 150.577V149.864H-0.4009V150.577H0.5991ZM0.0991001 150.364H14.3198V149.364H0.0991001V150.364ZM13.8198 149.864V150.577H14.8198V149.864H13.8198ZM14.3198 150.077C13.7687 150.077 13.2652 150.216 12.8508 150.509C12.4351 150.803 12.1429 151.228 11.9771 151.742C11.6514 152.751 11.8041 154.117 12.4268 155.702L13.3576 155.336C12.7724 153.847 12.7054 152.741 12.9288 152.049C13.0375 151.712 13.2121 151.478 13.4278 151.326C13.6448 151.172 13.9374 151.077 14.3198 151.077V150.077ZM12.4297 155.709L21.7637 178.44L22.6888 178.06L13.3547 155.329L12.4297 155.709ZM22.6942 178.426L27.6907 165.139L26.7547 164.787L21.7582 178.074L22.6942 178.426ZM27.6898 164.785L23.6268 154.133L22.6925 154.489L26.7555 165.141L27.6898 164.785ZM23.1596 154.311C23.622 154.121 23.6219 154.121 23.6219 154.121C23.6219 154.12 23.6218 154.12 23.6218 154.12C23.6217 154.12 23.6216 154.12 23.6214 154.119C23.6212 154.119 23.6208 154.118 23.6203 154.117C23.6194 154.115 23.6181 154.111 23.6165 154.107C23.6132 154.1 23.6084 154.088 23.6022 154.074C23.5898 154.044 23.5717 154.002 23.5483 153.949C23.5016 153.843 23.4336 153.692 23.3474 153.512C23.1755 153.153 22.9289 152.67 22.6324 152.184C22.3383 151.702 21.9829 151.197 21.5893 150.806C21.2106 150.43 20.714 150.077 20.1398 150.077V151.077C20.3068 151.077 20.5584 151.192 20.8848 151.516C21.1964 151.825 21.5033 152.253 21.7788 152.705C22.052 153.152 22.2824 153.603 22.4451 153.943C22.5262 154.113 22.5899 154.254 22.633 154.352C22.6546 154.401 22.671 154.439 22.6818 154.465C22.6873 154.477 22.6913 154.487 22.6939 154.493C22.6952 154.496 22.6961 154.499 22.6967 154.5C22.697 154.501 22.6972 154.501 22.6973 154.501C22.6973 154.502 22.6973 154.502 22.6973 154.502C22.6973 154.502 22.6973 154.502 22.6973 154.502C22.6973 154.502 22.6973 154.501 23.1596 154.311ZM20.6398 150.577V149.864H19.6398V150.577H20.6398ZM20.1398 150.364H34.8546V149.364H20.1398V150.364ZM34.3546 149.864V150.742H35.3546V149.864H34.3546ZM34.8546 150.242C33.9512 150.242 33.253 150.441 32.764 150.85C32.266 151.267 32.0607 151.836 32.0158 152.412C31.9295 153.518 32.4224 154.819 32.802 155.714L33.7226 155.324C33.3336 154.407 32.948 153.32 33.0127 152.49C33.0433 152.098 33.1708 151.814 33.4055 151.617C33.6492 151.414 34.0834 151.242 34.8546 151.242V150.242ZM32.7899 155.683L40.8062 178.798L41.751 178.471L33.7347 155.355L32.7899 155.683ZM41.7472 178.809L48.7202 160.086L47.7831 159.737L40.8101 178.46L41.7472 178.809ZM48.7216 160.082C49.7784 157.176 48.9807 154.663 47.5721 152.895C46.8716 152.015 46.0183 151.316 45.1607 150.835C44.3096 150.358 43.4219 150.077 42.6513 150.077V151.077C43.1984 151.077 43.9167 151.284 44.6715 151.708C45.42 152.127 46.1727 152.743 46.7899 153.518C48.0169 155.058 48.7015 157.211 47.7818 159.741L48.7216 160.082ZM43.1513 150.577V149.864H42.1513V150.577H43.1513ZM133.843 150.577V151.077H134.343V150.577H133.843ZM133.843 189.286H134.343V188.786H133.843V189.286ZM133.843 190V190.5H134.343V190H133.843ZM117.481 190H116.981V190.5H117.481V190ZM117.481 189.286V188.786H116.981V189.286H117.481ZM121.324 170.289H121.824V169.789H121.324V170.289ZM105.896 170.289V169.789H105.396V170.289H105.896ZM109.739 189.286H110.239V188.786H109.739V189.286ZM109.739 190V190.5H110.239V190H109.739ZM93.3771 190H92.8771V190.5H93.3771V190ZM93.3771 189.286V188.786H92.8771V189.286H93.3771ZM93.3771 150.577H92.8771V151.077H93.3771V150.577ZM93.3771 149.864V149.364H92.8771V149.864H93.3771ZM109.739 149.864H110.239V149.364H109.739V149.864ZM109.739 150.577V151.077H110.239V150.577H109.739ZM105.896 169.52H105.396V170.02H105.896V169.52ZM121.324 169.52V170.02H121.824V169.52H121.324ZM117.481 150.577H116.981V151.077H117.481V150.577ZM117.481 149.864V149.364H116.981V149.864H117.481ZM133.843 149.864H134.343V149.364H133.843V149.864ZM133.843 150.077C132.68 150.077 131.555 150.208 130.736 150.894C129.895 151.597 129.499 152.77 129.499 154.531H130.499C130.499 152.887 130.873 152.083 131.377 151.661C131.903 151.221 132.7 151.077 133.843 151.077V150.077ZM129.499 154.531V185.333H130.499V154.531H129.499ZM129.499 185.333C129.499 187.108 129.944 188.277 130.803 188.974C131.639 189.653 132.754 189.786 133.843 189.786V188.786C132.79 188.786 131.984 188.645 131.433 188.198C130.906 187.77 130.499 186.962 130.499 185.333H129.499ZM133.343 189.286V190H134.343V189.286H133.343ZM133.843 189.5H117.481V190.5H133.843V189.5ZM117.981 190V189.286H116.981V190H117.981ZM117.481 189.786C118.57 189.786 119.685 189.653 120.521 188.974C121.38 188.277 121.824 187.108 121.824 185.333H120.824C120.824 186.962 120.418 187.77 119.89 188.198C119.34 188.645 118.534 188.786 117.481 188.786V189.786ZM121.824 185.333V170.289H120.824V185.333H121.824ZM121.324 169.789H105.896V170.789H121.324V169.789ZM105.396 170.289V185.333H106.396V170.289H105.396ZM105.396 185.333C105.396 187.108 105.84 188.277 106.699 188.974C107.535 189.653 108.65 189.786 109.739 189.786V188.786C108.686 188.786 107.88 188.645 107.33 188.198C106.802 187.77 106.396 186.962 106.396 185.333H105.396ZM109.239 189.286V190H110.239V189.286H109.239ZM109.739 189.5H93.3771V190.5H109.739V189.5ZM93.8771 190V189.286H92.8771V190H93.8771ZM93.3771 189.786C94.4658 189.786 95.581 189.653 96.417 188.974C97.2762 188.277 97.7206 187.108 97.7206 185.333H96.7206C96.7206 186.962 96.3139 187.77 95.7867 188.198C95.2364 188.645 94.4298 188.786 93.3771 188.786V189.786ZM97.7206 185.333V154.531H96.7206V185.333H97.7206ZM97.7206 154.531C97.7206 152.731 97.2777 151.559 96.4147 150.867C95.5768 150.195 94.4592 150.077 93.3771 150.077V151.077C94.4364 151.077 95.2405 151.207 95.789 151.647C96.3124 152.067 96.7206 152.871 96.7206 154.531H97.7206ZM93.8771 150.577V149.864H92.8771V150.577H93.8771ZM93.3771 150.364H109.739V149.364H93.3771V150.364ZM109.239 149.864V150.577H110.239V149.864H109.239ZM109.739 150.077C108.576 150.077 107.452 150.208 106.632 150.894C105.791 151.597 105.396 152.77 105.396 154.531H106.396C106.396 152.887 106.769 152.083 107.274 151.661C107.799 151.221 108.596 151.077 109.739 151.077V150.077ZM105.396 154.531V169.52H106.396V154.531H105.396ZM105.896 170.02H121.324V169.02H105.896V170.02ZM121.824 169.52V154.531H120.824V169.52H121.824ZM121.824 154.531C121.824 152.731 121.381 151.559 120.518 150.867C119.681 150.195 118.563 150.077 117.481 150.077V151.077C118.54 151.077 119.344 151.207 119.893 151.647C120.416 152.067 120.824 152.871 120.824 154.531H121.824ZM117.981 150.577V149.864H116.981V150.577H117.981ZM117.481 150.364H133.843V149.364H117.481V150.364ZM133.343 149.864V150.577H134.343V149.864H133.343ZM186.985 189.286H187.485V188.786H186.985V189.286ZM186.985 190V190.5H187.485V190H186.985ZM170.623 190H170.123V190.5H170.623V190ZM170.623 189.286V188.786H170.123V189.286H170.623ZM170.623 150.577H170.123V151.077H170.623V150.577ZM170.623 149.864V149.364H170.123V149.864H170.623ZM186.985 149.864H187.485V149.364H186.985V149.864ZM186.985 150.577V151.077H187.485V150.577H186.985ZM182.642 154.531V185.333H183.642V154.531H182.642ZM182.642 185.333C182.642 187.108 183.086 188.277 183.945 188.974C184.781 189.653 185.896 189.786 186.985 189.786V188.786C185.932 188.786 185.126 188.645 184.575 188.198C184.048 187.77 183.642 186.962 183.642 185.333H182.642ZM186.485 189.286V190H187.485V189.286H186.485ZM186.985 189.5H170.623V190.5H186.985V189.5ZM171.123 190V189.286H170.123V190H171.123ZM170.623 189.786C171.712 189.786 172.827 189.653 173.663 188.974C174.522 188.277 174.966 187.108 174.966 185.333H173.966C173.966 186.962 173.56 187.77 173.033 188.198C172.482 188.645 171.676 188.786 170.623 188.786V189.786ZM174.966 185.333V154.531H173.966V185.333H174.966ZM174.966 154.531C174.966 152.731 174.524 151.559 173.661 150.867C172.823 150.195 171.705 150.077 170.623 150.077V151.077C171.682 151.077 172.486 151.207 173.035 151.647C173.558 152.067 173.966 152.871 173.966 154.531H174.966ZM171.123 150.577V149.864H170.123V150.577H171.123ZM170.623 150.364H186.985V149.364H170.623V150.364ZM186.485 149.864V150.577H187.485V149.864H186.485ZM186.985 150.077C185.822 150.077 184.698 150.208 183.878 150.894C183.037 151.597 182.642 152.77 182.642 154.531H183.642C183.642 152.887 184.015 152.083 184.519 151.661C185.045 151.221 185.842 151.077 186.985 151.077V150.077ZM260.526 149.864L261.025 149.825L260.989 149.364H260.526V149.864ZM261.514 162.657V163.157H262.055L262.013 162.618L261.514 162.657ZM260.361 162.657L259.863 162.696L259.899 163.157H260.361V162.657ZM247.019 150.577V150.077H246.519V150.577H247.019ZM251.192 189.286H251.692V188.786H251.192V189.286ZM251.192 190V190.5H251.692V190H251.192ZM234.116 190H233.616V190.5H234.116V190ZM234.116 189.286V188.786H233.616V189.286H234.116ZM238.344 150.577H238.844V150.077H238.344V150.577ZM225.002 162.657V163.157H225.426L225.495 162.738L225.002 162.657ZM223.794 162.657L223.295 162.618L223.254 163.157H223.794V162.657ZM224.782 149.864V149.364H224.319L224.284 149.825L224.782 149.864ZM260.028 149.902L261.016 162.695L262.013 162.618L261.025 149.825L260.028 149.902ZM261.514 162.157H260.361V163.157H261.514V162.157ZM260.86 162.617C260.769 161.469 260.25 160.118 259.469 158.76C258.684 157.393 257.614 155.981 256.376 154.704C253.924 152.176 250.712 150.077 247.678 150.077V151.077C250.299 151.077 253.265 152.932 255.658 155.4C256.843 156.622 257.862 157.969 258.602 159.258C259.348 160.556 259.789 161.758 259.863 162.696L260.86 162.617ZM247.678 150.077H247.019V151.077H247.678V150.077ZM246.519 150.577V185.333H247.519V150.577H246.519ZM246.519 185.333C246.519 187.138 247.063 188.305 248.009 188.991C248.919 189.652 250.1 189.786 251.192 189.786V188.786C250.142 188.786 249.237 188.646 248.596 188.181C247.991 187.742 247.519 186.932 247.519 185.333H246.519ZM250.692 189.286V190H251.692V189.286H250.692ZM251.192 189.5H234.116V190.5H251.192V189.5ZM234.616 190V189.286H233.616V190H234.616ZM234.116 189.786C235.208 189.786 236.401 189.651 237.323 188.993C238.283 188.309 238.844 187.142 238.844 185.333H237.844C237.844 186.928 237.362 187.738 236.743 188.179C236.087 188.647 235.166 188.786 234.116 188.786V189.786ZM238.844 185.333V150.577H237.844V185.333H238.844ZM238.344 150.077H237.136V151.077H238.344V150.077ZM237.136 150.077C233.921 150.077 230.911 152.318 228.673 154.911C226.429 157.51 224.831 160.612 224.508 162.576L225.495 162.738C225.777 161.023 227.253 158.086 229.43 155.564C231.611 153.037 234.367 151.077 237.136 151.077V150.077ZM225.002 162.157H223.794V163.157H225.002V162.157ZM224.292 162.695L225.281 149.902L224.284 149.825L223.295 162.618L224.292 162.695ZM224.782 150.364H260.526V149.364H224.782V150.364ZM331.084 177.701V177.201H330.722L330.609 177.545L331.084 177.701ZM331.908 177.701L332.407 177.734L332.442 177.201H331.908V177.701ZM331.084 190V190.5H331.552L331.583 190.033L331.084 190ZM298.305 190H297.805V190.5H298.305V190ZM298.305 189.286V188.786H297.805V189.286H298.305ZM302.149 169.41V168.91H301.649V169.41H302.149ZM313.185 169.41V169.91H314.106L313.604 169.138L313.185 169.41ZM302.972 153.707L303.391 153.435L303.385 153.425L303.379 153.417L302.972 153.707ZM301.435 151.84L301.092 152.204L301.1 152.212L301.435 151.84ZM298.305 150.577H297.805V151.077H298.305V150.577ZM298.305 149.864V149.364H297.805V149.864H298.305ZM329.876 149.864L330.373 149.809L330.324 149.364H329.876V149.864ZM331.084 160.845V161.345H331.642L331.581 160.79L331.084 160.845ZM330.261 160.845L329.783 160.992L329.891 161.345H330.261V160.845ZM311.208 150.577V150.077H310.284L310.79 150.851L311.208 150.577ZM319.828 163.755L320.276 163.531L320.263 163.505L320.247 163.481L319.828 163.755ZM320.048 164.194L319.601 164.418L320.06 165.337L320.5 164.408L320.048 164.194ZM320.762 161.723V161.223H320.262V161.723H320.762ZM321.64 161.723H322.14V161.223H321.64V161.723ZM321.64 177.701V178.201H322.14V177.701H321.64ZM320.762 177.701H320.262V178.201H320.762V177.701ZM310.824 170.179V169.679H310.324V170.179H310.824ZM331.084 178.201H331.908V177.201H331.084V178.201ZM331.409 177.668L330.585 189.967L331.583 190.033L332.407 177.734L331.409 177.668ZM331.084 189.5H298.305V190.5H331.084V189.5ZM298.805 190V189.286H297.805V190H298.805ZM298.305 189.786C299.37 189.786 300.471 189.588 301.309 188.888C302.165 188.173 302.649 187.02 302.649 185.333H301.649C301.649 186.83 301.226 187.654 300.668 188.12C300.093 188.601 299.272 188.786 298.305 188.786V189.786ZM302.649 185.333V169.41H301.649V185.333H302.649ZM302.149 169.91H313.185V168.91H302.149V169.91ZM313.604 169.138L303.391 153.435L302.553 153.98L312.766 169.683L313.604 169.138ZM303.379 153.417C302.835 152.655 302.366 152.005 301.769 151.469L301.1 152.212C301.602 152.663 302.011 153.222 302.565 153.998L303.379 153.417ZM301.778 151.476C300.761 150.519 299.708 150.077 298.415 150.077V151.077C299.429 151.077 300.242 151.405 301.092 152.204L301.778 151.476ZM298.415 150.077H298.305V151.077H298.415V150.077ZM298.805 150.577V149.864H297.805V150.577H298.805ZM298.305 150.364H329.876V149.364H298.305V150.364ZM329.379 149.918L330.587 160.9L331.581 160.79L330.373 149.809L329.379 149.918ZM331.084 160.345H330.261V161.345H331.084V160.345ZM330.739 160.698C330.069 158.516 328.101 155.874 325.68 153.788C323.263 151.705 320.28 150.077 317.522 150.077V151.077C319.926 151.077 322.681 152.524 325.027 154.546C327.369 156.564 329.189 159.056 329.783 160.992L330.739 160.698ZM317.522 150.077H311.208V151.077H317.522V150.077ZM310.79 150.851L319.41 164.029L320.247 163.481L311.627 150.304L310.79 150.851ZM319.381 163.979L319.601 164.418L320.495 163.971L320.276 163.531L319.381 163.979ZM320.5 164.408C321.009 163.333 321.262 162.377 321.262 161.723H320.262C320.262 162.168 320.075 162.969 319.596 163.98L320.5 164.408ZM320.762 162.223H321.64V161.223H320.762V162.223ZM321.14 161.723V177.701H322.14V161.723H321.14ZM321.64 177.201H320.762V178.201H321.64V177.201ZM321.262 177.701C321.262 176.876 320.967 175.965 320.487 175.082C320.004 174.194 319.316 173.302 318.486 172.508C316.834 170.927 314.561 169.679 312.142 169.679V170.679C314.224 170.679 316.262 171.764 317.794 173.231C318.557 173.96 319.179 174.771 319.609 175.56C320.041 176.355 320.262 177.099 320.262 177.701H321.262ZM312.142 169.679H310.824V170.679H312.142V169.679ZM310.324 170.179V185.498H311.324V170.179H310.324ZM310.324 185.498C310.324 186.502 310.604 187.295 311.046 187.91C311.484 188.52 312.062 188.928 312.623 189.201C313.731 189.74 314.844 189.786 314.942 189.786V188.786C314.948 188.786 314.707 188.779 314.343 188.712C313.981 188.645 313.516 188.523 313.06 188.301C312.605 188.08 312.175 187.767 311.858 187.327C311.545 186.891 311.324 186.305 311.324 185.498H310.324ZM314.942 189.786H318.511V188.786H314.942V189.786ZM318.511 189.786C322.498 189.786 325.481 187.657 327.59 185.132C329.696 182.611 330.971 179.651 331.559 177.857L330.609 177.545C330.045 179.265 328.821 182.098 326.823 184.491C324.828 186.88 322.101 188.786 318.511 188.786V189.786Z" fill="black"/>
</g>
</svg>
