<svg width="872" height="46" viewBox="0 0 872 46" fill="none" xmlns="http://www.w3.org/2000/svg">
<g style="mix-blend-mode:hard-light">
<path d="M37.6449 2.8637L38.6332 15.6568H37.4802C37.1508 11.4839 30.4522 3.57747 24.7969 3.57747H24.138V38.333C24.138 41.7372 26.1695 42.2862 28.3109 42.2862V43H11.2351V42.2862C13.3764 42.2862 15.4629 41.7372 15.4629 38.333V3.57747H14.2549C8.27018 3.57747 2.72467 11.9781 2.12071 15.6568H0.912775L1.90108 2.8637H37.6449ZM116.274 41.9568C116.768 42.0666 118.031 42.2862 118.141 42.2862V43C112.431 43.0549 103.975 43 103.975 43C101.01 39.3213 96.6727 32.5129 93.2686 26.9125L91.1821 23.7829H88.0525V38.3879C88.0525 41.7921 89.8644 42.2862 92.0057 42.2862V43H75.6437V42.2862C77.7851 42.2313 79.4872 41.7921 79.4872 38.3879V23.0691H90.7429L79.8715 6.37768C78.5537 4.29125 77.0713 3.57747 75.4241 3.57747V2.8637H92.7744C97.4414 2.8637 108.423 3.08332 108.423 13.1311C108.478 18.457 104.03 21.367 100.351 22.4651L105.073 29.2735C105.073 29.2735 112.87 41.0234 116.274 41.9568ZM98.6494 13.0213C98.6494 6.15806 96.0139 3.52257 92.445 3.52257H88.327L97.9356 18.2923C98.3748 16.9196 98.6494 15.2176 98.6494 13.0213ZM187.701 30.7011H188.525L187.701 43H154.922V42.2862C156.954 42.2862 158.765 41.5175 158.765 38.333V22.4102H169.802L159.589 6.70712C159.04 5.93844 158.601 5.33447 158.052 4.84031C157.118 3.96182 156.185 3.57747 155.032 3.57747H154.922V2.8637H186.493L187.701 13.8449H186.877C185.614 9.72695 179.3 3.57747 174.139 3.57747H167.825L176.445 16.7549L176.665 17.1942C177.159 16.151 177.379 15.2725 177.379 14.7234H178.257V30.7011H177.379C177.379 27.8459 173.261 23.1789 168.758 23.1789H167.441V38.4977C167.441 42.1215 171.449 42.2862 171.559 42.2862H175.127C182.704 42.2862 186.548 34.215 187.701 30.7011ZM258.084 30.7011H258.907L258.084 43H225.305V42.2862C227.336 42.2862 229.148 41.5175 229.148 38.333V22.4102H240.184L229.972 6.70712C229.423 5.93844 228.983 5.33447 228.434 4.84031C227.501 3.96182 226.568 3.57747 225.414 3.57747H225.305V2.8637H256.876L258.084 13.8449H257.26C255.997 9.72695 249.683 3.57747 244.522 3.57747H238.208L246.828 16.7549L247.047 17.1942C247.542 16.151 247.761 15.2725 247.761 14.7234H248.64V30.7011H247.761C247.761 27.8459 243.643 23.1789 239.141 23.1789H237.823V38.4977C237.823 42.1215 241.831 42.2862 241.941 42.2862H245.51C253.087 42.2862 256.931 34.215 258.084 30.7011ZM309.304 19.1159C306.01 17.1942 303.704 14.394 304.362 9.78186C304.802 6.5424 307.108 3.24804 313.642 2.36954C322.317 1.21652 328.905 4.78541 328.905 4.78541L327.698 13.5704H327.094C327.478 7.20127 317.211 0.941986 313.038 3.52257C311.006 4.84031 308.261 10.7702 318.199 15.9313C328.137 21.0925 329.509 25.9791 329.509 30.4265L322.262 28.6695C321.219 27.0223 319.407 25.2104 316.442 23.2338C314.026 21.6965 311.445 20.3238 309.304 19.1159ZM317.76 27.9008C322.481 32.5679 323.031 43.1098 311.39 43.8236C303.649 44.2628 296.127 41.6823 296.127 41.6823L297.335 32.7875H297.938C297.664 38.3879 310.073 45.8002 313.532 42.0666C315.124 40.3645 316.552 35.5877 307.876 29.9324C305.461 28.395 302.88 26.9674 300.739 25.7595C297.444 23.8378 295.138 21.0925 295.797 16.4255C295.852 15.8764 295.962 15.3823 296.127 14.9979L302.935 16.7549C303.704 18.6217 305.625 20.5983 309.633 22.6299C312.379 24.0025 315.508 25.7595 317.76 27.9008ZM425.55 19.2669C431.347 19.2669 436.856 24.6156 436.856 31.2776C436.856 37.8754 431.347 43.2883 425.55 43.2883C419.752 43.2883 414.276 37.8754 414.276 31.2776C414.276 24.6156 419.752 19.2669 425.55 19.2669ZM425.55 19.6832C424.076 19.6832 422.955 20.3558 422.091 21.4768L431.058 33.8078C431.123 32.943 431.155 32.0462 431.155 31.1174C431.155 24.8398 429.713 19.6832 425.55 19.6832ZM425.55 42.8719C427.311 42.8719 428.592 41.879 429.489 40.2455L420.169 27.4341C420.041 28.5872 419.977 29.8363 419.977 31.1174C419.977 37.395 421.418 42.8719 425.55 42.8719ZM455.42 30.9893H461.857L455.9 21.8292C455.58 21.3808 455.324 21.0284 455.003 20.7402C454.459 20.2277 453.914 20.0035 453.242 20.0035H453.178V19.5872H471.594L472.299 25.9929H471.818C471.082 23.5907 467.398 20.0035 464.388 20.0035H460.704L465.733 27.6904L465.861 27.9466C466.149 27.3381 466.277 26.8256 466.277 26.5053H466.79V35.8256H466.277C466.277 34.1601 463.875 31.4377 461.249 31.4377H460.48V40.3737C460.48 42.1993 462.21 42.5196 462.722 42.5836V43H453.178V42.5836C454.363 42.5836 455.42 42.1352 455.42 40.2776V30.9893ZM581.838 2.8637H596.333V3.57747C593.203 3.52257 590.458 7.96996 589.14 10.9898C588.811 11.9232 576.512 44.757 576.512 44.757L566.903 19.1708L557.349 44.757L542.36 7.31108C542.36 7.31108 541.042 3.57747 539.285 3.57747V2.8637H553.506V3.57747C551.639 3.57747 550.871 5.44428 552.078 8.51902L561.412 31.2501L566.409 17.9629L562.346 7.31108C562.346 7.31108 560.809 3.57747 559.326 3.57747V2.8637H574.041V3.74219C570.692 3.74219 571.68 6.70712 572.449 8.51902L580.465 31.6345L587.438 12.9115C589.415 7.4758 584.473 3.57747 581.838 3.57747V2.8637ZM673.029 3.57747C670.723 3.57747 669.186 4.12654 669.186 7.53071V38.333C669.186 41.7372 670.888 42.2862 673.029 42.2862V43H656.667V42.2862C658.809 42.2862 660.511 41.7372 660.511 38.333V23.2887H645.082V38.333C645.082 41.7372 646.784 42.2862 648.925 42.2862V43H632.563V42.2862C634.705 42.2862 636.407 41.7372 636.407 38.333V7.53071C636.407 4.07163 634.705 3.57747 632.563 3.57747V2.8637H648.925V3.57747C646.619 3.57747 645.082 4.12654 645.082 7.53071V22.5201H660.511V7.53071C660.511 4.07163 658.809 3.57747 656.667 3.57747V2.8637H673.029V3.57747ZM722.328 7.53071V38.333C722.328 41.7372 724.03 42.2862 726.171 42.2862V43H709.809V42.2862C711.951 42.2862 713.653 41.7372 713.653 38.333V7.53071C713.653 4.07163 711.951 3.57747 709.809 3.57747V2.8637H726.171V3.57747C723.865 3.57747 722.328 4.12654 722.328 7.53071ZM799.712 2.8637L800.701 15.6568H799.548C799.218 11.4839 792.52 3.57747 786.864 3.57747H786.206V38.333C786.206 41.7372 788.237 42.2862 790.378 42.2862V43H773.303V42.2862C775.444 42.2862 777.53 41.7372 777.53 38.333V3.57747H776.322C770.338 3.57747 764.792 11.9781 764.188 15.6568H762.98L763.969 2.8637H799.712ZM870.27 30.7011H871.094L870.27 43H837.492V42.2862C839.523 42.2862 841.335 41.5175 841.335 38.333V22.4102H852.371L842.159 6.70712C841.609 5.93844 841.17 5.33447 840.621 4.84031C839.688 3.96182 838.754 3.57747 837.601 3.57747H837.492V2.8637H869.063L870.27 13.8449H869.447C868.184 9.72695 861.87 3.57747 856.709 3.57747H850.394L859.015 16.7549L859.234 17.1942C859.728 16.151 859.948 15.2725 859.948 14.7234H860.827V30.7011H859.948C859.948 27.8459 855.83 23.1789 851.328 23.1789H850.01V38.4977C850.01 42.1215 854.018 42.2862 854.128 42.2862H857.697C865.274 42.2862 869.117 34.215 870.27 30.7011Z" fill="currentColor"/>
<path d="M37.6449 2.8637L38.1434 2.82519L38.1078 2.3637H37.6449V2.8637ZM38.6332 15.6568V16.1568H39.1733L39.1317 15.6183L38.6332 15.6568ZM37.4802 15.6568L36.9817 15.6962L37.0181 16.1568H37.4802V15.6568ZM24.138 3.57747V3.07747H23.638V3.57747H24.138ZM28.3109 42.2862H28.8109V41.7862H28.3109V42.2862ZM28.3109 43V43.5H28.8109V43H28.3109ZM11.2351 43H10.7351V43.5H11.2351V43ZM11.2351 42.2862V41.7862H10.7351V42.2862H11.2351ZM15.4629 3.57747H15.9629V3.07747H15.4629V3.57747ZM2.12071 15.6568V16.1568H2.54531L2.6141 15.7378L2.12071 15.6568ZM0.912775 15.6568L0.414261 15.6183L0.372659 16.1568H0.912775V15.6568ZM1.90108 2.8637V2.3637H1.43822L1.40257 2.82519L1.90108 2.8637ZM37.1464 2.90221L38.1347 15.6953L39.1317 15.6183L38.1434 2.82519L37.1464 2.90221ZM38.6332 15.1568H37.4802V16.1568H38.6332V15.1568ZM37.9786 15.6174C37.888 14.4694 37.3684 13.1183 36.5883 11.76C35.8033 10.393 34.7325 8.98059 33.4947 7.70423C31.0426 5.17571 27.8309 3.07747 24.7969 3.07747V4.07747C27.4183 4.07747 30.3835 5.93247 32.7768 8.4004C33.9618 9.62227 34.9808 10.9689 35.7211 12.258C36.4664 13.5558 36.9077 14.7578 36.9817 15.6962L37.9786 15.6174ZM24.7969 3.07747H24.138V4.07747H24.7969V3.07747ZM23.638 3.57747V38.333H24.638V3.57747H23.638ZM23.638 38.333C23.638 40.1377 24.1822 41.3046 25.1278 41.9908C26.0382 42.6515 27.2192 42.7862 28.3109 42.7862V41.7862C27.2612 41.7862 26.3558 41.6464 25.7151 41.1815C25.1096 40.7421 24.638 39.9325 24.638 38.333H23.638ZM27.8109 42.2862V43H28.8109V42.2862H27.8109ZM28.3109 42.5H11.2351V43.5H28.3109V42.5ZM11.7351 43V42.2862H10.7351V43H11.7351ZM11.2351 42.7862C12.3272 42.7862 13.5195 42.6513 14.4423 41.9933C15.4018 41.3091 15.9629 40.1425 15.9629 38.333H14.9629C14.9629 39.9277 14.4807 40.7377 13.8617 41.1791C13.206 41.6466 12.2844 41.7862 11.2351 41.7862V42.7862ZM15.9629 38.333V3.57747H14.9629V38.333H15.9629ZM15.4629 3.07747H14.2549V4.07747H15.4629V3.07747ZM14.2549 3.07747C11.0393 3.07747 8.02976 5.31817 5.79155 7.91089C3.54811 10.5097 1.9497 13.6122 1.62731 15.5758L2.6141 15.7378C2.89568 14.0227 4.37201 11.0856 6.54851 8.56435C8.73022 6.03708 11.4858 4.07747 14.2549 4.07747V3.07747ZM2.12071 15.1568H0.912775V16.1568H2.12071V15.1568ZM1.41129 15.6953L2.3996 2.90221L1.40257 2.82519L0.414261 15.6183L1.41129 15.6953ZM1.90108 3.3637H37.6449V2.3637H1.90108V3.3637ZM116.274 41.9568L116.142 42.439L116.154 42.4422L116.166 42.4449L116.274 41.9568ZM118.141 42.2862H118.641V41.7862H118.141V42.2862ZM118.141 43L118.146 43.5L118.641 43.4952V43H118.141ZM103.975 43L103.586 43.3138L103.735 43.4984L103.972 43.5L103.975 43ZM93.2686 26.9125L93.6958 26.6528L93.6904 26.6439L93.6846 26.6352L93.2686 26.9125ZM91.1821 23.7829L91.5982 23.5055L91.4497 23.2829H91.1821V23.7829ZM88.0525 23.7829V23.2829H87.5525V23.7829H88.0525ZM92.0057 42.2862H92.5057V41.7862H92.0057V42.2862ZM92.0057 43V43.5H92.5057V43H92.0057ZM75.6437 43H75.1437V43.5H75.6437V43ZM75.6437 42.2862L75.6309 41.7864L75.1437 41.7989V42.2862H75.6437ZM79.4872 23.0691V22.5691H78.9872V23.0691H79.4872ZM90.7429 23.0691V23.5691H91.6652L91.1619 22.7962L90.7429 23.0691ZM79.8715 6.37768L79.4487 6.6447L79.4525 6.65056L79.8715 6.37768ZM75.4241 3.57747H74.9241V4.07747H75.4241V3.57747ZM75.4241 2.8637V2.3637H74.9241V2.8637H75.4241ZM108.423 13.1311H107.923L107.923 13.1363L108.423 13.1311ZM100.351 22.4651L100.208 21.986L99.5475 22.1833L99.9406 22.7501L100.351 22.4651ZM105.073 29.2735L105.49 28.997L105.484 28.9885L105.073 29.2735ZM88.327 3.52257V3.02257H87.4053L87.9079 3.79523L88.327 3.52257ZM97.9356 18.2923L97.5165 18.5649L98.0908 19.4478L98.4118 18.4447L97.9356 18.2923ZM116.166 42.4449C116.425 42.5024 116.873 42.5864 117.265 42.6552C117.463 42.6898 117.649 42.7212 117.795 42.7441C117.867 42.7555 117.931 42.7651 117.983 42.7721C118.018 42.7768 118.086 42.7862 118.141 42.7862V41.7862C118.168 41.7862 118.173 41.7887 118.117 41.7811C118.076 41.7756 118.019 41.7672 117.95 41.7563C117.813 41.7346 117.632 41.7042 117.438 41.6702C117.048 41.6017 116.618 41.521 116.383 41.4687L116.166 42.4449ZM117.641 42.2862V43H118.641V42.2862H117.641ZM118.136 42.5C115.284 42.5274 111.745 42.5275 108.918 42.5206C107.505 42.5172 106.27 42.512 105.388 42.5077C104.947 42.5056 104.595 42.5037 104.353 42.5023C104.231 42.5016 104.138 42.501 104.075 42.5006C104.043 42.5004 104.019 42.5003 104.003 42.5002C103.995 42.5001 103.989 42.5001 103.985 42.5C103.983 42.5 103.981 42.5 103.98 42.5C103.979 42.5 103.979 42.5 103.979 42.5C103.979 42.5 103.979 42.5 103.979 42.5C103.979 42.5 103.978 42.5 103.975 43C103.972 43.5 103.972 43.5 103.972 43.5C103.972 43.5 103.972 43.5 103.972 43.5C103.973 43.5 103.973 43.5 103.974 43.5C103.975 43.5 103.976 43.5 103.978 43.5C103.982 43.5001 103.988 43.5001 103.997 43.5001C104.013 43.5002 104.037 43.5004 104.069 43.5006C104.132 43.501 104.226 43.5015 104.347 43.5022C104.589 43.5036 104.942 43.5056 105.383 43.5077C106.265 43.512 107.501 43.5172 108.916 43.5206C111.744 43.5275 115.288 43.5275 118.146 43.5L118.136 42.5ZM104.365 42.6862C101.423 39.037 97.1018 32.2562 93.6958 26.6528L92.8413 27.1722C96.2437 32.7697 100.597 39.6056 103.586 43.3138L104.365 42.6862ZM93.6846 26.6352L91.5982 23.5055L90.7661 24.0602L92.8525 27.1899L93.6846 26.6352ZM91.1821 23.2829H88.0525V24.2829H91.1821V23.2829ZM87.5525 23.7829V38.3879H88.5525V23.7829H87.5525ZM87.5525 38.3879C87.5525 40.1727 88.0298 41.3307 88.9231 42.0113C89.7849 42.668 90.9222 42.7862 92.0057 42.7862V41.7862C90.9479 41.7862 90.1086 41.6574 89.5291 41.2159C88.9811 40.7984 88.5525 40.0072 88.5525 38.3879H87.5525ZM91.5057 42.2862V43H92.5057V42.2862H91.5057ZM92.0057 42.5H75.6437V43.5H92.0057V42.5ZM76.1437 43V42.2862H75.1437V43H76.1437ZM75.6565 42.7861C76.7288 42.7586 77.8424 42.6393 78.6765 41.9869C79.5425 41.3095 79.9872 40.1635 79.9872 38.3879H78.9872C78.9872 40.0165 78.5808 40.7922 78.0604 41.1992C77.5081 41.6312 76.7 41.759 75.6309 41.7864L75.6565 42.7861ZM79.9872 38.3879V23.0691H78.9872V38.3879H79.9872ZM79.4872 23.5691H90.7429V22.5691H79.4872V23.5691ZM91.1619 22.7962L80.2905 6.1048L79.4525 6.65056L90.3239 23.342L91.1619 22.7962ZM80.2942 6.11068C79.6042 5.01818 78.8514 4.25403 78.0262 3.76502C77.1973 3.27379 76.3243 3.07747 75.4241 3.07747V4.07747C76.1711 4.07747 76.8629 4.23805 77.5164 4.62531C78.1737 5.0148 78.821 5.65075 79.4487 6.64468L80.2942 6.11068ZM75.9241 3.57747V2.8637H74.9241V3.57747H75.9241ZM75.4241 3.3637H92.7744V2.3637H75.4241V3.3637ZM92.7744 3.3637C95.1134 3.3637 98.9359 3.42286 102.165 4.69471C103.772 5.3274 105.205 6.25059 106.238 7.59272C107.265 8.92894 107.923 10.7162 107.923 13.1311H108.923C108.923 10.5222 108.208 8.51402 107.03 6.98312C105.858 5.45813 104.254 4.44245 102.532 3.76426C99.1041 2.41435 95.1024 2.3637 92.7744 2.3637V3.3637ZM107.923 13.1363C107.974 18.1196 103.816 20.9092 100.208 21.986L100.494 22.9443C104.245 21.8248 108.981 18.7944 108.923 13.126L107.923 13.1363ZM99.9406 22.7501L104.662 29.5584L105.484 28.9885L100.762 22.1802L99.9406 22.7501ZM105.073 29.2735C104.657 29.5499 104.657 29.55 104.657 29.5501C104.657 29.5502 104.657 29.5504 104.657 29.5506C104.657 29.551 104.658 29.5516 104.658 29.5524C104.659 29.5539 104.661 29.5561 104.663 29.559C104.667 29.5648 104.672 29.5735 104.68 29.5848C104.695 29.6074 104.717 29.6409 104.747 29.6844C104.805 29.7715 104.891 29.899 105.002 30.0615C105.223 30.3863 105.542 30.851 105.936 31.4114C106.723 32.5317 107.809 34.0366 109.002 35.572C110.195 37.1056 111.502 38.6788 112.731 39.9314C113.345 40.5576 113.948 41.1112 114.513 41.5415C115.07 41.9661 115.625 42.2971 116.142 42.439L116.406 41.4746C116.073 41.3831 115.639 41.1427 115.119 40.7461C114.605 40.3552 114.04 39.8377 113.445 39.2311C112.255 38.018 110.974 36.4788 109.792 34.9582C108.611 33.4395 107.535 31.9485 106.754 30.8366C106.363 30.2808 106.047 29.8203 105.828 29.4989C105.719 29.3383 105.634 29.2125 105.577 29.127C105.548 29.0842 105.526 29.0516 105.512 29.0297C105.504 29.0187 105.499 29.0105 105.495 29.005C105.493 29.0023 105.492 29.0002 105.491 28.9989C105.491 28.9982 105.49 28.9978 105.49 28.9974C105.49 28.9973 105.49 28.9972 105.49 28.9971C105.49 28.9971 105.49 28.997 105.073 29.2735ZM99.1494 13.0213C99.1494 9.53818 98.4827 7.04148 97.2896 5.40381C96.0782 3.74098 94.3672 3.02257 92.445 3.02257V4.02257C94.0917 4.02257 95.4828 4.6219 96.4814 5.99263C97.4983 7.38852 98.1494 9.64119 98.1494 13.0213H99.1494ZM92.445 3.02257H88.327V4.02257H92.445V3.02257ZM87.9079 3.79523L97.5165 18.5649L98.3547 18.0196L88.7461 3.24991L87.9079 3.79523ZM98.4118 18.4447C98.8696 17.0141 99.1494 15.2594 99.1494 13.0213H98.1494C98.1494 15.1757 97.8801 16.8251 97.4594 18.1399L98.4118 18.4447ZM187.701 30.701V30.201H187.339L187.226 30.5452L187.701 30.701ZM188.525 30.701L189.023 30.7345L189.059 30.201H188.525V30.701ZM187.701 43V43.5H188.169L188.2 43.0334L187.701 43ZM154.922 43H154.422V43.5H154.922V43ZM154.922 42.2862V41.7862H154.422V42.2862H154.922ZM158.765 22.4102V21.9102H158.265V22.4102H158.765ZM169.802 22.4102V22.9102H170.723L170.221 22.1376L169.802 22.4102ZM159.589 6.70712L160.008 6.43452L160.002 6.42538L159.996 6.4165L159.589 6.70712ZM158.052 4.84031L157.709 5.2045L157.717 5.21196L158.052 4.84031ZM154.922 3.57747H154.422V4.07747H154.922V3.57747ZM154.922 2.8637V2.3637H154.422V2.8637H154.922ZM186.493 2.8637L186.99 2.80903L186.941 2.3637H186.493V2.8637ZM187.701 13.8449V14.3449H188.259L188.198 13.7902L187.701 13.8449ZM186.877 13.8449L186.399 13.9915L186.508 14.3449H186.877V13.8449ZM167.825 3.57747V3.07747H166.9L167.407 3.85119L167.825 3.57747ZM176.445 16.7549L176.892 16.5313L176.879 16.5054L176.864 16.4812L176.445 16.7549ZM176.665 17.1942L176.218 17.4178L176.677 18.3365L177.117 17.4082L176.665 17.1942ZM177.379 14.7234V14.2234H176.879V14.7234H177.379ZM178.257 14.7234H178.757V14.2234H178.257V14.7234ZM178.257 30.701V31.201H178.757V30.701H178.257ZM177.379 30.701H176.879V31.201H177.379V30.701ZM167.441 23.1789V22.6789H166.941V23.1789H167.441ZM187.701 31.201H188.525V30.201H187.701V31.201ZM188.026 30.6676L187.202 42.9666L188.2 43.0334L189.023 30.7345L188.026 30.6676ZM187.701 42.5H154.922V43.5H187.701V42.5ZM155.422 43V42.2862H154.422V43H155.422ZM154.922 42.7862C155.986 42.7862 157.088 42.5875 157.926 41.8876C158.782 41.1728 159.265 40.0202 159.265 38.333H158.265C158.265 39.8304 157.843 40.6543 157.285 41.12C156.71 41.6006 155.889 41.7862 154.922 41.7862V42.7862ZM159.265 38.333V22.4102H158.265V38.333H159.265ZM158.765 22.9102H169.802V21.9102H158.765V22.9102ZM170.221 22.1376L160.008 6.43452L159.17 6.97972L169.382 22.6828L170.221 22.1376ZM159.996 6.4165C159.452 5.6553 158.983 5.00544 158.386 4.46867L157.717 5.21196C158.219 5.6635 158.628 6.22157 159.182 6.99774L159.996 6.4165ZM158.394 4.47621C157.377 3.51908 156.324 3.07747 155.032 3.07747V4.07747C156.045 4.07747 156.859 4.40455 157.709 5.20441L158.394 4.47621ZM155.032 3.07747H154.922V4.07747H155.032V3.07747ZM155.422 3.57747V2.8637H154.422V3.57747H155.422ZM154.922 3.3637H186.493V2.3637H154.922V3.3637ZM185.996 2.91837L187.204 13.8996L188.198 13.7902L186.99 2.80903L185.996 2.91837ZM187.701 13.3449H186.877V14.3449H187.701V13.3449ZM187.355 13.6983C186.686 11.5158 184.717 8.87417 182.296 6.78818C179.879 4.70534 176.896 3.07747 174.139 3.07747V4.07747C176.543 4.07747 179.298 5.52434 181.644 7.54574C183.986 9.56396 185.806 12.056 186.399 13.9915L187.355 13.6983ZM174.139 3.07747H167.825V4.07747H174.139V3.07747ZM167.407 3.85119L176.027 17.0286L176.864 16.4812L168.243 3.30375L167.407 3.85119ZM175.998 16.9785L176.218 17.4178L177.112 16.9706L176.892 16.5313L175.998 16.9785ZM177.117 17.4082C177.626 16.3328 177.879 15.3772 177.879 14.7234H176.879C176.879 15.1678 176.692 15.9691 176.213 16.9801L177.117 17.4082ZM177.379 15.2234H178.257V14.2234H177.379V15.2234ZM177.757 14.7234V30.701H178.757V14.7234H177.757ZM178.257 30.201H177.379V31.201H178.257V30.201ZM177.879 30.701C177.879 29.8756 177.584 28.9651 177.104 28.0823C176.621 27.1937 175.932 26.3022 175.103 25.5081C173.451 23.9275 171.178 22.6789 168.758 22.6789V23.6789C170.841 23.6789 172.878 24.7639 174.411 26.2306C175.174 26.9601 175.796 27.7706 176.226 28.5601C176.658 29.3554 176.879 30.0989 176.879 30.701H177.879ZM168.758 22.6789H167.441V23.6789H168.758V22.6789ZM166.941 23.1789V38.4977H167.941V23.1789H166.941ZM166.941 38.4977C166.941 39.5022 167.22 40.2954 167.663 40.9103C168.101 41.5197 168.679 41.9277 169.24 42.2005C170.348 42.7398 171.461 42.7862 171.559 42.7862V41.7862C171.565 41.7862 171.324 41.7793 170.959 41.7121C170.598 41.6455 170.133 41.5229 169.677 41.3013C169.222 41.08 168.791 40.7673 168.475 40.3266C168.162 39.8915 167.941 39.3051 167.941 38.4977H166.941ZM171.559 42.7862H175.127V41.7862H171.559V42.7862ZM175.127 42.7862C179.115 42.7862 182.098 40.6572 184.207 38.1319C186.313 35.6106 187.587 32.651 188.176 30.8569L187.226 30.5452C186.661 32.2651 185.438 35.0981 183.439 37.4909C181.444 39.8796 178.717 41.7862 175.127 41.7862V42.7862ZM258.084 30.701V30.201H257.721L257.608 30.5452L258.084 30.701ZM258.907 30.701L259.406 30.7345L259.442 30.201H258.907V30.701ZM258.084 43V43.5H258.551L258.582 43.0334L258.084 43ZM225.305 43H224.805V43.5H225.305V43ZM225.305 42.2862V41.7862H224.805V42.2862H225.305ZM229.148 22.4102V21.9102H228.648V22.4102H229.148ZM240.184 22.4102V22.9102H241.106L240.603 22.1376L240.184 22.4102ZM229.972 6.70712L230.391 6.43452L230.385 6.42538L230.379 6.4165L229.972 6.70712ZM228.434 4.84031L228.092 5.2045L228.1 5.21196L228.434 4.84031ZM225.305 3.57747H224.805V4.07747H225.305V3.57747ZM225.305 2.8637V2.3637H224.805V2.8637H225.305ZM256.876 2.8637L257.373 2.80903L257.324 2.3637H256.876V2.8637ZM258.084 13.8449V14.3449H258.642L258.581 13.7902L258.084 13.8449ZM257.26 13.8449L256.782 13.9915L256.89 14.3449H257.26V13.8449ZM238.208 3.57747V3.07747H237.283L237.789 3.85119L238.208 3.57747ZM246.828 16.7549L247.275 16.5313L247.262 16.5054L247.246 16.4812L246.828 16.7549ZM247.047 17.1942L246.6 17.4178L247.06 18.3365L247.499 17.4082L247.047 17.1942ZM247.761 14.7234V14.2234H247.261V14.7234H247.761ZM248.64 14.7234H249.14V14.2234H248.64V14.7234ZM248.64 30.701V31.201H249.14V30.701H248.64ZM247.761 30.701H247.261V31.201H247.761V30.701ZM237.823 23.1789V22.6789H237.323V23.1789H237.823ZM258.084 31.201H258.907V30.201H258.084V31.201ZM258.408 30.6676L257.585 42.9666L258.582 43.0334L259.406 30.7345L258.408 30.6676ZM258.084 42.5H225.305V43.5H258.084V42.5ZM225.805 43V42.2862H224.805V43H225.805ZM225.305 42.7862C226.369 42.7862 227.47 42.5875 228.309 41.8876C229.165 41.1728 229.648 40.0202 229.648 38.333H228.648C228.648 39.8304 228.225 40.6543 227.668 41.12C227.092 41.6006 226.272 41.7862 225.305 41.7862V42.7862ZM229.648 38.333V22.4102H228.648V38.333H229.648ZM229.148 22.9102H240.184V21.9102H229.148V22.9102ZM240.603 22.1376L230.391 6.43452L229.553 6.97972L239.765 22.6828L240.603 22.1376ZM230.379 6.4165C229.835 5.6553 229.365 5.00544 228.769 4.46867L228.1 5.21196C228.602 5.6635 229.01 6.22157 229.565 6.99774L230.379 6.4165ZM228.777 4.47621C227.76 3.51908 226.707 3.07747 225.414 3.07747V4.07747C226.428 4.07747 227.242 4.40455 228.092 5.20441L228.777 4.47621ZM225.414 3.07747H225.305V4.07747H225.414V3.07747ZM225.805 3.57747V2.8637H224.805V3.57747H225.805ZM225.305 3.3637H256.876V2.3637H225.305V3.3637ZM256.379 2.91837L257.587 13.8996L258.581 13.7902L257.373 2.80903L256.379 2.91837ZM258.084 13.3449H257.26V14.3449H258.084V13.3449ZM257.738 13.6983C257.069 11.5158 255.1 8.87417 252.679 6.78818C250.262 4.70534 247.279 3.07747 244.522 3.07747V4.07747C246.926 4.07747 249.68 5.52434 252.026 7.54574C254.369 9.56396 256.188 12.056 256.782 13.9915L257.738 13.6983ZM244.522 3.07747H238.208V4.07747H244.522V3.07747ZM237.789 3.85119L246.409 17.0286L247.246 16.4812L238.626 3.30375L237.789 3.85119ZM246.381 16.9785L246.6 17.4178L247.495 16.9706L247.275 16.5313L246.381 16.9785ZM247.499 17.4082C248.009 16.3328 248.261 15.3772 248.261 14.7234H247.261C247.261 15.1678 247.075 15.9691 246.596 16.9801L247.499 17.4082ZM247.761 15.2234H248.64V14.2234H247.761V15.2234ZM248.14 14.7234V30.701H249.14V14.7234H248.14ZM248.64 30.201H247.761V31.201H248.64V30.201ZM248.261 30.701C248.261 29.8756 247.967 28.9651 247.487 28.0823C247.003 27.1937 246.315 26.3022 245.485 25.5081C243.833 23.9275 241.561 22.6789 239.141 22.6789V23.6789C241.223 23.6789 243.261 24.7639 244.794 26.2306C245.556 26.9601 246.179 27.7706 246.608 28.5601C247.041 29.3554 247.261 30.0989 247.261 30.701H248.261ZM239.141 22.6789H237.823V23.6789H239.141V22.6789ZM237.323 23.1789V38.4977H238.323V23.1789H237.323ZM237.323 38.4977C237.323 39.5022 237.603 40.2954 238.045 40.9103C238.483 41.5197 239.061 41.9277 239.622 42.2005C240.731 42.7398 241.844 42.7862 241.941 42.7862V41.7862C241.947 41.7862 241.707 41.7793 241.342 41.7121C240.98 41.6455 240.515 41.5229 240.06 41.3013C239.605 41.08 239.174 40.7673 238.857 40.3266C238.544 39.8915 238.323 39.3051 238.323 38.4977H237.323ZM241.941 42.7862H245.51V41.7862H241.941V42.7862ZM245.51 42.7862C249.497 42.7862 252.48 40.6572 254.59 38.1319C256.695 35.6106 257.97 32.651 258.559 30.8569L257.608 30.5452C257.044 32.2651 255.82 35.0981 253.822 37.4909C251.827 39.8796 249.1 41.7862 245.51 41.7862V42.7862ZM309.304 19.1159L309.052 19.5478L309.058 19.5514L309.304 19.1159ZM304.362 9.78186L304.857 9.85257L304.858 9.84904L304.362 9.78186ZM313.642 2.36954L313.576 1.8739L313.575 1.874L313.642 2.36954ZM328.905 4.78541L329.401 4.85352L329.448 4.51062L329.144 4.34576L328.905 4.78541ZM327.698 13.5704V14.0704H328.134L328.193 13.6385L327.698 13.5704ZM327.094 13.5704L326.594 13.5403L326.562 14.0704H327.094V13.5704ZM313.038 3.52257L312.775 3.09722L312.766 3.10309L313.038 3.52257ZM318.199 15.9313L318.429 15.4876L318.199 15.9313ZM329.509 30.4265L329.392 30.9124L330.009 31.0622V30.4265H329.509ZM322.262 28.6695L321.839 28.9371L321.948 29.1078L322.144 29.1555L322.262 28.6695ZM316.442 23.2338L316.719 22.8177L316.71 22.812L316.442 23.2338ZM317.76 27.9008L318.111 27.5452L318.104 27.5386L317.76 27.9008ZM311.39 43.8236L311.419 44.3228L311.421 44.3227L311.39 43.8236ZM296.127 41.6823L295.631 41.615L295.576 42.0219L295.964 42.1552L296.127 41.6823ZM297.335 32.7875V32.2875H296.898L296.839 32.7202L297.335 32.7875ZM297.938 32.7875L298.438 32.812L298.464 32.2875H297.938V32.7875ZM313.532 42.0666L313.167 41.725L313.165 41.7268L313.532 42.0666ZM307.876 29.9324L308.15 29.5135L308.145 29.5105L307.876 29.9324ZM300.739 25.7595L300.487 26.1914L300.493 26.195L300.739 25.7595ZM295.797 16.4255L296.292 16.4954L296.294 16.4853L296.295 16.4752L295.797 16.4255ZM296.127 14.9979L296.252 14.5138L295.836 14.4066L295.667 14.801L296.127 14.9979ZM302.935 16.7549L303.397 16.5645L303.302 16.3333L303.06 16.2708L302.935 16.7549ZM309.633 22.6299L309.407 23.0759L309.41 23.0771L309.633 22.6299ZM309.556 18.684C307.952 17.7486 306.628 16.6212 305.78 15.2014C304.938 13.7915 304.543 12.0556 304.857 9.85257L303.868 9.71115C303.523 12.1203 303.952 14.0905 304.922 15.7142C305.885 17.3279 307.361 18.5614 309.052 19.5478L309.556 18.684ZM304.858 9.84904C305.064 8.32593 305.706 6.80524 307.056 5.55754C308.409 4.30666 310.514 3.29455 313.708 2.86508L313.575 1.874C310.235 2.32303 307.92 3.39735 306.377 4.82314C304.831 6.25211 304.1 7.99833 303.867 9.71467L304.858 9.84904ZM313.707 2.86518C317.962 2.29965 321.709 2.89192 324.395 3.62733C325.737 3.99483 326.811 4.39734 327.547 4.70673C327.915 4.86138 328.198 4.99264 328.388 5.08442C328.483 5.13031 328.554 5.16632 328.601 5.19043C328.625 5.20249 328.642 5.21157 328.653 5.21742C328.659 5.22035 328.663 5.22247 328.665 5.22375C328.666 5.22439 328.667 5.22482 328.667 5.22504C328.668 5.22515 328.668 5.22521 328.668 5.22521L328.668 5.22517C328.667 5.22512 328.667 5.22505 328.905 4.78541C329.144 4.34576 329.143 4.34567 329.143 4.34556C329.143 4.34551 329.143 4.34539 329.143 4.34528C329.142 4.34506 329.142 4.3448 329.141 4.34447C329.14 4.34383 329.138 4.34297 329.136 4.3419C329.132 4.33976 329.127 4.33678 329.12 4.33299C329.105 4.32541 329.085 4.31459 329.058 4.30079C329.004 4.27319 328.925 4.23364 328.823 4.18419C328.619 4.08531 328.319 3.94675 327.934 3.78484C327.164 3.46109 326.048 3.04344 324.659 2.66285C321.881 1.90208 317.996 1.28641 313.576 1.8739L313.707 2.86518ZM328.41 4.7173L327.202 13.5023L328.193 13.6385L329.401 4.85352L328.41 4.7173ZM327.698 13.0704H327.094V14.0704H327.698V13.0704ZM327.593 13.6005C327.801 10.1484 325.146 6.84842 322.053 4.77504C320.49 3.72693 318.768 2.95773 317.151 2.61883C315.544 2.28214 313.971 2.35736 312.775 3.09732L313.301 3.94782C314.191 3.39749 315.466 3.2874 316.946 3.59757C318.415 3.90553 320.019 4.61537 321.496 5.60564C324.484 7.60904 326.771 10.6232 326.594 13.5403L327.593 13.6005ZM312.766 3.10309C311.594 3.86317 310.306 5.86073 310.634 8.35097C310.966 10.8687 312.923 13.7546 317.968 16.3751L318.429 15.4876C313.537 12.9469 311.898 10.2873 311.625 8.22036C311.349 6.12595 312.45 4.49971 313.31 3.94205L312.766 3.10309ZM317.968 16.3751C322.893 18.9326 325.64 21.3944 327.163 23.7204C328.677 26.0348 329.009 28.262 329.009 30.4265H330.009C330.009 28.1436 329.656 25.7038 327.999 23.1728C326.35 20.6533 323.443 18.0913 318.429 15.4876L317.968 16.3751ZM329.627 29.9406L322.38 28.1836L322.144 29.1555L329.392 30.9124L329.627 29.9406ZM322.684 28.402C321.591 26.676 319.719 24.8178 316.719 22.8178L316.164 23.6499C319.094 25.6031 320.846 27.3687 321.839 28.9371L322.684 28.402ZM316.71 22.812C314.279 21.2651 311.676 19.8801 309.55 18.6804L309.058 19.5514C311.214 20.7676 313.772 22.1278 316.173 23.6557L316.71 22.812ZM317.408 28.2565C319.66 30.4827 320.909 34.1145 320.222 37.2373C319.882 38.7857 319.067 40.2101 317.656 41.2944C316.241 42.3814 314.196 43.1506 311.36 43.3245L311.421 44.3227C314.405 44.1397 316.656 43.3235 318.265 42.0873C319.877 40.8483 320.812 39.2117 321.199 37.4521C321.967 33.9587 320.581 29.986 318.111 27.5452L317.408 28.2565ZM311.362 43.3244C307.551 43.5406 303.781 43.0134 300.957 42.428C299.547 42.1358 298.376 41.83 297.56 41.5977C297.152 41.4816 296.832 41.3839 296.615 41.3155C296.507 41.2813 296.425 41.2544 296.37 41.2363C296.342 41.2272 296.321 41.2203 296.308 41.2158C296.301 41.2135 296.296 41.2118 296.293 41.2107C296.291 41.2102 296.29 41.2098 296.29 41.2095C296.289 41.2094 296.289 41.2094 296.289 41.2093C296.289 41.2093 296.289 41.2093 296.289 41.2093C296.289 41.2093 296.289 41.2093 296.127 41.6823C295.964 42.1552 295.964 42.1552 295.965 42.1553C295.965 42.1553 295.965 42.1554 295.965 42.1554C295.965 42.1556 295.966 42.1557 295.966 42.1559C295.968 42.1563 295.969 42.1568 295.971 42.1575C295.975 42.1589 295.981 42.1609 295.989 42.1635C296.004 42.1687 296.027 42.1763 296.056 42.186C296.115 42.2054 296.202 42.2336 296.314 42.2691C296.539 42.3401 296.868 42.4406 297.286 42.5595C298.122 42.7973 299.316 43.1093 300.754 43.4072C303.626 44.0024 307.489 44.5458 311.419 44.3228L311.362 43.3244ZM296.622 41.7495L297.83 32.8548L296.839 32.7202L295.631 41.615L296.622 41.7495ZM297.335 33.2875H297.938V32.2875H297.335V33.2875ZM297.439 32.763C297.362 34.3451 298.175 35.9795 299.388 37.4439C300.609 38.92 302.29 40.2902 304.079 41.3568C305.866 42.4222 307.794 43.2034 309.52 43.4734C311.228 43.7405 312.865 43.522 313.899 42.4064L313.165 41.7268C312.469 42.478 311.258 42.733 309.675 42.4854C308.11 42.2407 306.304 41.5189 304.591 40.4978C302.88 39.478 301.294 38.1783 300.158 36.8062C299.012 35.4224 298.378 34.0301 298.438 32.812L297.439 32.763ZM313.897 42.4082C314.796 41.4477 315.614 39.6575 315.039 37.3607C314.468 35.0761 312.542 32.3769 308.15 29.5135L307.603 30.3512C311.886 33.1431 313.584 35.66 314.069 37.6032C314.552 39.5341 313.86 40.9835 313.167 41.725L313.897 42.4082ZM308.145 29.5105C305.715 27.9642 303.12 26.5287 300.984 25.324L300.493 26.195C302.64 27.4061 305.206 28.8258 307.608 30.3542L308.145 29.5105ZM300.991 25.3276C299.385 24.391 298.061 23.2769 297.214 21.8647C296.373 20.4629 295.977 18.7274 296.292 16.4954L295.302 16.3556C294.958 18.7905 295.386 20.7612 296.357 22.3792C297.321 23.9869 298.798 25.2063 300.487 26.1914L300.991 25.3276ZM296.295 16.4752C296.347 15.9567 296.448 15.5168 296.586 15.1949L295.667 14.801C295.476 15.2477 295.358 15.7961 295.3 16.3757L296.295 16.4752ZM296.002 15.4821L302.81 17.2391L303.06 16.2708L296.252 14.5138L296.002 15.4821ZM302.473 16.9453C303.307 18.9727 305.353 21.0209 309.407 23.0759L309.86 22.1839C305.898 20.1757 304.1 18.2707 303.397 16.5645L302.473 16.9453ZM309.41 23.0771C312.149 24.4467 315.221 26.1764 317.415 28.2631L318.104 27.5386C315.796 25.3426 312.608 23.5583 309.857 22.1827L309.41 23.0771ZM422.091 21.4768L421.695 21.1714L421.466 21.468L421.686 21.7709L422.091 21.4768ZM431.059 33.8078L430.654 34.1019L431.456 35.205L431.557 33.8448L431.059 33.8078ZM429.489 40.2455L429.927 40.4862L430.08 40.208L429.893 39.9514L429.489 40.2455ZM420.169 27.4341L420.573 27.14L419.814 26.0969L419.672 27.3789L420.169 27.4341ZM425.55 19.7669C431.056 19.7669 436.356 24.8766 436.356 31.2776H437.356C437.356 24.3546 431.638 18.7669 425.55 18.7669V19.7669ZM436.356 31.2776C436.356 37.6162 431.054 42.7883 425.55 42.7883V43.7883C431.639 43.7883 437.356 38.1347 437.356 31.2776H436.356ZM425.55 42.7883C420.047 42.7883 414.776 37.618 414.776 31.2776H413.776C413.776 38.1328 419.458 43.7883 425.55 43.7883V42.7883ZM414.776 31.2776C414.776 24.8748 420.045 19.7669 425.55 19.7669V18.7669C419.46 18.7669 413.776 24.3565 413.776 31.2776H414.776ZM425.55 19.1832C423.895 19.1832 422.637 19.9503 421.695 21.1714L422.486 21.7822C423.274 20.7613 424.258 20.1832 425.55 20.1832V19.1832ZM421.686 21.7709L430.654 34.1019L431.463 33.5137L422.495 21.1828L421.686 21.7709ZM431.557 33.8448C431.622 32.9669 431.655 32.0577 431.655 31.1174H430.655C430.655 32.0348 430.623 32.9192 430.56 33.7709L431.557 33.8448ZM431.655 31.1174C431.655 27.9542 431.293 25.0164 430.374 22.8508C429.912 21.7638 429.299 20.846 428.496 20.1979C427.685 19.5434 426.703 19.1832 425.55 19.1832V20.1832C426.478 20.1832 427.238 20.4676 427.868 20.9762C428.506 21.4911 429.034 22.2548 429.453 23.2417C430.295 25.2238 430.655 28.0031 430.655 31.1174H431.655ZM425.55 43.3719C427.546 43.3719 428.971 42.2279 429.927 40.4862L429.051 40.0049C428.213 41.5301 427.076 42.3719 425.55 42.3719V43.3719ZM429.893 39.9514L420.573 27.14L419.764 27.7283L429.085 40.5397L429.893 39.9514ZM419.672 27.3789C419.541 28.5525 419.477 29.8202 419.477 31.1174H420.477C420.477 29.8524 420.54 28.6218 420.666 27.4894L419.672 27.3789ZM419.477 31.1174C419.477 34.2815 419.838 37.2955 420.751 39.5373C421.666 41.7871 423.196 43.3719 425.55 43.3719V42.3719C423.771 42.3719 422.515 41.2182 421.677 39.1602C420.836 37.0942 420.477 34.2309 420.477 31.1174H419.477ZM455.42 30.9893V30.4893H454.92V30.9893H455.42ZM461.857 30.9893V31.4893H462.779L462.277 30.7167L461.857 30.9893ZM455.9 21.8292L456.319 21.5566L456.313 21.5474L456.307 21.5385L455.9 21.8292ZM455.003 20.7402L454.661 21.1044L454.669 21.1118L455.003 20.7402ZM453.178 20.0035H452.678V20.5035H453.178V20.0035ZM453.178 19.5872V19.0872H452.678V19.5872H453.178ZM471.594 19.5872L472.091 19.5325L472.042 19.0872H471.594V19.5872ZM472.299 25.9929V26.4929H472.857L472.796 25.9382L472.299 25.9929ZM471.818 25.9929L471.34 26.1395L471.449 26.4929H471.818V25.9929ZM460.704 20.0035V19.5035H459.78L460.286 20.2772L460.704 20.0035ZM465.733 27.6904L466.18 27.4668L466.167 27.4409L466.151 27.4167L465.733 27.6904ZM465.861 27.9466L465.414 28.1702L465.873 29.0889L466.313 28.1606L465.861 27.9466ZM466.277 26.5053V26.0053H465.777V26.5053H466.277ZM466.79 26.5053H467.29V26.0053H466.79V26.5053ZM466.79 35.8256V36.3256H467.29V35.8256H466.79ZM466.277 35.8256H465.777V36.3256H466.277V35.8256ZM460.48 31.4377V30.9377H459.98V31.4377H460.48ZM462.722 42.5836H463.222V42.1422L462.784 42.0875L462.722 42.5836ZM462.722 43V43.5H463.222V43H462.722ZM453.178 43H452.678V43.5H453.178V43ZM453.178 42.5836V42.0836H452.678V42.5836H453.178ZM455.42 31.4893H461.857V30.4893H455.42V31.4893ZM462.277 30.7167L456.319 21.5566L455.481 22.1017L461.438 31.2619L462.277 30.7167ZM456.307 21.5385C455.992 21.0976 455.705 20.6994 455.338 20.3685L454.669 21.1118C454.942 21.3575 455.168 21.6639 455.493 22.1198L456.307 21.5385ZM455.346 20.3761C454.718 19.785 454.054 19.5035 453.242 19.5035V20.5035C453.775 20.5035 454.2 20.6705 454.661 21.1043L455.346 20.3761ZM453.242 19.5035H453.178V20.5035H453.242V19.5035ZM453.678 20.0035V19.5872H452.678V20.0035H453.678ZM453.178 20.0872H471.594V19.0872H453.178V20.0872ZM471.097 19.6418L471.802 26.0475L472.796 25.9382L472.091 19.5325L471.097 19.6418ZM472.299 25.4929H471.818V26.4929H472.299V25.4929ZM472.296 25.8463C471.89 24.5217 470.711 22.9496 469.282 21.7186C467.857 20.4908 466.07 19.5035 464.388 19.5035V20.5035C465.716 20.5035 467.276 21.3098 468.629 22.4762C469.979 23.6394 471.01 25.0619 471.34 26.1395L472.296 25.8463ZM464.388 19.5035H460.704V20.5035H464.388V19.5035ZM460.286 20.2772L465.314 27.9641L466.151 27.4167L461.123 19.7298L460.286 20.2772ZM465.286 27.914L465.414 28.1702L466.308 27.723L466.18 27.4668L465.286 27.914ZM466.313 28.1606C466.616 27.5199 466.777 26.9303 466.777 26.5053H465.777C465.777 26.7209 465.682 27.1562 465.409 27.7326L466.313 28.1606ZM466.277 27.0053H466.79V26.0053H466.277V27.0053ZM466.29 26.5053V35.8256H467.29V26.5053H466.29ZM466.79 35.3256H466.277V36.3256H466.79V35.3256ZM466.777 35.8256C466.777 35.2976 466.59 34.7317 466.3 34.1985C466.007 33.6595 465.592 33.1225 465.094 32.6459C464.105 31.7001 462.731 30.9377 461.249 30.9377V31.9377C462.393 31.9377 463.533 32.5365 464.402 33.3684C464.833 33.7805 465.182 34.2364 465.422 34.6763C465.664 35.122 465.777 35.5209 465.777 35.8256H466.777ZM461.249 30.9377H460.48V31.9377H461.249V30.9377ZM459.98 31.4377V40.3737H460.98V31.4377H459.98ZM459.98 40.3737C459.98 41.4811 460.521 42.1664 461.14 42.5609C461.731 42.9374 462.381 43.0448 462.66 43.0798L462.784 42.0875C462.551 42.0584 462.08 41.9736 461.678 41.7175C461.304 41.4795 460.98 41.0918 460.98 40.3737H459.98ZM462.222 42.5836V43H463.222V42.5836H462.222ZM462.722 42.5H453.178V43.5H462.722V42.5ZM453.678 43V42.5836H452.678V43H453.678ZM453.178 43.0836C453.819 43.0836 454.52 42.965 455.064 42.511C455.625 42.0422 455.92 41.3013 455.92 40.2776H454.92C454.92 41.1115 454.686 41.5237 454.423 41.7434C454.142 41.9781 453.722 42.0836 453.178 42.0836V43.0836ZM455.92 40.2776V30.9893H454.92V40.2776H455.92ZM581.838 2.8637V2.3637H581.338V2.8637H581.838ZM596.333 2.8637H596.833V2.3637H596.333V2.8637ZM596.333 3.57747L596.324 4.0774L596.833 4.08632V3.57747H596.333ZM589.14 10.9898L588.682 10.7898L588.675 10.8064L588.669 10.8234L589.14 10.9898ZM576.512 44.757L576.044 44.9328L576.512 46.1808L576.98 44.9324L576.512 44.757ZM566.903 19.1708L567.371 18.995L566.902 17.745L566.435 18.9959L566.903 19.1708ZM557.349 44.757L556.885 44.9428L557.366 46.1429L557.818 44.9319L557.349 44.757ZM542.36 7.31108L541.889 7.4775L541.892 7.48727L541.896 7.4969L542.36 7.31108ZM539.285 3.57747H538.785V4.07747H539.285V3.57747ZM539.285 2.8637V2.3637H538.785V2.8637H539.285ZM553.506 2.8637H554.006V2.3637H553.506V2.8637ZM553.506 3.57747V4.07747H554.006V3.57747H553.506ZM552.078 8.51902L551.613 8.70186L551.616 8.70894L552.078 8.51902ZM561.412 31.2501L560.95 31.44L561.433 32.6163L561.88 31.4261L561.412 31.2501ZM566.409 17.9629L566.877 18.1388L566.944 17.9616L566.876 17.7847L566.409 17.9629ZM562.346 7.31108L562.813 7.13283L562.808 7.12071L562.346 7.31108ZM559.326 3.57747H558.826V4.07747H559.326V3.57747ZM559.326 2.8637V2.3637H558.826V2.8637H559.326ZM574.041 2.8637H574.541V2.3637H574.041V2.8637ZM574.041 3.74219V4.24219H574.541V3.74219H574.041ZM572.449 8.51902L572.921 8.35519L572.915 8.33926L572.909 8.32374L572.449 8.51902ZM580.465 31.6345L579.992 31.7983L580.448 33.1121L580.933 31.809L580.465 31.6345ZM587.438 12.9115L587.906 13.086L587.908 13.0824L587.438 12.9115ZM581.838 3.57747H581.338V4.07747H581.838V3.57747ZM581.838 3.3637H596.333V2.3637H581.838V3.3637ZM595.833 2.8637V3.57747H596.833V2.8637H595.833ZM596.341 3.07755C594.539 3.04592 592.938 4.30066 591.674 5.80947C590.391 7.34047 589.352 9.25318 588.682 10.7898L589.598 11.1898C590.246 9.70657 591.239 7.88567 592.44 6.45174C593.66 4.99562 594.997 4.05412 596.324 4.0774L596.341 3.07755ZM588.669 10.8234C588.506 11.2842 585.352 19.7178 582.234 28.0481C580.676 32.2107 579.128 36.344 577.97 39.4368C577.391 40.9831 576.909 42.2694 576.573 43.169C576.404 43.6188 576.272 43.9719 576.182 44.2126C576.137 44.333 576.102 44.4252 576.079 44.4874C576.067 44.5185 576.058 44.542 576.052 44.5578C576.049 44.5657 576.047 44.5716 576.046 44.5756C576.045 44.5776 576.044 44.5791 576.044 44.5801C576.044 44.5806 576.044 44.581 576.044 44.5812C576.043 44.5815 576.043 44.5816 576.512 44.757C576.98 44.9324 576.98 44.9323 576.98 44.932C576.98 44.9318 576.98 44.9314 576.98 44.9309C576.981 44.9299 576.981 44.9284 576.982 44.9264C576.984 44.9224 576.986 44.9165 576.989 44.9086C576.995 44.8928 577.004 44.8692 577.015 44.8382C577.038 44.776 577.073 44.6838 577.118 44.5634C577.208 44.3227 577.341 43.9695 577.509 43.5197C577.846 42.6201 578.328 41.3339 578.907 39.7875C580.065 36.6947 581.613 32.5613 583.171 28.3987C586.285 20.0788 589.445 11.6288 589.612 11.1562L588.669 10.8234ZM576.98 44.5812L567.371 18.995L566.435 19.3466L576.044 44.9328L576.98 44.5812ZM566.435 18.9959L556.881 44.5821L557.818 44.9319L567.372 19.3457L566.435 18.9959ZM557.814 44.5712L542.824 7.12527L541.896 7.4969L556.885 44.9428L557.814 44.5712ZM542.36 7.31108C542.832 7.14467 542.832 7.14456 542.832 7.14444C542.831 7.14438 542.831 7.14424 542.831 7.14412C542.831 7.14388 542.831 7.14357 542.831 7.14322C542.831 7.14251 542.831 7.14157 542.83 7.14041C542.829 7.13808 542.828 7.13487 542.827 7.13079C542.824 7.12264 542.819 7.11104 542.814 7.09622C542.803 7.06657 542.787 7.02402 542.766 6.97038C542.725 6.86317 542.664 6.71134 542.586 6.52966C542.43 6.16761 542.201 5.68092 541.913 5.19077C541.627 4.70446 541.269 4.19302 540.85 3.79734C540.436 3.40609 539.907 3.07747 539.285 3.07747V4.07747C539.542 4.07747 539.837 4.21556 540.164 4.52436C540.486 4.82873 540.788 5.25069 541.051 5.69779C541.311 6.14104 541.522 6.58776 541.668 6.92575C541.74 7.09411 541.796 7.23396 541.834 7.33093C541.852 7.37939 541.867 7.41704 541.876 7.44209C541.88 7.45461 541.884 7.46398 541.886 7.46996C541.887 7.47294 541.888 7.47508 541.888 7.47635C541.888 7.47698 541.889 7.4774 541.889 7.47759C541.889 7.47769 541.889 7.47773 541.889 7.47771C541.889 7.4777 541.889 7.47765 541.889 7.47764C541.889 7.47758 541.889 7.4775 542.36 7.31108ZM539.785 3.57747V2.8637H538.785V3.57747H539.785ZM539.285 3.3637H553.506V2.3637H539.285V3.3637ZM553.006 2.8637V3.57747H554.006V2.8637H553.006ZM553.506 3.07747C552.955 3.07747 552.451 3.21607 552.037 3.50884C551.621 3.80254 551.329 4.2276 551.163 4.74172C550.838 5.75124 550.99 7.1166 551.613 8.70184L552.544 8.33619C551.959 6.84669 551.892 5.74129 552.115 5.04872C552.224 4.7118 552.398 4.47799 552.614 4.32557C552.831 4.17223 553.124 4.07747 553.506 4.07747V3.07747ZM551.616 8.70894L560.95 31.44L561.875 31.0602L552.541 8.32909L551.616 8.70894ZM561.88 31.4261L566.877 18.1388L565.941 17.7869L560.944 31.0741L561.88 31.4261ZM566.876 17.7847L562.813 7.13289L561.879 7.48928L565.942 18.1411L566.876 17.7847ZM562.346 7.31108C562.808 7.12071 562.808 7.12062 562.808 7.12051C562.808 7.12046 562.808 7.12034 562.808 7.12023C562.808 7.12001 562.808 7.11974 562.808 7.11941C562.807 7.11875 562.807 7.11787 562.807 7.11676C562.806 7.11454 562.804 7.11144 562.803 7.10748C562.799 7.09955 562.795 7.08817 562.788 7.07358C562.776 7.04441 562.758 7.00235 562.735 6.94924C562.688 6.84307 562.62 6.69244 562.534 6.5121C562.362 6.15251 562.115 5.66965 561.819 5.18381C561.525 4.70189 561.169 4.19671 560.776 3.806C560.397 3.43001 559.9 3.07747 559.326 3.07747V4.07747C559.493 4.07747 559.745 4.19164 560.071 4.5157C560.383 4.82504 560.69 5.25326 560.965 5.70475C561.238 6.15232 561.469 6.60286 561.631 6.94332C561.712 7.113 561.776 7.25406 561.819 7.35207C561.841 7.40105 561.857 7.43921 561.868 7.46472C561.874 7.47748 561.878 7.48707 561.88 7.49327C561.881 7.49637 561.882 7.49862 561.883 7.5C561.883 7.50068 561.883 7.50115 561.884 7.5014C561.884 7.50152 561.884 7.50159 561.884 7.5016C561.884 7.5016 561.884 7.50157 561.884 7.50157C561.884 7.50152 561.884 7.50146 562.346 7.31108ZM559.826 3.57747V2.8637H558.826V3.57747H559.826ZM559.326 3.3637H574.041V2.3637H559.326V3.3637ZM573.541 2.8637V3.74219H574.541V2.8637H573.541ZM574.041 3.24219C573.137 3.24219 572.439 3.44138 571.95 3.85018C571.452 4.26654 571.247 4.83639 571.202 5.41225C571.116 6.51814 571.609 7.81948 571.988 8.71429L572.909 8.32374C572.52 7.40666 572.134 6.31958 572.199 5.49003C572.23 5.09818 572.357 4.81355 572.592 4.61737C572.835 4.41363 573.27 4.24219 574.041 4.24219V3.24219ZM571.976 8.68284L579.992 31.7983L580.937 31.4706L572.921 8.35519L571.976 8.68284ZM580.933 31.809L587.906 13.086L586.969 12.737L579.996 31.4599L580.933 31.809ZM587.908 13.0824C588.965 10.176 588.167 7.6626 586.758 5.89454C586.058 5.01526 585.205 4.31642 584.347 3.83543C583.496 3.35805 582.608 3.07747 581.838 3.07747V4.07747C582.385 4.07747 583.103 4.28419 583.858 4.70761C584.606 5.12742 585.359 5.74289 585.976 6.51766C587.203 8.05769 587.888 10.2113 586.968 12.7406L587.908 13.0824ZM582.338 3.57747V2.8637H581.338V3.57747H582.338ZM673.029 3.57747V4.07747H673.529V3.57747H673.029ZM673.029 42.2862H673.529V41.7862H673.029V42.2862ZM673.029 43V43.5H673.529V43H673.029ZM656.667 43H656.167V43.5H656.667V43ZM656.667 42.2862V41.7862H656.167V42.2862H656.667ZM660.511 23.2887H661.011V22.7887H660.511V23.2887ZM645.082 23.2887V22.7887H644.582V23.2887H645.082ZM648.925 42.2862H649.425V41.7862H648.925V42.2862ZM648.925 43V43.5H649.425V43H648.925ZM632.563 43H632.063V43.5H632.563V43ZM632.563 42.2862V41.7862H632.063V42.2862H632.563ZM632.563 3.57747H632.063V4.07747H632.563V3.57747ZM632.563 2.8637V2.3637H632.063V2.8637H632.563ZM648.925 2.8637H649.425V2.3637H648.925V2.8637ZM648.925 3.57747V4.07747H649.425V3.57747H648.925ZM645.082 22.5201H644.582V23.0201H645.082V22.5201ZM660.511 22.5201V23.0201H661.011V22.5201H660.511ZM656.667 3.57747H656.167V4.07747H656.667V3.57747ZM656.667 2.8637V2.3637H656.167V2.8637H656.667ZM673.029 2.8637H673.529V2.3637H673.029V2.8637ZM673.029 3.07747C671.866 3.07747 670.742 3.20798 669.922 3.89406C669.081 4.59738 668.686 5.7704 668.686 7.53071H669.686C669.686 5.88685 670.059 5.08325 670.564 4.661C671.089 4.22149 671.886 4.07747 673.029 4.07747V3.07747ZM668.686 7.53071V38.333H669.686V7.53071H668.686ZM668.686 38.333C668.686 40.1084 669.13 41.2768 669.989 41.9743C670.825 42.6531 671.94 42.7862 673.029 42.7862V41.7862C671.977 41.7862 671.17 41.6448 670.62 41.198C670.092 40.77 669.686 39.9617 669.686 38.333H668.686ZM672.529 42.2862V43H673.529V42.2862H672.529ZM673.029 42.5H656.667V43.5H673.029V42.5ZM657.167 43V42.2862H656.167V43H657.167ZM656.667 42.7862C657.756 42.7862 658.871 42.6531 659.707 41.9743C660.566 41.2768 661.011 40.1084 661.011 38.333H660.011C660.011 39.9617 659.604 40.77 659.077 41.198C658.526 41.6448 657.72 41.7862 656.667 41.7862V42.7862ZM661.011 38.333V23.2887H660.011V38.333H661.011ZM660.511 22.7887H645.082V23.7887H660.511V22.7887ZM644.582 23.2887V38.333H645.582V23.2887H644.582ZM644.582 38.333C644.582 40.1084 645.026 41.2768 645.886 41.9743C646.722 42.6531 647.837 42.7862 648.925 42.7862V41.7862C647.873 41.7862 647.066 41.6448 646.516 41.198C645.989 40.77 645.582 39.9617 645.582 38.333H644.582ZM648.425 42.2862V43H649.425V42.2862H648.425ZM648.925 42.5H632.563V43.5H648.925V42.5ZM633.063 43V42.2862H632.063V43H633.063ZM632.563 42.7862C633.652 42.7862 634.767 42.6531 635.603 41.9743C636.463 41.2768 636.907 40.1084 636.907 38.333H635.907C635.907 39.9617 635.5 40.77 634.973 41.198C634.423 41.6448 633.616 41.7862 632.563 41.7862V42.7862ZM636.907 38.333V7.53071H635.907V38.333H636.907ZM636.907 7.53071C636.907 5.73085 636.464 4.559 635.601 3.86688C634.763 3.19493 633.646 3.07747 632.563 3.07747V4.07747C633.623 4.07747 634.427 4.2071 634.975 4.64699C635.499 5.06672 635.907 5.87149 635.907 7.53071H636.907ZM633.063 3.57747V2.8637H632.063V3.57747H633.063ZM632.563 3.3637H648.925V2.3637H632.563V3.3637ZM648.425 2.8637V3.57747H649.425V2.8637H648.425ZM648.925 3.07747C647.762 3.07747 646.638 3.20798 645.818 3.89406C644.978 4.59738 644.582 5.7704 644.582 7.53071H645.582C645.582 5.88685 645.955 5.08325 646.46 4.661C646.985 4.22149 647.783 4.07747 648.925 4.07747V3.07747ZM644.582 7.53071V22.5201H645.582V7.53071H644.582ZM645.082 23.0201H660.511V22.0201H645.082V23.0201ZM661.011 22.5201V7.53071H660.011V22.5201H661.011ZM661.011 7.53071C661.011 5.73085 660.568 4.559 659.705 3.86688C658.867 3.19493 657.749 3.07747 656.667 3.07747V4.07747C657.726 4.07747 658.531 4.2071 659.079 4.64699C659.602 5.06672 660.011 5.87149 660.011 7.53071H661.011ZM657.167 3.57747V2.8637H656.167V3.57747H657.167ZM656.667 3.3637H673.029V2.3637H656.667V3.3637ZM672.529 2.8637V3.57747H673.529V2.8637H672.529ZM726.171 42.2862H726.671V41.7862H726.171V42.2862ZM726.171 43V43.5H726.671V43H726.171ZM709.809 43H709.309V43.5H709.809V43ZM709.809 42.2862V41.7862H709.309V42.2862H709.809ZM709.809 3.57747H709.309V4.07747H709.809V3.57747ZM709.809 2.8637V2.3637H709.309V2.8637H709.809ZM726.171 2.8637H726.671V2.3637H726.171V2.8637ZM726.171 3.57747V4.07747H726.671V3.57747H726.171ZM721.828 7.53071V38.333H722.828V7.53071H721.828ZM721.828 38.333C721.828 40.1084 722.272 41.2768 723.131 41.9743C723.967 42.6531 725.083 42.7862 726.171 42.7862V41.7862C725.119 41.7862 724.312 41.6448 723.762 41.198C723.235 40.77 722.828 39.9617 722.828 38.333H721.828ZM725.671 42.2862V43H726.671V42.2862H725.671ZM726.171 42.5H709.809V43.5H726.171V42.5ZM710.309 43V42.2862H709.309V43H710.309ZM709.809 42.7862C710.898 42.7862 712.013 42.6531 712.849 41.9743C713.708 41.2768 714.153 40.1084 714.153 38.333H713.153C713.153 39.9617 712.746 40.77 712.219 41.198C711.669 41.6448 710.862 41.7862 709.809 41.7862V42.7862ZM714.153 38.333V7.53071H713.153V38.333H714.153ZM714.153 7.53071C714.153 5.73085 713.71 4.559 712.847 3.86688C712.009 3.19493 710.891 3.07747 709.809 3.07747V4.07747C710.869 4.07747 711.673 4.2071 712.221 4.64699C712.745 5.06672 713.153 5.87149 713.153 7.53071H714.153ZM710.309 3.57747V2.8637H709.309V3.57747H710.309ZM709.809 3.3637H726.171V2.3637H709.809V3.3637ZM725.671 2.8637V3.57747H726.671V2.8637H725.671ZM726.171 3.07747C725.008 3.07747 723.884 3.20798 723.064 3.89406C722.223 4.59738 721.828 5.7704 721.828 7.53071H722.828C722.828 5.88685 723.201 5.08325 723.706 4.661C724.231 4.22149 725.029 4.07747 726.171 4.07747V3.07747ZM799.712 2.8637L800.211 2.82519L800.175 2.3637H799.712V2.8637ZM800.701 15.6568V16.1568H801.241L801.199 15.6183L800.701 15.6568ZM799.548 15.6568L799.049 15.6962L799.086 16.1568H799.548V15.6568ZM786.206 3.57747V3.07747H785.706V3.57747H786.206ZM790.378 42.2862H790.878V41.7862H790.378V42.2862ZM790.378 43V43.5H790.878V43H790.378ZM773.303 43H772.803V43.5H773.303V43ZM773.303 42.2862V41.7862H772.803V42.2862H773.303ZM777.53 3.57747H778.03V3.07747H777.53V3.57747ZM764.188 15.6568V16.1568H764.613L764.682 15.7378L764.188 15.6568ZM762.98 15.6568L762.482 15.6183L762.44 16.1568H762.98V15.6568ZM763.969 2.8637V2.3637H763.506L763.47 2.82519L763.969 2.8637ZM799.214 2.90221L800.202 15.6953L801.199 15.6183L800.211 2.82519L799.214 2.90221ZM800.701 15.1568H799.548V16.1568H800.701V15.1568ZM800.046 15.6174C799.956 14.4694 799.436 13.1183 798.656 11.76C797.871 10.393 796.8 8.98059 795.562 7.70423C793.11 5.17571 789.898 3.07747 786.864 3.07747V4.07747C789.486 4.07747 792.451 5.93247 794.844 8.4004C796.029 9.62227 797.048 10.9689 797.789 12.258C798.534 13.5558 798.975 14.7578 799.049 15.6962L800.046 15.6174ZM786.864 3.07747H786.206V4.07747H786.864V3.07747ZM785.706 3.57747V38.333H786.706V3.57747H785.706ZM785.706 38.333C785.706 40.1377 786.25 41.3046 787.195 41.9908C788.106 42.6515 789.287 42.7862 790.378 42.7862V41.7862C789.329 41.7862 788.423 41.6464 787.783 41.1815C787.177 40.7421 786.706 39.9325 786.706 38.333H785.706ZM789.878 42.2862V43H790.878V42.2862H789.878ZM790.378 42.5H773.303V43.5H790.378V42.5ZM773.803 43V42.2862H772.803V43H773.803ZM773.303 42.7862C774.395 42.7862 775.587 42.6513 776.51 41.9933C777.469 41.3091 778.03 40.1425 778.03 38.333H777.03C777.03 39.9277 776.548 40.7377 775.929 41.1791C775.273 41.6466 774.352 41.7862 773.303 41.7862V42.7862ZM778.03 38.333V3.57747H777.03V38.333H778.03ZM777.53 3.07747H776.322V4.07747H777.53V3.07747ZM776.322 3.07747C773.107 3.07747 770.097 5.31817 767.859 7.91089C765.616 10.5097 764.017 13.6122 763.695 15.5758L764.682 15.7378C764.963 14.0227 766.44 11.0856 768.616 8.56435C770.798 6.03708 773.553 4.07747 776.322 4.07747V3.07747ZM764.188 15.1568H762.98V16.1568H764.188V15.1568ZM763.479 15.6953L764.467 2.90221L763.47 2.82519L762.482 15.6183L763.479 15.6953ZM763.969 3.3637H799.712V2.3637H763.969V3.3637ZM870.27 30.701V30.201H869.908L869.795 30.5452L870.27 30.701ZM871.094 30.701L871.593 30.7345L871.629 30.201H871.094V30.701ZM870.27 43V43.5H870.738L870.769 43.0334L870.27 43ZM837.492 43H836.992V43.5H837.492V43ZM837.492 42.2862V41.7862H836.992V42.2862H837.492ZM841.335 22.4102V21.9102H840.835V22.4102H841.335ZM852.371 22.4102V22.9102H853.293L852.79 22.1376L852.371 22.4102ZM842.159 6.70712L842.578 6.43452L842.572 6.42538L842.565 6.4165L842.159 6.70712ZM840.621 4.84031L840.278 5.2045L840.287 5.21196L840.621 4.84031ZM837.492 3.57747H836.992V4.07747H837.492V3.57747ZM837.492 2.8637V2.3637H836.992V2.8637H837.492ZM869.062 2.8637L869.56 2.80903L869.51 2.3637H869.062V2.8637ZM870.27 13.8449V14.3449H870.828L870.767 13.7902L870.27 13.8449ZM869.447 13.8449L868.969 13.9915L869.077 14.3449H869.447V13.8449ZM850.394 3.57747V3.07747H849.47L849.976 3.85119L850.394 3.57747ZM859.015 16.7549L859.462 16.5313L859.449 16.5054L859.433 16.4812L859.015 16.7549ZM859.234 17.1942L858.787 17.4178L859.246 18.3365L859.686 17.4082L859.234 17.1942ZM859.948 14.7234V14.2234H859.448V14.7234H859.948ZM860.827 14.7234H861.327V14.2234H860.827V14.7234ZM860.827 30.701V31.201H861.327V30.701H860.827ZM859.948 30.701H859.448V31.201H859.948V30.701ZM850.01 23.1789V22.6789H849.51V23.1789H850.01ZM870.27 31.201H871.094V30.201H870.27V31.201ZM870.595 30.6676L869.772 42.9666L870.769 43.0334L871.593 30.7345L870.595 30.6676ZM870.27 42.5H837.492V43.5H870.27V42.5ZM837.992 43V42.2862H836.992V43H837.992ZM837.492 42.7862C838.556 42.7862 839.657 42.5875 840.496 41.8876C841.352 41.1728 841.835 40.0202 841.835 38.333H840.835C840.835 39.8304 840.412 40.6543 839.855 41.12C839.279 41.6006 838.459 41.7862 837.492 41.7862V42.7862ZM841.835 38.333V22.4102H840.835V38.333H841.835ZM841.335 22.9102H852.371V21.9102H841.335V22.9102ZM852.79 22.1376L842.578 6.43452L841.739 6.97972L851.952 22.6828L852.79 22.1376ZM842.565 6.4165C842.022 5.6553 841.552 5.00544 840.956 4.46867L840.287 5.21196C840.788 5.6635 841.197 6.22157 841.752 6.99774L842.565 6.4165ZM840.964 4.47621C839.947 3.51908 838.894 3.07747 837.601 3.07747V4.07747C838.615 4.07747 839.429 4.40455 840.279 5.20441L840.964 4.47621ZM837.601 3.07747H837.492V4.07747H837.601V3.07747ZM837.992 3.57747V2.8637H836.992V3.57747H837.992ZM837.492 3.3637H869.062V2.3637H837.492V3.3637ZM868.565 2.91837L869.773 13.8996L870.767 13.7902L869.56 2.80903L868.565 2.91837ZM870.27 13.3449H869.447V14.3449H870.27V13.3449ZM869.925 13.6983C869.256 11.5158 867.287 8.87417 864.866 6.78818C862.449 4.70534 859.466 3.07747 856.709 3.07747V4.07747C859.113 4.07747 861.867 5.52434 864.213 7.54574C866.555 9.56396 868.375 12.056 868.969 13.9915L869.925 13.6983ZM856.709 3.07747H850.394V4.07747H856.709V3.07747ZM849.976 3.85119L858.596 17.0286L859.433 16.4812L850.813 3.30375L849.976 3.85119ZM858.568 16.9785L858.787 17.4178L859.682 16.9706L859.462 16.5313L858.568 16.9785ZM859.686 17.4082C860.196 16.3328 860.448 15.3772 860.448 14.7234H859.448C859.448 15.1678 859.261 15.9691 858.782 16.9801L859.686 17.4082ZM859.948 15.2234H860.827V14.2234H859.948V15.2234ZM860.327 14.7234V30.701H861.327V14.7234H860.327ZM860.827 30.201H859.948V31.201H860.827V30.201ZM860.448 30.701C860.448 29.8756 860.154 28.9651 859.674 28.0823C859.19 27.1937 858.502 26.3022 857.672 25.5081C856.02 23.9275 853.748 22.6789 851.328 22.6789V23.6789C853.41 23.6789 855.448 24.7639 856.981 26.2306C857.743 26.9601 858.366 27.7706 858.795 28.5601C859.228 29.3554 859.448 30.0989 859.448 30.701H860.448ZM851.328 22.6789H850.01V23.6789H851.328V22.6789ZM849.51 23.1789V38.4977H850.51V23.1789H849.51ZM849.51 38.4977C849.51 39.5022 849.79 40.2954 850.232 40.9103C850.67 41.5197 851.248 41.9277 851.809 42.2005C852.918 42.7398 854.031 42.7862 854.128 42.7862V41.7862C854.134 41.7862 853.894 41.7793 853.529 41.7121C853.167 41.6455 852.702 41.5229 852.247 41.3013C851.792 41.08 851.361 40.7673 851.044 40.3266C850.731 39.8915 850.51 39.3051 850.51 38.4977H849.51ZM854.128 42.7862H857.697V41.7862H854.128V42.7862ZM857.697 42.7862C861.684 42.7862 864.667 40.6572 866.776 38.1319C868.882 35.6106 870.157 32.651 870.746 30.8569L869.795 30.5452C869.231 32.2651 868.007 35.0981 866.009 37.4909C864.014 39.8796 861.287 41.7862 857.697 41.7862V42.7862Z" fill="currentColor"/>
</g>
</svg>
