<svg width="154" height="23" viewBox="0 0 154 23" fill="none" xmlns="http://www.w3.org/2000/svg">
<path d="M19.0619 4.8L23.3619 12.2L27.7019 4.8H29.6619L24.2619 13.82V19H22.4619V13.78L17.0819 4.8H19.0619ZM40.6694 19.1C39.6694 19.1 38.7627 18.9 37.9494 18.5C37.136 18.1 36.4294 17.56 35.8294 16.88C35.2427 16.1867 34.7894 15.4133 34.4694 14.56C34.1494 13.6933 33.9894 12.8067 33.9894 11.9C33.9894 10.9533 34.156 10.0533 34.4894 9.2C34.836 8.33333 35.3094 7.56667 35.9094 6.9C36.5227 6.22 37.236 5.68667 38.0494 5.3C38.8627 4.9 39.7494 4.7 40.7094 4.7C41.7094 4.7 42.616 4.90667 43.4294 5.32C44.2427 5.73333 44.9427 6.28667 45.5294 6.98C46.116 7.67333 46.5694 8.44667 46.8894 9.3C47.2094 10.1533 47.3694 11.0267 47.3694 11.92C47.3694 12.8667 47.2027 13.7733 46.8694 14.64C46.536 15.4933 46.0627 16.26 45.4494 16.94C44.8494 17.6067 44.1427 18.1333 43.3294 18.52C42.516 18.9067 41.6294 19.1 40.6694 19.1ZM35.8094 11.9C35.8094 12.62 35.9227 13.32 36.1494 14C36.3894 14.6667 36.7227 15.26 37.1494 15.78C37.576 16.3 38.0894 16.7133 38.6894 17.02C39.2894 17.3267 39.956 17.48 40.6894 17.48C41.4494 17.48 42.1294 17.32 42.7294 17C43.3294 16.68 43.836 16.2533 44.2494 15.72C44.676 15.1867 44.996 14.5867 45.2094 13.92C45.436 13.2533 45.5494 12.58 45.5494 11.9C45.5494 11.18 45.4294 10.4867 45.1894 9.82C44.9627 9.15333 44.6294 8.56 44.1894 8.04C43.7627 7.50667 43.2494 7.09333 42.6494 6.8C42.0627 6.49333 41.4094 6.34 40.6894 6.34C39.9294 6.34 39.2494 6.5 38.6494 6.82C38.0494 7.12667 37.536 7.54667 37.1094 8.08C36.696 8.61333 36.376 9.21333 36.1494 9.88C35.9227 10.5333 35.8094 11.2067 35.8094 11.9ZM59.9303 19.1C58.797 19.1 57.8436 18.9067 57.0703 18.52C56.297 18.12 55.677 17.5867 55.2103 16.92C54.7436 16.24 54.4036 15.4733 54.1903 14.62C53.977 13.7667 53.8703 12.8867 53.8703 11.98V4.8H55.6703V11.98C55.6703 12.6733 55.737 13.3533 55.8703 14.02C56.017 14.6733 56.2503 15.26 56.5703 15.78C56.8903 16.3 57.3236 16.7133 57.8703 17.02C58.417 17.3267 59.097 17.48 59.9103 17.48C60.737 17.48 61.4236 17.3267 61.9703 17.02C62.517 16.7 62.9503 16.28 63.2703 15.76C63.5903 15.2267 63.817 14.6333 63.9503 13.98C64.097 13.3267 64.1703 12.66 64.1703 11.98V4.8H65.9703V11.98C65.9703 12.94 65.857 13.8533 65.6303 14.72C65.417 15.5733 65.0703 16.3267 64.5903 16.98C64.1103 17.6333 63.4836 18.1533 62.7103 18.54C61.9503 18.9133 61.0236 19.1 59.9303 19.1ZM83.608 6.4H78.708V19H76.908V6.4H72.008V4.8H83.608V6.4ZM95.7131 19.1C94.5798 19.1 93.6265 18.9067 92.8531 18.52C92.0798 18.12 91.4598 17.5867 90.9931 16.92C90.5265 16.24 90.1865 15.4733 89.9731 14.62C89.7598 13.7667 89.6531 12.8867 89.6531 11.98V4.8H91.4531V11.98C91.4531 12.6733 91.5198 13.3533 91.6531 14.02C91.7998 14.6733 92.0331 15.26 92.3531 15.78C92.6731 16.3 93.1065 16.7133 93.6531 17.02C94.1998 17.3267 94.8798 17.48 95.6931 17.48C96.5198 17.48 97.2065 17.3267 97.7531 17.02C98.2998 16.7 98.7331 16.28 99.0531 15.76C99.3731 15.2267 99.5998 14.6333 99.7331 13.98C99.8798 13.3267 99.9531 12.66 99.9531 11.98V4.8H101.753V11.98C101.753 12.94 101.64 13.8533 101.413 14.72C101.2 15.5733 100.853 16.3267 100.373 16.98C99.8931 17.6333 99.2665 18.1533 98.4931 18.54C97.7331 18.9133 96.8065 19.1 95.7131 19.1ZM120.051 15.34C120.051 16.0733 119.864 16.7133 119.491 17.26C119.117 17.8067 118.611 18.2333 117.971 18.54C117.344 18.8467 116.651 19 115.891 19H109.151V4.8H116.211C116.877 4.8 117.451 4.98 117.931 5.34C118.424 5.68667 118.797 6.14 119.051 6.7C119.317 7.24667 119.451 7.82 119.451 8.42C119.451 9.11333 119.271 9.76667 118.911 10.38C118.564 10.98 118.064 11.4267 117.411 11.72C118.224 11.96 118.864 12.4067 119.331 13.06C119.811 13.7 120.051 14.46 120.051 15.34ZM118.231 15.02C118.231 14.58 118.131 14.1733 117.931 13.8C117.744 13.4267 117.484 13.1267 117.151 12.9C116.831 12.6733 116.457 12.56 116.031 12.56H110.951V17.44H115.891C116.331 17.44 116.724 17.3267 117.071 17.1C117.431 16.8733 117.711 16.58 117.911 16.22C118.124 15.8467 118.231 15.4467 118.231 15.02ZM110.951 6.36V11.1H115.471C115.897 11.1 116.271 10.9933 116.591 10.78C116.924 10.5667 117.184 10.28 117.371 9.92C117.571 9.56 117.671 9.16667 117.671 8.74C117.671 8.28667 117.577 7.88667 117.391 7.54C117.217 7.18 116.971 6.89333 116.651 6.68C116.344 6.46667 115.991 6.36 115.591 6.36H110.951ZM136.409 17.4V19H126.769V4.8H136.229V6.4H128.569V11H135.229V12.5H128.569V17.4H136.409Z" fill="#4E4E4E"/>
</svg>
